<?xml version="1.0" encoding="iso-8859-1"?>
<!-- Generator: Adobe Illustrator 19.0.0, SVG Export Plug-In . SVG Version: 6.00 Build 0)  -->
<svg version="1.1" id="Capa_1" xmlns="http://www.w3.org/2000/svg" xmlns:xlink="http://www.w3.org/1999/xlink" x="0px" y="0px"
	 viewBox="0 0 512 512" style="enable-background:new 0 0 512 512;" xml:space="preserve">
<g>
	<g>
		<path d="M86.848,241.526c-1.218-3.959-5.416-6.179-9.374-4.962c-11.8,3.63-27.51,9.963-44.403,26.849
			c-24.015,24.002-35.596,57.652-32.61,94.749c2.885,35.832,18.896,71.046,45.086,99.154c1.478,1.586,3.48,2.387,5.489,2.387
			c1.831,0,3.666-0.666,5.111-2.012c3.031-2.823,3.199-7.568,0.375-10.599c-23.895-25.645-38.494-57.655-41.109-90.133
			c-2.628-32.642,7.409-62.096,28.263-82.939c14.474-14.468,27.437-19.807,38.209-23.121
			C85.844,249.681,88.066,245.485,86.848,241.526z"/>
	</g>
</g>
<g>
	<g>
		<path d="M188.961,397.946L113.87,322.89c-2.929-2.927-7.676-2.927-10.604,0l-25.599,25.588c-1.407,1.407-2.197,3.314-2.197,5.304
			s0.791,3.897,2.198,5.304l75.09,75.056c1.464,1.464,3.383,2.196,5.302,2.196s3.838-0.732,5.302-2.196l25.599-25.588
			c1.407-1.407,2.198-3.314,2.198-5.304S190.368,399.353,188.961,397.946z M158.06,418.235l-64.482-64.453l14.991-14.984
			l64.482,64.453L158.06,418.235z"/>
	</g>
</g>
<g>
	<g>
		<g>
			<path d="M347.683,208.966c0.037-0.035,0.001,0.001,0.037-0.035C347.756,208.895,347.649,209.002,347.683,208.966z"/>
			<path d="M509.803,78.957L496.855,66.01l4.829-5.875c4.047-4.924,3.699-12.035-0.809-16.54L468.03,10.764
				c-4.533-4.531-11.667-4.858-16.596-0.762l-5.798,4.818L433.002,2.195c-2.93-2.927-7.679-2.927-10.606,0.003
				c-2.928,2.929-2.927,7.677,0.003,10.605l11.652,11.645l-8.911,7.405l-10.908-10.9c-2.93-2.929-7.679-2.927-10.606,0.003
				c-2.928,2.929-2.927,7.678,0.003,10.605l9.926,9.919l-8.909,7.403l-9.173-9.171c-2.929-2.929-7.678-2.928-10.606,0
				c-2.929,2.929-2.929,7.677,0,10.605l8.194,8.193l-3.98,3.308c-2.66,2.21-4.276,5.459-4.434,8.912
				c-0.147,3.209,0.988,6.346,3.109,8.736l-84.564,84.527c-44.288-33.128-88.643-36.443-116.833-8.265
				c-8.423,8.421-12.445,15.573-16.336,22.488c-4.051,7.201-8.24,14.648-18.234,24.636c-16.201,16.195-30.665,21.994-42.678,25.532
				c-3.974,1.17-6.246,5.339-5.076,9.312c0.962,3.266,3.95,5.383,7.191,5.383c0.702,0,1.415-0.099,2.122-0.308
				c13.825-4.071,30.464-10.736,49.045-29.311c11.452-11.445,16.367-20.182,20.703-27.89c3.704-6.585,6.903-12.271,13.867-19.235
				c11.615-11.608,26.461-16.405,44.131-14.252c16.094,1.96,33.725,9.754,51.374,22.63l-79.332,79.297
				c-3.778-0.77-7.66-1.171-11.605-1.171c-15.359,0-29.798,5.98-40.658,16.839s-16.842,25.296-16.842,40.654
				c0,15.357,5.981,29.795,16.842,40.653c10.86,10.859,25.3,16.84,40.658,16.84c15.358,0,29.798-5.981,40.658-16.84
				c10.86-10.859,16.841-25.296,16.841-40.653c0-3.939-0.4-7.816-1.168-11.59l79.061-79.022c0.066-0.058,0.063-0.051,0.064-0.051
				c-0.024,0.023-0.044,0.042-0.06,0.056c25.25,36.469,29.026,74.797,8.65,95.154c-6.696,6.695-12.309,9.934-18.808,13.683
				c-7.769,4.482-16.574,9.562-28.141,21.122c-23.757,23.754-28.738,44.523-33.554,64.607c-4.319,18.009-8.398,35.018-27.234,53.847
				c-19.271,19.26-45.414,28.878-73.359,28.876c-28.316-0.001-58.482-9.879-85.194-29.609c-3.332-2.46-8.027-1.756-10.489,1.576
				c-2.461,3.331-1.755,8.027,1.577,10.487C99.747,501.164,133.023,512,164.479,512c31.827,0,61.792-11.093,83.965-33.254
				c21.83-21.823,26.601-41.718,31.216-60.957c4.531-18.893,8.81-36.738,29.574-57.498c10.168-10.163,17.724-14.522,25.032-18.738
				c6.797-3.921,13.825-7.976,21.917-16.066c26.092-26.067,22.389-73.313-8.5-116.521l58.752-58.723
				c2.93-2.928,2.931-7.676,0.002-10.605c-2.929-2.93-7.677-2.93-10.606-0.002l-2.714,2.712l-23.523-23.52l28.744-28.731
				l23.525,23.518l-3.404,3.403c-2.93,2.928-2.931,7.676-0.002,10.605c2.928,2.929,7.677,2.93,10.606,0.002l3.436-3.435
				c2.249,1.986,5.153,3.101,8.158,3.101c0.199,0,0.398-0.005,0.598-0.015c3.466-0.169,6.719-1.803,8.922-4.484l3.241-3.943
				l8.239,8.238c1.464,1.464,3.384,2.197,5.303,2.197s3.839-0.732,5.303-2.197c2.929-2.928,2.929-7.677,0-10.605l-9.275-9.274
				l7.366-8.96l10.073,10.072c1.464,1.464,3.384,2.197,5.303,2.197s3.839-0.732,5.303-2.197c2.929-2.928,2.929-7.677,0-10.605
				l-11.109-11.108l7.361-8.955l11.912,11.911c1.464,1.465,3.384,2.197,5.303,2.197s3.839-0.732,5.303-2.197
				C512.732,86.634,512.732,81.886,509.803,78.957z M231.583,340.378c-8.027,8.026-18.7,12.447-30.052,12.447
				s-22.025-4.42-30.052-12.447c-8.027-8.027-12.448-18.697-12.448-30.048s4.421-22.022,12.448-30.049
				c8.027-8.027,18.7-12.446,30.052-12.446c4.002,0,7.916,0.561,11.663,1.624c0.121,0.038,0.244,0.07,0.367,0.101
				c6.739,1.978,12.917,5.617,18.022,10.721c5.099,5.099,8.736,11.267,10.716,17.996c0.035,0.14,0.072,0.28,0.115,0.418
				c1.058,3.738,1.616,7.643,1.616,11.635C244.031,321.681,239.611,332.352,231.583,340.378z M252.234,283.16
				c-2.635-4.899-6-9.44-10.044-13.483c-4.04-4.04-8.578-7.402-13.472-10.035l39.712-39.695l23.52,23.517L252.234,283.16z
				 M302.558,232.861l-23.52-23.518l19.577-19.569l23.521,23.518L302.558,232.861z M332.744,202.69l-23.521-23.518l19.577-19.568
				l23.522,23.519L332.744,202.69z M382.508,152.951l-19.578,19.568L339.408,149l19.577-19.568L382.508,152.951z M440.46,110.993
				l-39.534-39.517l58.223-48.383l29.406,29.393L440.46,110.993z"/>
			<path d="M336.927,219.726c-0.001-0.002-0.003-0.004-0.004-0.006C336.893,219.755,336.904,219.747,336.927,219.726z"/>
		</g>
	</g>
</g>
<g>
</g>
<g>
</g>
<g>
</g>
<g>
</g>
<g>
</g>
<g>
</g>
<g>
</g>
<g>
</g>
<g>
</g>
<g>
</g>
<g>
</g>
<g>
</g>
<g>
</g>
<g>
</g>
<g>
</g>
</svg>
