<?xml version="1.0" encoding="utf-8"?>
<!-- Generator: Adobe Illustrator 24.1.0, SVG Export Plug-In . SVG Version: 6.00 Build 0)  -->
<svg version="1.1" id="Laag_1" xmlns="http://www.w3.org/2000/svg" xmlns:xlink="http://www.w3.org/1999/xlink" x="0px" y="0px"
	 viewBox="0 0 524.4 524.4" style="enable-background:new 0 0 524.4 524.4;" xml:space="preserve">
<style type="text/css">
	.st0{fill:#197DC9;}
</style>
<g>
	<path d="M416.9,255.3c2.7,0.3,5.5,0.7,8.3,1.1L456,441.7c-60.2-20.1-125.3-20.1-185.5,0V334.9c0-4.7-3.8-8.5-8.5-8.5
		s-8.5,3.8-8.5,8.5v106.9c-60.2-20.1-125.3-20.1-185.5-0.1l30.6-185.3c3.9-0.6,8-1.1,12-1.6c-1.3-2.6-2.4-5.1-3.5-7.5l-4.1-8.7
		c-2.3,0.3-4.6,0.6-6.8,0.9c-7.3,1.1-13.1,6.8-14.4,14.1l-1.2,7.3H64.1c-8.2,0-15.2,5.8-16.7,13.8L10,466.6
		c-1.5,7.5,0.5,15.3,5.4,21.2c4.9,5.9,12.1,9.3,19.8,9.3h178c7.1,11.7,28.5,17.1,48.8,17.1c20,0,41.3-5.3,48.6-17.1h178.2
		c7.7,0,14.9-3.4,19.8-9.3s6.9-13.7,5.4-21.2l-37.4-191.8c-1.5-8-8.6-13.8-16.8-13.8h-16.5l-1.2-7.3c-1.2-7.3-7-13-14.3-14.1
		c-1.6-0.3-3.2-0.4-4.9-0.6v0.5V239 M211.4,480H35.2c-2.6,0-5-1.2-6.6-3.1s-2.3-4.5-1.8-7l37.4-191.8h13.7L51,438.9
		c-0.9,5.9,1.2,11.8,5.7,15.7c4.5,3.9,10.7,5.2,16.3,3.4c45.5-14.7,94-17.8,140.9-8.9L211.4,480z M261.9,497.1
		c-20.6,0-32.3-6.1-34.1-8.8l2.9-35.4c9.4,2.3,18.6,5.4,27.5,9.2c1.2,0.6,2.4,0.8,3.7,0.9c1.3,0,2.5-0.3,3.7-0.9
		c8.9-3.8,18.1-6.9,27.5-9.3l2.9,35.5C294.2,491,282.5,497.1,261.9,497.1z M495.3,476.9c-1.6,2-4.1,3.1-6.6,3.1H312.4l-2.6-31
		c47-8.9,95.5-5.8,141,9c5.7,1.7,11.8,0.4,16.3-3.4c4.5-3.9,6.6-9.8,5.7-15.7L446,278h13.7l37.4,191.8
		C497.6,472.3,496.9,474.9,495.3,476.9L495.3,476.9z"/>
	<path class="st0" d="M422.9,238.9c2.8-13,0.4-26.7-6.5-38.1c3.7-9.5,3-20.2-1.9-29.2s-13.4-15.4-23.4-17.5
		c-6.4-34.2-36.1-59.1-70.9-59.3c-0.9,0-1.6,0.1-2.4,0.1c-5.6-8.7-14.7-14.5-25-15.8s-20.6,2.1-28.1,9.2c-9.5-6.2-20.6-9.5-31.9-9.5
		c-18.2,0.1-35.4,8.5-46.6,22.9c-12.4-3.6-25.8-1.4-36.3,6c-10.6,7.4-17.2,19.3-18,32.2c-13,5.5-21.5,18.2-21.5,32.4
		c0,2.4,0.3,4.9,0.9,7.3c-11.5,17.4-14.6,39-8.2,58.9c1.5,3.1,2.8,5.9,4.1,8.7l3.5,7.5c15.8,25.2,46,37.4,74.9,30.4
		c7.8,14.7,21.9,25,38.4,27.8c16.4,2.8,33.2-2.2,45.4-13.6c5.8,1.7,11.8,2.8,17.8,3.2c4.1,15.6,16,25.1,41.1,33.5
		c6.7,2.1,12.8,6.1,17.4,11.4c5.1,6.1,12.7,9.6,20.6,9.7c3.5,0,6.9-0.7,10.1-2.1c9.7-4.1,15.9-13.6,15.9-24.2c0-2.7-0.4-5.5-1.3-8.1
		c-1.9-6-4.4-11.8-7.5-17.4c14.5-10.4,24.6-25.9,28.4-43.4c1.8-2.2,3.8-4.4,5.2-6.8 M121,197.4c1.9,1.9,4,3.6,6.3,5.1
		c4,2.4,9.2,1,11.6-3s1.2-9.2-2.8-11.7l0,0c-6.9-4.2-10.2-12.4-8.1-20.2c2.1-7.8,9.2-13.2,17.3-13.2c5.7,0,11,2.7,14.3,7.2
		c1.8,2.4,4.8,3.7,7.8,3.4s5.6-2.3,6.9-5.1s0.8-6-1-8.5c-5.8-7.7-14.6-12.7-24.2-13.7c2.5-12,13.1-20.5,25.3-20.5
		c1,0.1,2.1,0.2,3.1,0.3c-0.7,1.7-1.3,3.5-1.8,5.3c-1.1,4.5,1.7,9.1,6.2,10.2c4.5,1.1,9.1-1.5,10.3-5.9c1-3.8,2.5-7.3,4.4-10.7
		c7.6-12.7,21.2-20.5,36-20.5c8,0,15.9,2.4,22.6,6.8c-1.3,3.6-2,7.4-2,11.2c0,4.7,3.8,8.5,8.5,8.5c4.7,0,8.5-3.8,8.5-8.5
		c0-9.9,8-17.9,17.9-17.9s17.9,8,17.9,17.9c0,4.7,3.8,8.5,8.5,8.5s8.5-3.8,8.5-8.5c0-0.7-0.2-1.3-0.2-1.9
		c24.4,1.5,45,18.9,50.5,42.7c-4,1.2-7.7,3-11,5.5c-2.4,1.8-3.7,4.8-3.4,7.8s2.3,5.6,5.1,6.8s6,0.8,8.5-1c6.8-5,16.2-4.6,22.6,1
		s7.9,14.9,3.8,22.3c-1.9,3.3-4.7,5.9-8.1,7.5c-3.6,1.7-5.5,5.7-4.6,9.5c0.9,3.9,4.3,6.6,8.2,6.7c1.3,0,2.5-0.3,3.6-0.8
		c2.3-1.1,4.4-2.4,6.4-4c4.4,12.5,1.6,26.5-7.2,36.4l-0.2,0.2c-11.1,12-28.9,15.3-43.5,8c-1.4-0.8-2.8-1.6-4.1-2.6
		c6.3-8.8,7.2-20.4,2.3-30c-1.4-2.7-4.1-4.5-7.1-4.7s-6,1.3-7.6,3.8c-1.7,2.6-1.9,5.8-0.5,8.5c2.8,5.6,1.1,12.5-4.1,16.1
		c-3,2-6.8,2.7-10.3,1.8s-6.5-3.3-8.2-6.5c-1.4-2.7-4.1-4.5-7.1-4.7s-6,1.3-7.6,3.8c-1.7,2.5-1.9,5.8-0.5,8.5
		c5,10.1,15.3,16.5,26.6,16.5c3.7,0,7.3-0.7,10.7-2.1c3,2.7,6.4,5,10,6.8c12.2,6.3,26.3,7.6,39.4,3.6c-8.4,11.5-21.1,19.3-35.1,21.5
		c-4.4,0.7-7.5,4.7-7.1,9.1c0.3,4.4,4,7.8,8.5,7.9c0.5,0,0.9,0,1.4-0.1c5.2-0.9,10.3-2.4,15.1-4.4c2.6,4.6,4.8,9.6,6.4,14.7
		c0.3,0.9,0.4,1.8,0.4,2.8c0,3.7-2.2,7-5.6,8.5c-3.9,1.5-8.4,0.3-11-3c-6.6-7.8-15.3-13.5-25-16.6c-18.4-6.2-25.6-11.7-28.6-17.7
		c4.4-0.6,8.8-1.5,13.1-2.7c2.9-0.9,5.1-3.3,5.8-6.3c0.7-3-0.3-6.1-2.5-8.2s-5.4-2.8-8.3-1.9c-4.8,1.5-9.7,2.4-14.7,2.7
		c-9.6,0.8-19.3-0.7-28.3-4.3c-3.4-1.3-7.2-0.4-9.6,2.4c-12.4,14.3-33.7,16.7-49,5.6s-19.6-32.1-9.9-48.3c1.6-2.6,1.6-5.9,0.1-8.6
		s-4.3-4.3-7.3-4.4c-3.1,0-5.9,1.5-7.5,4.2c-2,3.5-3.7,7.1-4.9,11c-6.7-0.4-12-5.8-12.1-12.6v-0.2c0-2.3-0.9-4.4-2.5-6
		s-3.8-2.5-6-2.4c-4.7,0-8.5,3.9-8.5,8.6c0,15.1,11.5,27.8,26.5,29.4c0,2.9,0.3,5.7,0.8,8.5c-19.1,4.1-38.8-2.7-51.2-17.8
		C116.4,236,113.4,215.3,121,197.4z"/>
	<path d="M103,238.6l4.1,8.7C105.8,244.5,104.5,241.7,103,238.6z"/>
	<path id="Shape_1_" class="st0" d="M233.6,204.2c-3.5,3.2-3.8,8.6-0.6,12c7.2,8,16.8,13.5,27.3,15.8c-4.8,6.7-12.5,10.7-20.8,10.7
		c-4.7,0-8.5,3.8-8.5,8.5s3.8,8.5,8.5,8.5c17.7,0.1,33.5-10.8,39.8-27.4c21.2-3.5,38-19.8,42.1-41c0.6-3-0.4-6.1-2.7-8.2
		c-2.3-2-5.6-2.7-8.5-1.6c-2.9,1-5,3.6-5.6,6.6c-1.7,8.8-6.8,16.6-14.1,21.7c-14.2,9.6-33.2,7.4-44.9-5.1
		C242.5,201.4,237.1,201.1,233.6,204.2L233.6,204.2z"/>
	<path id="Shape_2_" class="st0" d="M203.9,195c4.7,0,8.5-3.8,8.5-8.5c0-5.9,2.3-11.5,6.5-15.7s9.8-6.5,15.7-6.5
		c4.7,0,8.5-3.8,8.5-8.5s-3.8-8.5-8.5-8.5c-21.7,0-39.2,17.6-39.3,39.3c0,2.3,0.9,4.4,2.5,6S201.6,195,203.9,195z"/>
	<path id="Shape_3_" d="M270.4,27.7v-8.5c0-4.7-3.8-8.5-8.5-8.5s-8.5,3.8-8.5,8.5v8.5c0,4.7,3.8,8.5,8.5,8.5
		C266.6,36.3,270.4,32.4,270.4,27.7z"/>
	<path id="Shape_4_" d="M401.9,71.9l-8.5,8.5c-2.2,2.1-3.1,5.3-2.3,8.3c0.8,3,3.1,5.3,6.1,6.1c3,0.8,6.2-0.1,8.3-2.3L414,84
		c2.2-2.1,3.1-5.3,2.3-8.3c-0.8-3-3.1-5.3-6.1-6.1S404.1,69.7,401.9,71.9z"/>
	<path id="Shape_5_" d="M124.4,95c3.5,0,6.6-2.1,7.9-5.3c1.3-3.2,0.6-6.9-1.8-9.3l-8.5-8.5c-2.1-2.2-5.3-3.1-8.3-2.3
		c-3,0.8-5.3,3.1-6.1,6.1s0.1,6.2,2.3,8.3l8.5,8.5C119.9,94.1,122.1,95,124.4,95z"/>
	<path id="Shape_6_" d="M190.1,59.1c1.1,0,2.2-0.2,3.3-0.6c2.1-0.9,3.8-2.5,4.6-4.6s0.9-4.4,0-6.5l-9.8-23.7
		c-1.1-2.9-3.7-4.9-6.8-5.4c-3.1-0.4-6.1,0.8-8,3.3s-2.2,5.8-1,8.6l9.8,23.7C183.5,57,186.6,59.1,190.1,59.1L190.1,59.1z"/>
	<path id="Shape_7_" d="M346.8,19c-4.4-1.8-9.3,0.3-11.1,4.6l-9.8,23.7c-0.9,2.1-0.9,4.4,0,6.5s2.5,3.8,4.6,4.6
		c1,0.4,2.1,0.6,3.3,0.6c3.5,0,6.6-2.1,7.9-5.3l9.8-23.7c0.9-2.1,0.9-4.4,0-6.5C350.6,21.6,348.9,19.9,346.8,19z"/>
	<path id="Shape_8_" d="M435.3,160.7c1.1,0,2.2-0.2,3.3-0.7l23.6-9.8c2.8-1.2,4.8-3.7,5.2-6.8c0.4-3-0.8-6-3.3-7.9
		c-2.4-1.9-5.6-2.3-8.5-1.1l-23.7,9.8c-3.8,1.6-5.9,5.6-5.1,9.6C427.7,157.8,431.3,160.7,435.3,160.7L435.3,160.7z"/>
	<path id="Shape_9_" d="M85.2,160c4.4,1.8,9.3-0.3,11.2-4.6c1.8-4.4-0.3-9.3-4.6-11.2l-23.7-9.8c-4.4-1.8-9.3,0.3-11.1,4.6
		c-1.8,4.4,0.3,9.3,4.6,11.1L85.2,160z"/>
</g>
</svg>
