<?xml version="1.0" encoding="utf-8"?>
<!-- Generator: Adobe Illustrator 25.2.0, SVG Export Plug-In . SVG Version: 6.00 Build 0)  -->
<svg version="1.1" id="Capa_1" xmlns="http://www.w3.org/2000/svg" xmlns:xlink="http://www.w3.org/1999/xlink" x="0px" y="0px"
	 viewBox="0 0 512 512" style="enable-background:new 0 0 512 512;" xml:space="preserve">
<style type="text/css">
	.st0{fill:#1193F5;}
</style>
<path d="M237.7,453.6C29,267.8,43.2,280.6,40.3,277.8c0,0,0,0,0,0C-26,214.1-5.6,110,65.9,68.8c3.6-2.1,8.2-0.8,10.2,2.8
	c2.1,3.6,0.8,8.2-2.8,10.2c-65.2,37.6-81.7,132.9-19,188.6l193.4,172c4.7,4.2,11.9,4.2,16.6,0l61.9-55.1c3.1-2.8,7.8-2.5,10.6,0.6
	c2.8,3.1,2.5,7.8-0.6,10.6l-61.9,55.1C263.8,462.8,248.1,462.8,237.7,453.6L237.7,453.6z"/>
<path class="st0" d="M351.8,374.6c-2.8-3.1-2.5-7.8,0.6-10.6l105.3-93.7c21.8-19.4,35.1-44.4,38.5-72.2
	c7.6-62.9-37.9-131.6-116-131.6c-54.9,0-102.9,38.9-114.1,92.6c-2.3,10.8-17.7,10.8-20,0c-13.1-62.4-75.9-105-142.2-89.4
	c-4,0.9-8.1-1.5-9-5.6c-1-4,1.5-8.1,5.6-9c67.2-15.9,133.4,21.2,155.7,84.2c8-22.5,22-42.6,40.6-57.9C349.5,38,429,42,476.1,92.7
	c26.1,28.2,39.7,68,35,107.2c-3.8,31.5-18.8,59.7-43.4,81.6l-105.3,93.7C359.3,377.9,354.5,377.7,351.8,374.6z"/>
</svg>
