<?xml version="1.0" encoding="UTF-8"?>
<!DOCTYPE svg PUBLIC '-//W3C//DTD SVG 1.1//EN' 'http://www.w3.org/Graphics/SVG/1.1/DTD/svg11.dtd'>
<svg enable-background="new 0 0 465.072 465.072" version="1.1" viewBox="0 0 465.07 465.07" xml:space="preserve"
	xmlns="http://www.w3.org/2000/svg">
	<path
		d="m85.266 308.8c-2.929-2.927-7.677-2.929-10.607 0-2.929 2.93-2.929 7.678 0 10.607l70.997 70.998c1.465 1.464 3.384 2.196 5.304 2.196 1.919 0 3.839-0.732 5.304-2.196 2.929-2.93 2.929-7.678 0-10.607l-70.998-70.998z" />
	<path
		d="m464.42 53.43c0.201-0.866 4.711-21.407-13.333-39.452-18.045-18.044-38.585-13.537-39.452-13.333-1.366 0.316-2.616 1.011-3.608 2.002l-2.88 2.88-1.768-1.768c-2.93-2.928-7.677-2.929-10.606 1e-3 -2.929 2.929-2.929 7.678 1e-3 10.606l1.767 1.767-7.986 7.986-1.768-1.768c-2.93-2.928-7.677-2.929-10.606 1e-3 -2.929 2.929-2.929 7.678 1e-3 10.606l1.767 1.767-7.986 7.986-1.768-1.768c-2.93-2.928-7.678-2.928-10.607 0-2.929 2.93-2.929 7.678 0 10.607l3.249 3.249-11.219 22.438-80.766 77.747c-16.543-12.764-49.225-31.294-83.268-13.071-22.692 12.115-28.734 27.553-34.064 41.173-4.247 10.853-7.915 20.225-19.394 28.731-5.339 3.952-15.196 5.917-26.61 8.192-28.515 5.684-67.567 13.468-93.229 60.904-30.572 56.524 14.76 111.31 35.693 132.27l5.939 5.929c15.912 15.911 51.405 45.96 92.376 45.96 12.89-1e-3 26.323-2.976 39.858-10.3 47.438-25.661 55.223-64.704 60.906-93.212 2.275-11.411 4.24-21.266 8.191-26.603 8.504-11.482 17.878-15.152 28.732-19.401 13.623-5.333 29.064-11.378 41.169-34.063 18.224-34.048-0.311-66.731-13.078-83.274l77.735-80.754 22.461-11.231 3.244 3.243c1.465 1.464 3.384 2.196 5.303 2.196s3.839-0.732 5.304-2.197c2.929-2.929 2.929-7.678-1e-3 -10.606l-1.767-1.767 7.986-7.986 1.767 1.767c1.465 1.464 3.385 2.196 5.304 2.196s3.839-0.732 5.304-2.196c2.929-2.93 2.929-7.678 0-10.607l-1.767-1.767 7.985-7.985 1.767 1.767c1.465 1.464 3.385 2.196 5.304 2.196s3.839-0.732 5.304-2.196c2.929-2.93 2.929-7.678 0-10.607l-1.767-1.767 2.879-2.879c0.991-0.992 1.686-2.242 2.002-3.608zm-154.5 220.99c-9.501 17.807-20.58 22.145-33.407 27.166-11.365 4.449-24.246 9.492-35.32 24.443-5.949 8.037-8.219 19.417-10.846 32.596-5.387 27.018-12.091 60.642-53.334 82.952-47.683 25.804-95.949-14.535-114.48-33.064l-5.968-5.957c-18.535-18.555-58.861-66.855-33.089-114.51 22.31-41.24 55.942-47.943 82.968-53.331 13.181-2.627 24.564-4.896 32.605-10.849 14.947-11.077 19.987-23.956 24.435-35.318 5.019-12.825 9.354-23.9 27.167-33.411 25.473-13.636 51.046-0.133 65.255 10.375l-48.613 46.795c-0.711-0.031-1.424-0.052-2.14-0.052-12.778 0-24.779 4.965-33.788 13.973-9.008 8.989-13.968 20.968-13.965 33.729 2e-3 12.761 4.967 24.738 13.968 33.713 8.998 9.011 20.983 13.974 33.749 13.974s24.746-4.964 33.716-13.959c9.001-8.963 13.967-20.926 13.982-33.687 1e-3 -0.753-0.019-1.504-0.052-2.251l46.775-48.592c10.51 14.208 24.018 39.783 10.381 65.262zm-100.63-46.896c7.171 0.894 13.793 4.096 18.959 9.252 5.177 5.181 8.393 11.807 9.297 18.982 8e-3 0.076 0.018 0.152 0.028 0.228 0.157 1.316 0.245 2.649 0.243 3.997-0.011 8.748-3.408 16.942-9.585 23.094-6.153 6.171-14.362 9.569-23.113 9.569-8.755 0-16.971-3.399-23.146-9.584-6.17-6.152-9.569-14.358-9.57-23.105-2e-3 -8.747 3.394-16.954 9.565-23.113 6.182-6.181 14.416-9.585 23.188-9.585 1.318 0 2.621 0.086 3.909 0.238 0.074 9e-3 0.149 0.019 0.225 0.027zm39.367 12.865c-2.344-5.231-5.634-10.049-9.805-14.223-4.16-4.151-8.964-7.426-14.181-9.76l128.97-124.15 19.152 19.175-124.14 128.96zm201.38-192.19-6.391 6.391c-7e-3 7e-3 -0.014 0.012-0.02 0.018-7e-3 7e-3 -0.012 0.014-0.018 0.02l-18.554 18.554c-7e-3 7e-3 -0.014 0.012-0.02 0.018-7e-3 7e-3 -0.012 0.014-0.018 0.02l-17.73 17.73-22.502 11.251-21.913-21.938 11.254-22.508 42.729-42.729c4.118-0.302 14.189 0.116 23.625 9.553 9.46 9.461 9.858 19.559 9.558 23.62z" />
</svg>