<?xml version="1.0" encoding="UTF-8"?>
<svg width="512" height="512" viewBox="0 0 60 59" xmlns="http://www.w3.org/2000/svg">
    <g fill="none" fill-rule="evenodd">
        <g fill="#000" fill-rule="nonzero">
            <path id="Shape"
                d="m55.143 30.953c-0.18073-0.94158-1.0042-1.6225-1.963-1.623h-1.931l-0.142-0.851c-0.14166-0.85475-0.81509-1.5225-1.671-1.657-0.19-0.03-0.382-0.05-0.571-0.076 0.32747-1.5288 0.055413-3.125-0.76-4.459 0.43082-1.1175 0.35041-2.3677-0.22002-3.4208s-1.5736-1.8035-2.745-2.0532c-0.74889-4.008-4.2357-6.9214-8.313-6.946-0.1 0-0.189 0.013-0.284 0.016-0.6515-1.0232-1.7256-1.7022-2.9293-1.8519-1.2037-0.14971-2.4114 0.24553-3.2937 1.0779-1.1115-0.72248-2.4084-1.1077-3.734-1.109-2.1359 0.0087408-4.149 1.0001-5.458 2.688-1.4535-0.42384-3.0208-0.1636-4.2593 0.70721-1.2385 0.87081-2.0137 2.2576-2.1067 3.7688-1.5267 0.64174-2.52 2.1359-2.521 3.792 0.003134 0.28707 0.036654 0.57299 0.1 0.853-1.3501 2.0353-1.7029 4.5736-0.959 6.9-0.268 0.037-0.542 0.07-0.8 0.108-0.86035 0.12981-1.5398 0.79794-1.684 1.656l-0.142 0.854h-1.936c-0.95715 6.578e-4 -1.7797 0.67938-1.962 1.619l-4.379 22.482c-0.17101 0.88047 0.06089 1.7913 0.63215 2.4827 0.57126 0.69147 1.4219 1.0911 2.3189 1.0893h20.854c0.828 1.366 3.344 2 5.716 2 2.347 0 4.839-0.619 5.691-2h20.879c0.89671 0.0017463 1.7472-0.39772 2.3184-1.0889 0.57122-0.69123 0.80328-1.6017 0.6326-2.4821zm-39.878-10.187c-0.81194-0.48819-1.1994-1.4573-0.94791-2.3707 0.25152-0.9134 1.0805-1.5476 2.0279-1.5513 0.66304-0.0019666 1.2871 0.3132 1.679 0.848 0.21293 0.28688 0.56274 0.43838 0.91765 0.39742 0.35491-0.040961 0.66102-0.26815 0.803-0.596 0.14198-0.32785 0.098279-0.70653-0.11465-0.99342-0.67903-0.90755-1.7081-1.4881-2.836-1.6 0.29814-1.4005 1.5331-2.4031 2.965-2.407 0.12201 0.0061884 0.24356 0.019545 0.364 0.04-0.08045 0.20501-0.15054 0.41394-0.21 0.626-0.12446 0.52935 0.19689 1.0611 0.7234 1.1971 0.52651 0.13598 1.0652-0.17369 1.2126-0.69711 0.11371-0.43951 0.28841-0.86094 0.519-1.252 0.88705-1.4861 2.4873-2.3993 4.218-2.407 0.94189 0.00417 1.8622 0.28212 2.649 0.8-0.14988 0.42111-0.22928 0.86405-0.235 1.311 0 0.55228 0.44772 1 1 1s1-0.44772 1-1c0-1.1617 0.94177-2.1035 2.1035-2.1035s2.1035 0.94177 2.1035 2.1035c0 0.55228 0.44772 1 1 1s1-0.44772 1-1c0-0.077-0.019-0.15-0.023-0.227 2.8633 0.17667 5.2711 2.212 5.922 5.006-0.46647 0.13581-0.90475 0.35427-1.294 0.645-0.28581 0.21436-0.43555 0.56491-0.39282 0.91962 0.042734 0.3547 0.27145 0.65966 0.6 0.8 0.32855 0.14034 0.70701 0.094744 0.99282-0.11962 0.79911-0.59165 1.903-0.54446 2.6487 0.11322 0.74571 0.65768 0.93046 1.747 0.44331 2.6138-0.21768 0.38275-0.54848 0.68874-0.947 0.876-0.41792 0.20235-0.64157 0.66575-0.53998 1.1188 0.10158 0.45308 0.50168 0.77663 0.96598 0.78117 0.14664 2.227e-4 0.29148-0.03223 0.424-0.095 0.26502-0.12843 0.51546-0.285 0.747-0.467 0.51692 1.4696 0.19272 3.104-0.846 4.265l-0.024 0.025c-1.3028 1.4113-3.381 1.7927-5.1 0.936-0.16837-0.088927-0.33012-0.18985-0.484-0.302 0.73657-1.0326 0.8383-2.389 0.264-3.52-0.16077-0.31922-0.47963-0.52842-0.83646-0.54879-0.35683-0.020378-0.69743 0.15116-0.8935 0.45s-0.21781 0.67958-0.057039 0.99879c0.32882 0.66094 0.12373 1.463-0.482 1.885-0.35571 0.23682-0.79515 0.31172-1.2092 0.20611s-0.76396-0.38184-0.96278-0.76011c-0.15988-0.31957-0.4781-0.52958-0.8348-0.55091-0.3567-0.02133-0.69768 0.14926-0.8945 0.4475-0.19682 0.29824-0.21958 0.67884-0.059704 0.99841 0.58647 1.1839 1.7948 1.9315 3.116 1.928 0.43012-0.0029151 0.85585-0.086705 1.255-0.247 0.35717 0.3127 0.75067 0.5813 1.172 0.8 1.4252 0.73875 3.0825 0.89196 4.619 0.427-0.98823 1.3493-2.4672 2.2562-4.118 2.525-0.51356 0.083605-0.8772 0.54707-0.83621 1.0658 0.040985 0.51871 0.47289 0.91931 0.99321 0.92123 0.053226-1.75e-5 0.10637-0.0040287 0.159-0.012 0.60893-0.10542 1.204-0.27918 1.774-0.518 0.30806 0.54466 0.55809 1.1201 0.746 1.717 0.034414 0.10421 0.051968 0.21325 0.052 0.323-2.519e-4 0.43221-0.25839 0.82256-0.656 0.992-0.45998 0.17791-0.9822 0.037545-1.291-0.347-0.77445-0.90944-1.7886-1.5833-2.927-1.945-2.161-0.724-2.995-1.371-3.349-2.075 0.51886-0.06474 1.0316-0.17176 1.533-0.32 0.34155-0.10504 0.60111-0.38431 0.68092-0.73261 0.079809-0.34831-0.032263-0.71273-0.294-0.956s-0.63337-0.32842-0.97492-0.22339c-0.56112 0.17215-1.1403 0.27853-1.726 0.317-1.1283 0.088189-2.2619-0.082837-3.314-0.5-0.39503-0.15406-0.84427-0.042251-1.121 0.279-1.456 1.6725-3.9479 1.9567-5.7431 0.65514-1.7952-1.3016-2.2998-3.7583-1.1629-5.6621 0.18417-0.30743 0.19034-0.68976 0.016186-1.003s-0.50218-0.50972-0.8605-0.5155-0.69252 0.18004-0.87669 0.48746c-0.23859 0.40606-0.43047 0.8378-0.572 1.287-0.78748-0.041431-1.4084-0.68553-1.421-1.474v-0.025c-5.173e-4 -0.26387-0.10646-0.51659-0.29426-0.70195-0.1878-0.18536-0.44189-0.28799-0.70574-0.28505-0.55468 0.005491-1.0011 0.4573-1 1.012 0.0044528 1.7735 1.3419 3.2599 3.105 3.451 0.0035845 0.33523 0.034015 0.66963 0.091 1-2.2328 0.48313-4.5486-0.31945-6.0036-2.0806-1.455-1.7612-1.8062-4.1869-0.91039-6.2884 0.22372 0.22634 0.47346 0.4254 0.744 0.593 0.4724 0.27672 1.0795 0.12213 1.362-0.34682 0.28252-0.46895 0.13542-1.0779-0.33001-1.3662zm-4.4 8.033c0.461-0.068 0.937-0.128 1.41-0.19 1.8489 2.9546 5.3851 4.3893 8.77 3.558 0.9095 1.7262 2.5714 2.93 4.4951 3.256 1.9237 0.32604 3.8894-0.26292 5.3169-1.593 0.67957 0.2027 1.3795 0.32947 2.087 0.378 0.483 1.832 1.879 2.942 4.812 3.925 0.79068 0.24788 1.496 0.71246 2.036 1.341 0.6003 0.71383 1.4833 1.1287 2.416 1.135 0.4079-1.344e-4 0.8116-0.082438 1.187-0.242 1.1335-0.48444 1.8689-1.5983 1.869-2.831 9.195e-4 -0.32149-0.050416-0.64098-0.152-0.946-0.22488-0.70656-0.52108-1.3884-0.884-2.035 1.7005-1.2224 2.885-3.034 3.323-5.082 0.21298-0.25304 0.40558-0.52255 0.576-0.806 0.335 0.043 0.67 0.081 1.007 0.137l3.61 21.714c-7.0565-2.3563-14.688-2.3563-21.744 0v-12.518c0-0.55228-0.44772-1-1-1s-1 0.44772-1 1v12.522c-7.0557-2.3585-14.687-2.3613-21.744-8e-3zm-8.214 25.833c-0.18896-0.22825-0.26598-0.52902-0.21-0.82l4.379-22.482h1.6l-3.138 18.859c-0.11037 0.68644 0.14238 1.3811 0.66807 1.8361 0.52569 0.45501 1.2494 0.60554 1.9129 0.39788 5.331-1.7271 11.01-2.0875 16.517-1.048l-0.298 3.625h-20.652c-0.30168 2.141e-4 -0.58757-0.13484-0.779-0.368zm27.349 2.368c-2.409 0-3.791-0.712-3.994-1.029l0.344-4.15c1.0996 0.27378 2.1756 0.63458 3.218 1.079 0.1348 0.064954 0.28237 0.099112 0.432 0.1 0.15003-2.285e-4 0.29806-0.034416 0.433-0.1 1.0417-0.44703 2.1175-0.81018 3.217-1.086l0.344 4.156c-0.203 0.318-1.585 1.03-3.994 1.03zm27.349-2.368c-0.19143 0.23316-0.47732 0.36821-0.779 0.368h-20.649l-0.3-3.632c5.5096-1.0374 11.191-0.6739 16.524 1.057 0.66336 0.20492 1.3855 0.052251 1.9092-0.40362 0.52367-0.45587 0.77438-1.1501 0.6628-1.8354l-3.135-18.855h1.6l4.38 22.48c0.055473 0.29175-0.022686 0.59301-0.213 0.821z" />
            <path id="Shape"
                d="m26.686 22.685c-0.40936 0.37038-0.44114 1.0024-0.071 1.412 0.84831 0.93661 1.9694 1.583 3.205 1.848-0.55958 0.78856-1.4671 1.2565-2.434 1.255-0.55228 0-1 0.44772-1 1s0.44772 1 1 1c2.0702 0.0082594 3.9276-1.2703 4.659-3.207 2.4865-0.41208 4.4551-2.326 4.937-4.8 0.074454-0.35386-0.047931-0.72035-0.32007-0.95847-0.27214-0.23812-0.65163-0.31077-0.99248-0.19001-0.34085 0.12077-0.58994 0.41614-0.65145 0.77248-0.19609 1.0314-0.79117 1.9438-1.656 2.539-1.6637 1.1205-3.8951 0.86621-5.264-0.6-0.37038-0.40936-1.0024-0.44114-1.412-0.071z" />
            <path id="Shape"
                d="m23.2 21.6c0.55228 0 1-0.44772 1-1 0-0.68956 0.27393-1.3509 0.76152-1.8385s1.1489-0.76152 1.8385-0.76152c0.55228 0 1-0.44772 1-1s-0.44772-1-1-1c-2.5394 0.0027557-4.5972 2.0606-4.6 4.6 0 0.26522 0.10536 0.51957 0.29289 0.70711s0.44189 0.29289 0.70711 0.29289z" />
            <path id="Shape"
                d="m31 2v-1c0-0.55228-0.44772-1-1-1s-1 0.44772-1 1v1c0 0.55228 0.44772 1 1 1s1-0.44772 1-1z" />
            <path id="Shape"
                d="m46.41 7.176-1 1c-0.25996 0.25107-0.36421 0.62288-0.2727 0.97251 0.091516 0.34963 0.36456 0.62267 0.71419 0.71419 0.34963 0.091515 0.72143-0.012741 0.97251-0.2727l1-1c0.25996-0.25107 0.36421-0.62288 0.2727-0.97251-0.091516-0.34963-0.36456-0.62267-0.71419-0.71419-0.34963-0.091515-0.72143 0.012741-0.97251 0.2727z" />
            <path id="Shape"
                d="m13.883 9.883c0.4044-8.635e-5 0.76893-0.24373 0.92368-0.61735s0.06923-0.80366-0.21668-1.0897l-1-1c-0.25107-0.25996-0.62288-0.36421-0.97251-0.2727-0.34963 0.091515-0.62267 0.36456-0.71419 0.71419-0.091515 0.34963 0.012741 0.72143 0.2727 0.97251l1 1c0.18749 0.18755 0.44181 0.29294 0.707 0.293z" />
            <path id="Shape"
                d="m21.581 5.675c0.13138-2.8124e-4 0.26146-0.026093 0.383-0.076 0.2451-0.10153 0.43981-0.29629 0.54128-0.54142s0.10136-0.52053-2.776e-4 -0.76558l-1.149-2.772c-0.13162-0.33762-0.43559-0.57763-0.79454-0.62733-0.35895-0.049706-0.7167 0.098663-0.93511 0.38782s-0.26331 0.67384-0.11735 1.0055l1.148 2.772c0.1549 0.37359 0.51957 0.6171 0.924 0.617z" />
            <path id="Shape"
                d="m39.95 0.979c-0.51003-0.211-1.0946 0.031143-1.306 0.541l-1.149 2.772c-0.10196 0.24517-0.10222 0.52082-7.353e-4 0.76619 0.10148 0.24536 0.29639 0.44029 0.54174 0.54181 0.12154 0.049907 0.25162 0.075719 0.383 0.076 0.40443 1.0177e-4 0.7691-0.24341 0.924-0.617l1.148-2.772c0.10196-0.24517 0.10222-0.52082 7.353e-4 -0.76619-0.10148-0.24536-0.29639-0.44029-0.54174-0.54181z" />
            <path id="a"
                d="m50.325 17.582c0.13149-2.372e-4 0.26164-0.026403 0.383-0.077l2.771-1.148c0.33011-0.13665 0.56225-0.43904 0.60896-0.79325 0.046711-0.35421-0.099097-0.70644-0.3825-0.924-0.2834-0.21756-0.66134-0.2674-0.99146-0.13075l-2.772 1.148c-0.44234 0.1817-0.69413 0.65113-0.60082 1.1201 0.093314 0.46901 0.50562 0.80631 0.98382 0.80486z" />
            <path
                d="m9.292 17.505c0.51031 0.21153 1.0955-0.030689 1.307-0.541s-0.030689-1.0955-0.541-1.307l-2.772-1.148c-0.51031-0.21125-1.0953 0.031189-1.3065 0.5415s0.031189 1.0953 0.5415 1.3065z" />
        </g>
    </g>
</svg>