<?xml version="1.0" encoding="utf-8"?>
<!-- Generator: Adobe Illustrator 24.1.0, SVG Export Plug-In . SVG Version: 6.00 Build 0)  -->
<svg version="1.1" id="Laag_1" xmlns="http://www.w3.org/2000/svg" xmlns:xlink="http://www.w3.org/1999/xlink" x="0px" y="0px"
	 viewBox="0 0 524.4 524.4" style="enable-background:new 0 0 524.4 524.4;" xml:space="preserve">
<style type="text/css">
	.st0{fill:#197DC9;}
</style>
<g>
	<path class="st0" d="M230,386.7h-17.8c-2.7,0-4.5,0.9-6.2,2.7l-8.9,8.9c-1.8,1.8-2.7,3.6-2.7,6.2v17.8c0,2.7,0.9,4.5,2.7,6.2
		l8.9,8.9c1.8,1.8,3.6,2.7,6.2,2.7H230c2.7,0,4.5-0.9,6.2-2.7l8.9-8.9c1.8-1.8,2.7-3.6,2.7-6.2v-17.8c0-1.8-0.9-2.7-0.9-4.5l49-49
		c-7.1,0-16.9,0-24.9,0l-36.5,36.5C232.6,387.6,230.9,386.7,230,386.7z M230,418.8l-4.5,3.6h-10.7l-3.6-3.6v-10.7l3.6-3.6h10.7
		l3.6,3.6v10.7H230z"/>
	<polygon class="st0" points="313.7,333.2 287.9,333.2 270.1,351 295.9,351 	"/>
	<polygon class="st0" points="368.1,278.9 313.7,333.2 287.9,333.2 363.6,257.5 	"/>
	<path d="M344.9,73.1c-0.9-4.5-4.5-7.1-8.9-7.1h-6.2L320,10.7c-0.9-4.5-4.5-7.1-8.9-7.1H130.2c-4.5,0-8,2.7-8.9,7.1l-9.8,55.2h-6.2
		c-4.5,0-8,2.7-8.9,7.1L42.9,340.4c-0.9,2.7,0,5.3,1.8,7.1c1.8,2.7,4.5,3.6,7.1,3.6H58L28.6,482.9c-0.9,2.7,0,5.3,1.8,7.1
		c1.8,2.7,4.5,3.6,7.1,3.6h22.3v17.8c0,5.3,3.6,8.9,8.9,8.9h44.5c5.3,0,8.9-3.6,8.9-8.9v-17.8h196v17.8c0,5.3,3.6,8.9,8.9,8.9h44.5
		c5.3,0,8.9-3.6,8.9-8.9v-17.8h22.3c2.7,0,5.3-0.9,7.1-3.6c1.8-1.8,2.7-4.5,1.8-7.1L383.2,351h6.2c2.7,0,5.3-0.9,7.1-3.6
		c1.8-1.8,2.7-4.5,1.8-7.1 M137.3,21.4H303l8,44.5h-47.2h-89.1h-45.4L137.3,21.4z M247.8,110.5h8.9v17.8h-8.9
		c-5.3,0-8.9,3.6-8.9,8.9c0,5.3,3.6,8.9,8.9,8.9h8.9v17.8h-8.9c-5.3,0-8.9,3.6-8.9,8.9c0,5.3,3.6,8.9,8.9,8.9h8.9v17.8h-8.9
		c-5.3,0-8.9,3.6-8.9,8.9c0,5.3,3.6,8.9,8.9,8.9h8.9v17.8h-8.9c-5.3,0-8.9,3.6-8.9,8.9c0,5.3,3.6,8.9,8.9,8.9h8.9v17.8h-8.9
		c-5.3,0-8.9,3.6-8.9,8.9s3.6,8.9,8.9,8.9h8.9v17.8h-8.9c-5.3,0-8.9,3.6-8.9,8.9s3.6,8.9,8.9,8.9h8.9v8.9h-71.3v-8.9h8.9
		c5.3,0,8.9-3.6,8.9-8.9s-3.6-8.9-8.9-8.9h-8.9v-17.8h8.9c5.3,0,8.9-3.6,8.9-8.9s-3.6-8.9-8.9-8.9h-8.9V253h8.9
		c5.3,0,8.9-3.6,8.9-8.9c0-5.3-3.6-8.9-8.9-8.9h-8.9v-17.8h8.9c5.3,0,8.9-3.6,8.9-8.9c0-5.3-3.6-8.9-8.9-8.9h-8.9v-17.8h8.9
		c5.3,0,8.9-3.6,8.9-8.9c0-5.3-3.6-8.9-8.9-8.9h-8.9v-17.8h8.9c5.3,0,8.9-3.6,8.9-8.9c0-5.3-3.6-8.9-8.9-8.9h-8.9v-17.8h8.9
		c5.3,0,8.9-3.6,8.9-8.9s-3.6-8.9-8.9-8.9h-8.9v-8.9h71.3v8.9h-8.9c-5.3,0-8.9,3.6-8.9,8.9S242.4,110.5,247.8,110.5z M112.4,83.8
		h6.2h49v249.5h-98h-7.1L112.4,83.8z M105.2,502.5H78.5v-8.9h26.7V502.5z M363.6,502.5h-26.7v-8.9h26.7V502.5z M392.1,475.8h-20.5
		h-44.5H113.3H68.7H49.1L75.8,351h99.8h94.4l17.8-17.8h-14.3V83.8h49h6.2l49.9,249.5h-7.1h-58.8L295,351h69.5L392.1,475.8z"/>
	<path class="st0" d="M368.1,278.9l62.4-62.4c0.9,0.9,2.7,0.9,4.5,0.9h17.8c2.7,0,4.5-0.9,6.2-2.7l8.9-8.9c1.8-1.8,2.7-3.6,2.7-6.2
		v-17.8c0-0.9,0-2.7-0.9-3.6l24.9-24.9c3.6-3.6,3.6-8.9,0-12.5c-3.6-3.6-8.9-3.6-12.5,0l-24.9,24.9c-1.8-0.9-2.7-1.8-4.5-1.8h-17.8
		c-2.7,0-4.5,0.9-6.2,2.7l-8.9,8.9c-1.8,1.8-2.7,3.6-2.7,6.2v17.8c0,1.8,0.9,2.7,0.9,4.5l-54.3,54.3L368.1,278.9z M452.7,196
		l-4.5,3.6h-10.7L434,196v-10.7l3.6-3.6h10.7l3.6,3.6V196H452.7z"/>
</g>
</svg>
