<?xml version="1.0" encoding="utf-8"?>
<!-- Generator: Adobe Illustrator 24.1.0, SVG Export Plug-In . SVG Version: 6.00 Build 0)  -->
<svg version="1.1" id="Laag_1" xmlns="http://www.w3.org/2000/svg" xmlns:xlink="http://www.w3.org/1999/xlink" x="0px" y="0px"
	 viewBox="0 0 524.4 524.4" style="enable-background:new 0 0 524.4 524.4;" xml:space="preserve">
<style type="text/css">
	.st0{fill:#197DC9;}
</style>
<g>
	<path d="M432.8,287.9c-4.7,0-8.5,3.8-8.5,8.5v196.3c0,4.7-3.8,8.5-8.5,8.5h-85.3v-128c0-14.1-11.5-25.6-25.6-25.6h-85.3
		c-14.1,0-25.6,11.5-25.6,25.6v128h-85.3c-4.7,0-8.5-3.8-8.5-8.5V296.4c0-4.7-3.8-8.5-8.5-8.5s-8.5,3.8-8.5,8.5v196.3
		c0,14.1,11.5,25.6,25.6,25.6H416c14.1,0,25.6-11.5,25.6-25.6V296.4C441.4,291.7,437.5,287.9,432.8,287.9z M313.4,501.2H211v-128
		c0-4.7,3.8-8.5,8.5-8.5h85.3c4.7,0,8.5,3.8,8.5,8.5L313.4,501.2L313.4,501.2z"/>
	<path class="st0" d="M486.6,226.3L280.3,14C270.2,4,254,4,243.9,14L37.7,226.3c-7.4,7.6-9.5,18.9-5.3,28.7
		c3.9,9.6,13.2,15.8,23.5,15.8h2.9c6.1-0.1,12-2.3,16.6-6.4c0.6-0.4,1.2-0.8,1.7-1.3L262.2,72.4l185.2,190.8c0.5,0.5,1,0.9,1.6,1.3
		c4.6,4,10.4,6.3,16.5,6.3h2.9c10.3,0,19.6-6.2,23.5-15.8C496.1,245.3,494,233.9,486.6,226.3z M476.2,248.4
		c-1.3,3.2-4.4,5.3-7.8,5.3h-2.9c-2.3,0-4.4-0.9-6-2.6c-0.1-0.1-0.2-0.1-0.2-0.1c-0.1-0.1-0.1-0.2-0.2-0.2L268.3,54.2l-0.1-0.1V54
		c-0.4-0.3-0.9-0.6-1.3-0.9c-0.4-0.4-0.9-0.7-1.4-0.9s-1.1-0.3-1.6-0.3c-1-0.4-2.1-0.4-3.2,0c-0.5,0.1-1.1,0.2-1.6,0.3
		c-0.5,0.3-1,0.6-1.4,0.9c-0.5,0.2-0.9,0.5-1.3,0.9l-0.1,0.1l-0.1,0.1l-191,196.6c-0.1,0.1-0.1,0.1-0.2,0.2
		c-0.1,0.1-0.2,0.1-0.2,0.2c-1.6,1.6-3.7,2.6-6,2.6h-2.9c-3.4,0-6.5-2.1-7.8-5.3c-1.5-3.5-0.8-7.5,1.8-10.2l0,0L256.2,25.9
		c1.6-1.6,3.7-2.5,5.9-2.5s4.4,0.9,5.9,2.5l206.3,212.3C477,240.9,477.7,244.9,476.2,248.4z"/>
	<path d="M296.3,304.9c14.1,0,25.6-11.5,25.6-25.6v-59.7c0-14.1-11.5-25.6-25.6-25.6H228c-14.1,0-25.6,11.5-25.6,25.6v59.7
		c0,14.1,11.5,25.6,25.6,25.6H296.3z M219.5,279.3v-59.7c0-4.7,3.8-8.5,8.5-8.5h68.3c4.7,0,8.5,3.8,8.5,8.5v59.7
		c0,4.7-3.8,8.5-8.5,8.5H228C223.3,287.9,219.5,284,219.5,279.3z"/>
	<path d="M236.6,424.4h-8.5c-4.7,0-8.5,3.8-8.5,8.5s3.8,8.5,8.5,8.5h8.5c4.7,0,8.5-3.8,8.5-8.5S241.3,424.4,236.6,424.4z"/>
</g>
</svg>
