<svg id="Icons" height="512" viewBox="0 0 74 74" width="512" xmlns="http://www.w3.org/2000/svg"><path d="m48.139 65.958h-42.688a4.457 4.457 0 0 1 -4.451-4.452v-29.206a4.456 4.456 0 0 1 4.451-4.451h42.688a4.456 4.456 0 0 1 4.451 4.451v29.206a4.456 4.456 0 0 1 -4.451 4.452zm-42.688-36.11a2.454 2.454 0 0 0 -2.451 2.452v29.206a2.455 2.455 0 0 0 2.451 2.452h42.688a2.454 2.454 0 0 0 2.451-2.452v-29.206a2.454 2.454 0 0 0 -2.451-2.451z"/><path d="m55.613 56.646h-4.023a1 1 0 0 1 -1-1v-17.487a1 1 0 0 1 1-1h4.023a1 1 0 0 1 1 1v17.487a1 1 0 0 1 -1 1zm-3.023-2h2.023v-15.487h-2.023z"/><path d="m72 62.425a.984.984 0 0 1 -.333-.057l-16.386-5.779a1 1 0 0 1 -.668-.943v-17.487a1 1 0 0 1 .668-.943l16.386-5.778a1 1 0 0 1 1.333.942v29.045a1 1 0 0 1 -1 1zm-15.387-7.486 14.387 5.073v-26.219l-14.387 5.074z"/><path d="m34.577 29.848a10.9 10.9 0 1 1 10.9-10.9 10.915 10.915 0 0 1 -10.9 10.9zm0-19.806a8.9 8.9 0 1 0 8.9 8.9 8.913 8.913 0 0 0 -8.9-8.9z"/><path d="m15.505 29.848a7.235 7.235 0 1 1 7.235-7.235 7.242 7.242 0 0 1 -7.235 7.235zm0-12.47a5.235 5.235 0 1 0 5.235 5.235 5.24 5.24 0 0 0 -5.235-5.235z"/><path d="m13.125 56.167h-6.833a1 1 0 0 1 0-2h6.833a1 1 0 0 1 0 2z"/><path d="m16.75 60.5h-10.458a1 1 0 0 1 0-2h10.458a1 1 0 0 1 0 2z"/></svg>