<?xml version="1.0" encoding="UTF-8"?>
<svg width="100pt" height="100pt" viewBox="0 0 480 480" xmlns="http://www.w3.org/2000/svg">
    <path
        d="m84.898 415.62 152 64c0.99219 0.41406 2.0469 0.625 3.1016 0.625 1.0586 0 2.1133-0.21094 3.1055-0.625l152-64c2.9688-1.25 4.8945-4.1602 4.8945-7.375v-61.043l75.426-35.727c2.4258-1.1523 4.1133-3.4414 4.4961-6.0938 0.38281-2.6562-0.60156-5.3281-2.6016-7.1133l-72-64-0.046874 0.054687c-0.76953-0.67969-1.6172-1.2695-2.625-1.625l-49.039-17.16c23.848-17.207 51.223-31.141 79.152-39.629l-4.6484-15.312c-33.031 10.039-65.359 27.305-92.598 48.605l-54.625-19.117c3-4.5469 6.0469-9.0664 9.3047-13.441 9.3672-12.566 18.48-22.262 27.719-29.406 1.9609 12.621 10.953 24.055 23.359 28.07 16.168 5.25 35-3.1133 41.977-18.609 2.6172-5.8047 3.3828-11.848 2.2305-17.477-2.0391-9.9688-10.375-18.379-21.254-21.441-4.1211-1.1602-8.5625-1.6094-13.273-1.3047 17.199-14.32 38.52-23.582 60.762-26.297l-1.9375-15.879c-27.848 3.3906-54.449 15.84-74.895 35.047-4.168 3.9141-9.4102 9.3633-13.051 16.25-15.383 8.3047-29.805 21.809-44.469 41.488-4.25 5.7031-8.2891 11.551-12.121 17.527l-22.594-7.9141c-1.7109-0.59766-3.5742-0.59766-5.2852 0l-61.352 21.473c-7.5625-9.9844-15.809-18.75-24.73-26.184-21.75-18.129-47.703-28.359-73.07-28.832-24.883-0.39062-47.016 9.2422-59.145 25.961-7.5508 10.406-10.656 24.422-8.2969 37.488 2.0547 11.383 8.0234 20.871 16.816 26.703l8.8477-13.328c-5.1289-3.3984-8.6484-9.168-9.918-16.215-1.5781-8.7305 0.52734-18.41 5.5039-25.25 9.0547-12.488 26.27-19.766 45.887-19.352 21.742 0.40234 44.168 9.3281 63.129 25.129 6.75 5.6328 13.078 12.168 19.008 19.488l-82.688 28.945c-1.0078 0.35156-1.8594 0.94141-2.625 1.6211l-0.046875-0.054687-72 64c-2 1.7852-2.9844 4.457-2.6016 7.1133 0.375 2.6562 2.0625 4.9492 4.4961 6.0938l75.422 35.703v61.043c0 3.2148 1.9297 6.125 4.8984 7.375zm248.93-276.76c0.10547-0.51172 0.23438-1.0234 0.38672-1.5352 2.5039-1.1289 5.0391-2.0859 7.6055-2.8867 7.0664-2.207 13.152-2.6406 18.082-1.2422 5.0078 1.4102 9.0781 5.2031 9.9023 9.2422 0.46484 2.2812 0.058594 5.0156-1.1523 7.7031-3.6055 8-14.102 12.648-22.453 9.9609-8.3516-2.7188-14.137-12.641-12.371-21.242zm-237.83 215.92 60.578 28.695c1.0859 0.51172 2.2539 0.76953 3.4219 0.76953 1.9375 0 3.8516-0.70703 5.3555-2.0586l66.645-59.984v137.99l-136-57.262zm288 48.152-136 57.262v-137.99l66.648 59.984c1.5039 1.3516 3.418 2.0586 5.3516 2.0586 1.168 0 2.3359-0.25781 3.4258-0.76953l60.574-28.695zm-62.605-36.199-66.48-59.832 143.47-57.395 59.262 52.68zm-151.5-149.47c4.7852 7.2969 9.2383 15.191 13.312 23.727l14.438-6.8945c-3.7734-7.9062-7.8945-15.289-12.262-22.25l54.613-19.117 16.906 5.9102c-7.7031 13.566-14.473 27.664-20.016 42.297l14.961 5.6719c5.5977-14.777 12.527-28.961 20.445-42.586l48.953 17.129c-8.1211 7.3203-15.734 14.93-22.449 22.898l12.242 10.301c8.0391-9.5508 17.367-18.621 27.52-27.133l38.648 13.527-137.21 54.887-137.21-54.879zm-88.281 32.246 143.47 57.395-66.48 59.832-136.25-64.547z" />
    <path
        d="m146.94 28.977c-0.90234-4.168-2.8008-7.3906-5.6328-9.5664-3.8711-2.9766-8.3672-3.1367-11.359-3.0078-16.145 0.71094-31.07 10.59-38.039 25.168l14.441 6.8945c4.3828-9.168 14.148-15.641 24.309-16.09 0.24219-0.007812 0.44922-0.015625 0.625-0.015625 0.023438 0 0.039062 0.007813 0.039062 0.015625 0.99219 4.5469-0.86328 9.707-3.0156 15.691-1.5039 4.1602-3.0469 8.4609-3.8398 13.168-0.26172 1.6055-1.0781 6.5117 2.0977 10.75 2.5352 3.375 6.543 5.1523 11.832 4.8984 5.9414-0.15234 11.473-1.3945 16.824-2.5938 4.168-0.9375 8.168-1.832 12.344-2.082l-6.1602 26.746c-0.52734 2.2891-1.4102 6.1211 0.19922 10.223 2.9766 7.5625 11.648 9.7383 18.688 8 1.3945-0.34375 2.7773-0.81641 4.1445-1.293 1.5117-0.53125 3.0078-1.2266 3.9297-1.0352 1.7031 0.082032 4.1523 4.082 4.75 9.1133 0.16797 1.4141 0.28906 2.8555 0.40234 4.3125 0.54297 6.793 1.168 14.488 6.4141 20.961l12.426-10.09c-2.1211-2.6172-2.4961-7.2461-2.8906-12.16-0.13672-1.6562-0.26953-3.3125-0.46484-4.9258-1.3359-11.121-7.9883-22.609-19.84-23.195-3.9336-0.18359-7.3008 0.96875-10 1.9141-0.62891 0.22266-1.2617 0.44922-1.9023 0.64844l6.6562-28.863c0.42188-1.832 1.3125-5.625-0.59375-9.5234-1.207-2.4961-4.4453-6.7188-12.453-6.9414-6.8672-0.19141-13.082 1.2148-19.145 2.582-3.6094 0.81641-7.0742 1.5938-10.738 1.9609 0.63281-2.2969 1.4883-4.6719 2.3789-7.1523 2.5898-7.2539 5.5508-15.48 3.5742-24.512z" />
    <path
        d="m2.043 120.81 15.727 2.9531c2.3828-12.711 13.586-24.059 27.871-28.227 12.906-3.7656 28.527-2.2383 43.984 4.3125 15.648 6.6328 29.375 17.273 39.695 30.785l12.715-9.7109c-12-15.715-27.969-28.098-46.168-35.809-18.832-7.9766-38.258-9.7383-54.707-4.9375-20.23 5.9062-35.59 21.855-39.117 40.633z" />
    <path d="m216.04 56.637 14.676-6.375 19.316 44.457-14.676 6.375z" />
    <path
        d="m259.41 104.02 14.398 6.9766c6.4805-13.375 14.891-25.68 24.992-36.566l-11.727-10.879c-11.191 12.039-20.496 25.664-27.664 40.469z" />
    <path
        d="m250.54 59.793 15.965-0.94531c-0.75781-12.863 2.793-25.832 10-36.512l-13.254-8.9492c-9.168 13.574-13.688 30.055-12.711 46.406z" />
    <path
        d="m454.55 154.11 2.9023 15.734c7.8164-1.4375 15.57-2.4062 23.047-2.8789l-1-15.969c-8.1094 0.51172-16.504 1.5625-24.949 3.1133z" />
    <path d="m200 0.25h16v16h-16z" />
    <path d="m344 16.25h16v16h-16z" />
    <path d="m448 96.25h16v16h-16z" />
    <path d="m24 16.25h16v16h-16z" />
    <path d="m160 144.25h16v16h-16z" />
    <path d="m72 192.25h16v16h-16z" />
</svg>