<?xml version="1.0" encoding="UTF-8"?>
<svg enable-background="new 0 0 512 512" version="1.1" viewBox="0 0 512 512" xml:space="preserve"
	xmlns="http://www.w3.org/2000/svg">
	<style type="text/css">
		.st0 {
			fill: #1193F5;
		}
	</style>
	<path
		d="m237.7 453.6c-208.7-185.8-194.5-173-197.4-175.8-66.3-63.7-45.9-167.8 25.6-209 3.6-2.1 8.2-0.8 10.2 2.8 2.1 3.6 0.8 8.2-2.8 10.2-65.2 37.6-81.7 132.9-19 188.6l193.4 172c4.7 4.2 11.9 4.2 16.6 0l61.9-55.1c3.1-2.8 7.8-2.5 10.6 0.6s2.5 7.8-0.6 10.6l-61.9 55.1c-10.5 9.2-26.2 9.2-36.6 0z" />
	<path class="st0"
		d="m351.8 374.6c-2.8-3.1-2.5-7.8 0.6-10.6l105.3-93.7c21.8-19.4 35.1-44.4 38.5-72.2 7.6-62.9-37.9-131.6-116-131.6-54.9 0-102.9 38.9-114.1 92.6-2.3 10.8-17.7 10.8-20 0-13.1-62.4-75.9-105-142.2-89.4-4 0.9-8.1-1.5-9-5.6-1-4 1.5-8.1 5.6-9 67.2-15.9 133.4 21.2 155.7 84.2 8-22.5 22-42.6 40.6-57.9 52.7-43.4 132.2-39.4 179.3 11.3 26.1 28.2 39.7 68 35 107.2-3.8 31.5-18.8 59.7-43.4 81.6l-105.3 93.7c-3.1 2.7-7.9 2.5-10.6-0.6z" />
</svg>