<?xml version="1.0" encoding="UTF-8"?>
<svg enable-background="new 0 0 524.4 524.4" version="1.1" viewBox="0 0 524.4 524.4" xml:space="preserve"
	xmlns="http://www.w3.org/2000/svg">
	<style type="text/css">
		.st0 {
			fill: #197DC9;
		}
	</style>

	<path
		d="m432.8 287.9c-4.7 0-8.5 3.8-8.5 8.5v196.3c0 4.7-3.8 8.5-8.5 8.5h-85.3v-128c0-14.1-11.5-25.6-25.6-25.6h-85.3c-14.1 0-25.6 11.5-25.6 25.6v128h-85.3c-4.7 0-8.5-3.8-8.5-8.5v-196.3c0-4.7-3.8-8.5-8.5-8.5s-8.5 3.8-8.5 8.5v196.3c0 14.1 11.5 25.6 25.6 25.6h307.2c14.1 0 25.6-11.5 25.6-25.6v-196.3c-0.2-4.7-4.1-8.5-8.8-8.5zm-119.4 213.3h-102.4v-128c0-4.7 3.8-8.5 8.5-8.5h85.3c4.7 0 8.5 3.8 8.5 8.5l0.1 128z" />
	<path class="st0"
		d="m486.6 226.3-206.3-212.3c-10.1-10-26.3-10-36.4 0l-206.2 212.3c-7.4 7.6-9.5 18.9-5.3 28.7 3.9 9.6 13.2 15.8 23.5 15.8h2.9c6.1-0.1 12-2.3 16.6-6.4 0.6-0.4 1.2-0.8 1.7-1.3l185.1-190.7 185.2 190.8c0.5 0.5 1 0.9 1.6 1.3 4.6 4 10.4 6.3 16.5 6.3h2.9c10.3 0 19.6-6.2 23.5-15.8 4.2-9.7 2.1-21.1-5.3-28.7zm-10.4 22.1c-1.3 3.2-4.4 5.3-7.8 5.3h-2.9c-2.3 0-4.4-0.9-6-2.6-0.1-0.1-0.2-0.1-0.2-0.1-0.1-0.1-0.1-0.2-0.2-0.2l-190.8-196.6-0.1-0.1v-0.1c-0.4-0.3-0.9-0.6-1.3-0.9-0.4-0.4-0.9-0.7-1.4-0.9s-1.1-0.3-1.6-0.3c-1-0.4-2.1-0.4-3.2 0-0.5 0.1-1.1 0.2-1.6 0.3-0.5 0.3-1 0.6-1.4 0.9-0.5 0.2-0.9 0.5-1.3 0.9l-0.2 0.2-191 196.6-0.2 0.2c-0.1 0.1-0.2 0.1-0.2 0.2-1.6 1.6-3.7 2.6-6 2.6h-2.9c-3.4 0-6.5-2.1-7.8-5.3-1.5-3.5-0.8-7.5 1.8-10.2l206.3-212.4c1.6-1.6 3.7-2.5 5.9-2.5s4.4 0.9 5.9 2.5l206.3 212.3c2.7 2.7 3.4 6.7 1.9 10.2z" />
	<path
		d="m296.3 304.9c14.1 0 25.6-11.5 25.6-25.6v-59.7c0-14.1-11.5-25.6-25.6-25.6h-68.3c-14.1 0-25.6 11.5-25.6 25.6v59.7c0 14.1 11.5 25.6 25.6 25.6h68.3zm-76.8-25.6v-59.7c0-4.7 3.8-8.5 8.5-8.5h68.3c4.7 0 8.5 3.8 8.5 8.5v59.7c0 4.7-3.8 8.5-8.5 8.5h-68.3c-4.7 0.1-8.5-3.8-8.5-8.5z" />
	<path d="m236.6 424.4h-8.5c-4.7 0-8.5 3.8-8.5 8.5s3.8 8.5 8.5 8.5h8.5c4.7 0 8.5-3.8 8.5-8.5s-3.8-8.5-8.5-8.5z" />
</svg>