<?xml version="1.0" encoding="UTF-8"?>
<svg enable-background="new 0 0 524.4 524.4" version="1.1" viewBox="0 0 524.4 524.4" xml:space="preserve"
	xmlns="http://www.w3.org/2000/svg">
	<style type="text/css">
		.st0 {
			fill: #197DC9;
		}
	</style>
	<path class="st0"
		d="m230 386.7h-17.8c-2.7 0-4.5 0.9-6.2 2.7l-8.9 8.9c-1.8 1.8-2.7 3.6-2.7 6.2v17.8c0 2.7 0.9 4.5 2.7 6.2l8.9 8.9c1.8 1.8 3.6 2.7 6.2 2.7h17.8c2.7 0 4.5-0.9 6.2-2.7l8.9-8.9c1.8-1.8 2.7-3.6 2.7-6.2v-17.8c0-1.8-0.9-2.7-0.9-4.5l49-49h-24.9l-36.5 36.5c-1.9 0.1-3.6-0.8-4.5-0.8zm0 32.1-4.5 3.6h-10.7l-3.6-3.6v-10.7l3.6-3.6h10.7l3.6 3.6v10.7h0.9z" />
	<polygon class="st0" points="313.7 333.2 287.9 333.2 270.1 351 295.9 351" />
	<polygon class="st0" points="368.1 278.9 313.7 333.2 287.9 333.2 363.6 257.5" />
	<path
		d="m344.9 73.1c-0.9-4.5-4.5-7.1-8.9-7.1h-6.2l-9.8-55.3c-0.9-4.5-4.5-7.1-8.9-7.1h-180.9c-4.5 0-8 2.7-8.9 7.1l-9.8 55.2h-6.2c-4.5 0-8 2.7-8.9 7.1l-53.5 267.4c-0.9 2.7 0 5.3 1.8 7.1 1.8 2.7 4.5 3.6 7.1 3.6h6.2l-29.4 131.8c-0.9 2.7 0 5.3 1.8 7.1 1.8 2.7 4.5 3.6 7.1 3.6h22.3v17.8c0 5.3 3.6 8.9 8.9 8.9h44.5c5.3 0 8.9-3.6 8.9-8.9v-17.8h196v17.8c0 5.3 3.6 8.9 8.9 8.9h44.5c5.3 0 8.9-3.6 8.9-8.9v-17.8h22.3c2.7 0 5.3-0.9 7.1-3.6 1.8-1.8 2.7-4.5 1.8-7.1l-28.4-131.9h6.2c2.7 0 5.3-0.9 7.1-3.6 1.8-1.8 2.7-4.5 1.8-7.1m-261-318.9h165.7l8 44.5h-181.7l8-44.5zm110.5 89.1h8.9v17.8h-8.9c-5.3 0-8.9 3.6-8.9 8.9s3.6 8.9 8.9 8.9h8.9v17.8h-8.9c-5.3 0-8.9 3.6-8.9 8.9s3.6 8.9 8.9 8.9h8.9v17.8h-8.9c-5.3 0-8.9 3.6-8.9 8.9s3.6 8.9 8.9 8.9h8.9v17.8h-8.9c-5.3 0-8.9 3.6-8.9 8.9s3.6 8.9 8.9 8.9h8.9v17.8h-8.9c-5.3 0-8.9 3.6-8.9 8.9s3.6 8.9 8.9 8.9h8.9v17.8h-8.9c-5.3 0-8.9 3.6-8.9 8.9s3.6 8.9 8.9 8.9h8.9v8.9h-71.3v-8.9h8.9c5.3 0 8.9-3.6 8.9-8.9s-3.6-8.9-8.9-8.9h-8.9v-17.8h8.9c5.3 0 8.9-3.6 8.9-8.9s-3.6-8.9-8.9-8.9h-8.9v-17.7h8.9c5.3 0 8.9-3.6 8.9-8.9s-3.6-8.9-8.9-8.9h-8.9v-17.8h8.9c5.3 0 8.9-3.6 8.9-8.9s-3.6-8.9-8.9-8.9h-8.9v-17.8h8.9c5.3 0 8.9-3.6 8.9-8.9s-3.6-8.9-8.9-8.9h-8.9v-17.8h8.9c5.3 0 8.9-3.6 8.9-8.9s-3.6-8.9-8.9-8.9h-8.9v-17.8h8.9c5.3 0 8.9-3.6 8.9-8.9s-3.6-8.9-8.9-8.9h-8.9v-8.9h71.3v8.9h-8.9c-5.3 0-8.9 3.6-8.9 8.9s3.5 8.8 8.9 8.8zm-135.4-26.7h55.2v249.5h-105.1l49.9-249.5zm-7.2 418.7h-26.7v-8.9h26.7v8.9zm258.4 0h-26.7v-8.9h26.7v8.9zm28.5-26.7h-343l26.7-124.8h194.2l17.8-17.8h-14.3v-249.4h55.2l49.9 249.5h-65.9l-17.7 17.7h69.5l27.6 124.8z" />
	<path class="st0"
		d="m368.1 278.9 62.4-62.4c0.9 0.9 2.7 0.9 4.5 0.9h17.8c2.7 0 4.5-0.9 6.2-2.7l8.9-8.9c1.8-1.8 2.7-3.6 2.7-6.2v-17.8c0-0.9 0-2.7-0.9-3.6l24.9-24.9c3.6-3.6 3.6-8.9 0-12.5s-8.9-3.6-12.5 0l-24.9 24.9c-1.8-0.9-2.7-1.8-4.5-1.8h-17.8c-2.7 0-4.5 0.9-6.2 2.7l-8.9 8.9c-1.8 1.8-2.7 3.6-2.7 6.2v17.8c0 1.8 0.9 2.7 0.9 4.5l-54.3 54.3 4.4 20.6zm84.6-82.9-4.5 3.6h-10.7l-3.5-3.6v-10.7l3.6-3.6h10.7l3.6 3.6v10.7h0.8z" />
</svg>