<?xml version="1.0" encoding="utf-8"?>
<svg version="1.1" xmlns="http://www.w3.org/2000/svg" xmlns:xlink="http://www.w3.org/1999/xlink" x="0px" y="0px"
	 viewBox="0 0 289.9 114.8" style="enable-background:new 0 0 289.9 114.8;" xml:space="preserve">
<style type="text/css">
	.st0{fill:#408AC9;}
	.st1{fill:#FFFFFF;}
	.st2{fill:#020203;}
	.st3{fill:#9C9B9B;}
	.st4{fill:#343434;}
	.st5{fill:none;}
</style>
<g>
	<g>
		<path class="st0" d="M13.6,96.9v6.9c0,0.8-0.2,1.5-0.5,2.1c-0.3,0.6-0.8,1-1.5,1.4c-0.6,0.3-1.4,0.5-2.3,0.5
			c-1.3,0-2.4-0.4-3.1-1.1s-1.1-1.7-1.1-2.9v-6.9h1.8v6.8c0,0.9,0.2,1.5,0.6,2s1,0.6,1.9,0.6c1.7,0,2.5-0.9,2.5-2.6v-6.8H13.6z"/>
		<path class="st0" d="M17.8,103.4l1-1.2l2.4-2.6h2l-3.3,3.5l3.5,4.6h-2l-2.6-3.6l-0.9,0.8v2.8h-1.7V96.2h1.7v5.6L17.8,103.4
			L17.8,103.4z"/>
		<path class="st0" d="M28.2,107.8c-1.3,0-2.2-0.4-3-1.1c-0.7-0.7-1.1-1.7-1.1-3c0-1.3,0.3-2.4,1-3.1s1.6-1.1,2.7-1.1
			c1.1,0,1.9,0.3,2.5,1c0.6,0.7,0.9,1.5,0.9,2.7v0.9H26c0,0.8,0.2,1.4,0.6,1.8c0.4,0.4,1,0.6,1.7,0.6c0.5,0,0.9,0,1.3-0.1
			c0.4-0.1,0.9-0.2,1.3-0.5v1.4c-0.4,0.2-0.8,0.3-1.3,0.4C29.3,107.7,28.8,107.8,28.2,107.8z M27.9,100.7c-0.5,0-1,0.2-1.3,0.5
			c-0.3,0.3-0.5,0.9-0.6,1.5h3.7c0-0.7-0.2-1.2-0.5-1.5C28.9,100.9,28.5,100.7,27.9,100.7z"/>
		<path class="st0" d="M35.1,107.6h-1.7V96.2h1.7V107.6z"/>
		<path class="st0" d="M41.1,107.8c-1.3,0-2.2-0.4-3-1.1c-0.7-0.7-1.1-1.7-1.1-3c0-1.3,0.3-2.4,1-3.1s1.6-1.1,2.7-1.1
			c1.1,0,1.9,0.3,2.5,1c0.6,0.7,0.9,1.5,0.9,2.7v0.9h-5.4c0,0.8,0.2,1.4,0.6,1.8c0.4,0.4,1,0.6,1.7,0.6c0.5,0,0.9,0,1.3-0.1
			c0.4-0.1,0.9-0.2,1.3-0.5v1.4c-0.4,0.2-0.8,0.3-1.3,0.4C42.1,107.7,41.6,107.8,41.1,107.8z M40.8,100.7c-0.5,0-1,0.2-1.3,0.5
			c-0.3,0.3-0.5,0.9-0.6,1.5h3.7c0-0.7-0.2-1.2-0.5-1.5C41.7,100.9,41.3,100.7,40.8,100.7z"/>
		<path class="st0" d="M47.9,107.6h-1.7V96.2h1.7V107.6z"/>
		<path class="st0" d="M53.9,107.8c-1.3,0-2.2-0.4-3-1.1c-0.7-0.7-1.1-1.7-1.1-3c0-1.3,0.3-2.4,1-3.1s1.6-1.1,2.7-1.1
			c1.1,0,1.9,0.3,2.5,1c0.6,0.7,0.9,1.5,0.9,2.7v0.9h-5.4c0,0.8,0.2,1.4,0.6,1.8c0.4,0.4,1,0.6,1.7,0.6c0.5,0,0.9,0,1.3-0.1
			c0.4-0.1,0.9-0.2,1.3-0.5v1.4c-0.4,0.2-0.8,0.3-1.3,0.4C54.9,107.7,54.4,107.8,53.9,107.8z M53.6,100.7c-0.5,0-1,0.2-1.3,0.5
			c-0.3,0.3-0.5,0.9-0.6,1.5h3.7c0-0.7-0.2-1.2-0.5-1.5C54.6,100.9,54.1,100.7,53.6,100.7z"/>
		<path class="st0" d="M60.7,107.6H59V96.2h1.7V107.6z"/>
		<path class="st0" d="M66.7,107.8c-1.3,0-2.2-0.4-3-1.1c-0.7-0.7-1.1-1.7-1.1-3c0-1.3,0.3-2.4,1-3.1s1.6-1.1,2.7-1.1
			c1.1,0,1.9,0.3,2.5,1c0.6,0.7,0.9,1.5,0.9,2.7v0.9h-5.4c0,0.8,0.2,1.4,0.6,1.8c0.4,0.4,1,0.6,1.7,0.6c0.5,0,0.9,0,1.3-0.1
			c0.4-0.1,0.9-0.2,1.3-0.5v1.4c-0.4,0.2-0.8,0.3-1.3,0.4C67.8,107.7,67.3,107.8,66.7,107.8z M66.4,100.7c-0.5,0-1,0.2-1.3,0.5
			c-0.3,0.3-0.5,0.9-0.6,1.5h3.7c0-0.7-0.2-1.2-0.5-1.5C67.4,100.9,67,100.7,66.4,100.7z"/>
		<path class="st0" d="M77.3,105.3c0,0.8-0.3,1.4-0.9,1.8c-0.6,0.4-1.4,0.6-2.5,0.6c-1.1,0-1.9-0.2-2.6-0.5v-1.5
			c1,0.4,1.8,0.7,2.7,0.7c1.1,0,1.6-0.3,1.6-1c0-0.2-0.1-0.4-0.2-0.5c-0.1-0.1-0.3-0.3-0.6-0.4s-0.6-0.3-1.1-0.5
			c-0.9-0.4-1.6-0.7-1.9-1.1c-0.3-0.4-0.5-0.8-0.5-1.4c0-0.7,0.3-1.2,0.8-1.6c0.6-0.4,1.3-0.6,2.3-0.6c1,0,1.9,0.2,2.7,0.6l-0.6,1.3
			c-0.9-0.4-1.6-0.5-2.2-0.5c-0.9,0-1.4,0.3-1.4,0.8c0,0.3,0.1,0.5,0.4,0.6c0.2,0.2,0.8,0.4,1.5,0.7c0.7,0.3,1.2,0.5,1.5,0.7
			s0.5,0.5,0.7,0.7C77.2,104.6,77.3,104.9,77.3,105.3z"/>
		<path class="st0" d="M80.9,106.1c-0.2,0.9-0.7,2.1-1.3,3.5h-1.3c0.3-1.3,0.6-2.5,0.8-3.7h1.7L80.9,106.1z"/>
		<path class="st0" d="M93.9,99.5v0.9l-1.4,0.3c0.1,0.2,0.2,0.4,0.3,0.6s0.1,0.5,0.1,0.8c0,0.8-0.3,1.5-0.9,2s-1.4,0.7-2.4,0.7
			c-0.3,0-0.5,0-0.7-0.1c-0.4,0.2-0.6,0.5-0.6,0.8c0,0.2,0.1,0.3,0.3,0.4s0.5,0.1,1,0.1h1.4c0.9,0,1.6,0.2,2,0.6s0.7,0.9,0.7,1.6
			c0,0.9-0.4,1.6-1.1,2.1s-1.9,0.7-3.3,0.7c-1.1,0-1.9-0.2-2.5-0.6S86,109.7,86,109c0-0.5,0.2-0.9,0.5-1.3c0.3-0.3,0.8-0.6,1.3-0.7
			c-0.2-0.1-0.4-0.3-0.6-0.5c-0.1-0.2-0.2-0.4-0.2-0.7c0-0.3,0.1-0.6,0.3-0.8s0.4-0.4,0.8-0.6c-0.4-0.2-0.8-0.5-1-0.9
			c-0.3-0.4-0.4-0.9-0.4-1.4c0-0.9,0.3-1.6,0.8-2c0.6-0.5,1.3-0.7,2.4-0.7c0.2,0,0.5,0,0.7,0c0.3,0,0.4,0.1,0.6,0.1H93.9z
			 M87.5,108.9c0,0.4,0.2,0.7,0.5,0.9c0.3,0.2,0.8,0.3,1.4,0.3c0.9,0,1.6-0.1,2.1-0.4s0.7-0.6,0.7-1.1c0-0.4-0.1-0.6-0.4-0.8
			c-0.3-0.1-0.7-0.2-1.4-0.2h-1.3c-0.5,0-0.9,0.1-1.2,0.3C87.7,108.2,87.5,108.5,87.5,108.9z M88.2,102.2c0,0.5,0.1,0.9,0.4,1.2
			s0.6,0.4,1.1,0.4c1,0,1.5-0.5,1.5-1.6c0-0.5-0.1-0.9-0.4-1.2c-0.2-0.3-0.6-0.4-1.1-0.4c-0.5,0-0.9,0.1-1.1,0.4
			C88.4,101.2,88.2,101.6,88.2,102.2z"/>
		<path class="st0" d="M95.3,97.4c0-0.3,0.1-0.5,0.3-0.7c0.2-0.2,0.4-0.2,0.7-0.2c0.3,0,0.5,0.1,0.7,0.2c0.2,0.2,0.3,0.4,0.3,0.7
			c0,0.3-0.1,0.5-0.3,0.7c-0.2,0.2-0.4,0.3-0.7,0.3c-0.3,0-0.6-0.1-0.7-0.3C95.4,97.9,95.3,97.7,95.3,97.4z M97.1,107.6h-1.7v-8.1
			h1.7V107.6z"/>
		<path class="st0" d="M102.6,106.4c0.4,0,0.8-0.1,1.3-0.2v1.3c-0.2,0.1-0.4,0.2-0.7,0.2c-0.3,0.1-0.6,0.1-0.9,0.1
			c-1.6,0-2.4-0.9-2.4-2.6v-4.4h-1.1v-0.8l1.2-0.6l0.6-1.7h1.1v1.8h2.3v1.3h-2.3v4.3c0,0.4,0.1,0.7,0.3,0.9
			C102,106.3,102.2,106.4,102.6,106.4z"/>
		<path class="st0" d="M110.5,107.6l-0.3-1.1h-0.1c-0.4,0.5-0.8,0.8-1.2,1c-0.4,0.2-0.9,0.3-1.5,0.3c-0.8,0-1.4-0.2-1.9-0.6
			c-0.4-0.4-0.7-1-0.7-1.8c0-0.8,0.3-1.5,0.9-1.9c0.6-0.4,1.6-0.7,2.8-0.7l1.4,0v-0.4c0-0.5-0.1-0.9-0.4-1.2
			c-0.2-0.3-0.6-0.4-1.1-0.4c-0.4,0-0.8,0.1-1.2,0.2c-0.4,0.1-0.7,0.3-1.1,0.4l-0.6-1.2c0.4-0.2,0.9-0.4,1.4-0.5
			c0.5-0.1,1-0.2,1.5-0.2c1,0,1.8,0.2,2.3,0.7c0.5,0.4,0.8,1.2,0.8,2.1v5.5H110.5z M108,106.5c0.6,0,1.1-0.2,1.5-0.5
			c0.4-0.3,0.6-0.8,0.6-1.5v-0.7l-1,0c-0.8,0-1.4,0.2-1.8,0.4c-0.4,0.2-0.6,0.6-0.6,1.1c0,0.4,0.1,0.6,0.3,0.8
			C107.2,106.4,107.5,106.5,108,106.5z"/>
		<path class="st0" d="M119.2,107.6l-0.3-1.1h-0.1c-0.4,0.5-0.8,0.8-1.2,1c-0.4,0.2-0.9,0.3-1.5,0.3c-0.8,0-1.4-0.2-1.9-0.6
			c-0.4-0.4-0.7-1-0.7-1.8c0-0.8,0.3-1.5,0.9-1.9c0.6-0.4,1.6-0.7,2.8-0.7l1.4,0v-0.4c0-0.5-0.1-0.9-0.4-1.2
			c-0.2-0.3-0.6-0.4-1.1-0.4c-0.4,0-0.8,0.1-1.2,0.2c-0.4,0.1-0.7,0.3-1.1,0.4l-0.6-1.2c0.4-0.2,0.9-0.4,1.4-0.5
			c0.5-0.1,1-0.2,1.5-0.2c1,0,1.8,0.2,2.3,0.7c0.5,0.4,0.8,1.2,0.8,2.1v5.5H119.2z M116.7,106.5c0.6,0,1.1-0.2,1.5-0.5
			c0.4-0.3,0.6-0.8,0.6-1.5v-0.7l-1,0c-0.8,0-1.4,0.2-1.8,0.4c-0.4,0.2-0.6,0.6-0.6,1.1c0,0.4,0.1,0.6,0.3,0.8
			C115.9,106.4,116.2,106.5,116.7,106.5z"/>
		<path class="st0" d="M127,99.4c0.3,0,0.6,0,0.9,0.1l-0.2,1.6c-0.2-0.1-0.5-0.1-0.8-0.1c-0.7,0-1.2,0.2-1.7,0.7
			c-0.4,0.5-0.6,1-0.6,1.8v4.2h-1.7v-8.1h1.3l0.2,1.4h0.1c0.3-0.5,0.6-0.9,1.1-1.2C126,99.5,126.5,99.4,127,99.4z"/>
		<path class="st0" d="M131,107.6h-1.7V96.2h1.7V107.6z"/>
		<path class="st0" d="M137,107.8c-1.3,0-2.2-0.4-3-1.1c-0.7-0.7-1.1-1.7-1.1-3c0-1.3,0.3-2.4,1-3.1s1.6-1.1,2.7-1.1
			c1.1,0,1.9,0.3,2.5,1c0.6,0.7,0.9,1.5,0.9,2.7v0.9h-5.4c0,0.8,0.2,1.4,0.6,1.8c0.4,0.4,1,0.6,1.7,0.6c0.5,0,0.9,0,1.3-0.1
			c0.4-0.1,0.9-0.2,1.3-0.5v1.4c-0.4,0.2-0.8,0.3-1.3,0.4C138.1,107.7,137.6,107.8,137,107.8z M136.7,100.7c-0.5,0-1,0.2-1.3,0.5
			c-0.3,0.3-0.5,0.9-0.6,1.5h3.7c0-0.7-0.2-1.2-0.5-1.5C137.7,100.9,137.3,100.7,136.7,100.7z"/>
		<path class="st0" d="M147.6,105.3c0,0.8-0.3,1.4-0.9,1.8c-0.6,0.4-1.4,0.6-2.5,0.6c-1.1,0-1.9-0.2-2.6-0.5v-1.5
			c1,0.4,1.8,0.7,2.7,0.7c1.1,0,1.6-0.3,1.6-1c0-0.2-0.1-0.4-0.2-0.5c-0.1-0.1-0.3-0.3-0.6-0.4s-0.6-0.3-1.1-0.5
			c-0.9-0.4-1.6-0.7-1.9-1.1c-0.3-0.4-0.5-0.8-0.5-1.4c0-0.7,0.3-1.2,0.8-1.6c0.6-0.4,1.3-0.6,2.3-0.6c1,0,1.9,0.2,2.7,0.6l-0.6,1.3
			c-0.9-0.4-1.6-0.5-2.2-0.5c-0.9,0-1.4,0.3-1.4,0.8c0,0.3,0.1,0.5,0.4,0.6c0.2,0.2,0.8,0.4,1.5,0.7c0.7,0.3,1.2,0.5,1.5,0.7
			s0.5,0.5,0.7,0.7C147.5,104.6,147.6,104.9,147.6,105.3z"/>
		<path class="st0" d="M156.9,107.8c-1.3,0-2.2-0.4-3-1.1c-0.7-0.7-1.1-1.7-1.1-3c0-1.3,0.3-2.4,1-3.1s1.6-1.1,2.7-1.1
			c1.1,0,1.9,0.3,2.5,1c0.6,0.7,0.9,1.5,0.9,2.7v0.9h-5.4c0,0.8,0.2,1.4,0.6,1.8c0.4,0.4,1,0.6,1.7,0.6c0.5,0,0.9,0,1.3-0.1
			c0.4-0.1,0.9-0.2,1.3-0.5v1.4c-0.4,0.2-0.8,0.3-1.3,0.4C157.9,107.7,157.4,107.8,156.9,107.8z M156.6,100.7c-0.5,0-1,0.2-1.3,0.5
			c-0.3,0.3-0.5,0.9-0.6,1.5h3.7c0-0.7-0.2-1.2-0.5-1.5C157.5,100.9,157.1,100.7,156.6,100.7z"/>
		<path class="st0" d="M169.1,107.6h-1.7v-5c0-0.6-0.1-1.1-0.4-1.4c-0.3-0.3-0.7-0.5-1.2-0.5c-0.7,0-1.3,0.2-1.6,0.6
			s-0.5,1.1-0.5,2.2v4H162v-8.1h1.3l0.2,1.1h0.1c0.2-0.4,0.6-0.7,1-0.9s0.9-0.3,1.5-0.3c1.9,0,2.9,1,2.9,3V107.6z"/>
		<path class="st0" d="M182.2,99.5v0.9l-1.4,0.3c0.1,0.2,0.2,0.4,0.3,0.6s0.1,0.5,0.1,0.8c0,0.8-0.3,1.5-0.9,2s-1.4,0.7-2.4,0.7
			c-0.3,0-0.5,0-0.7-0.1c-0.4,0.2-0.6,0.5-0.6,0.8c0,0.2,0.1,0.3,0.3,0.4s0.5,0.1,1,0.1h1.4c0.9,0,1.6,0.2,2,0.6s0.7,0.9,0.7,1.6
			c0,0.9-0.4,1.6-1.1,2.1s-1.9,0.7-3.3,0.7c-1.1,0-1.9-0.2-2.5-0.6s-0.9-0.9-0.9-1.7c0-0.5,0.2-0.9,0.5-1.3c0.3-0.3,0.8-0.6,1.3-0.7
			c-0.2-0.1-0.4-0.3-0.6-0.5c-0.1-0.2-0.2-0.4-0.2-0.7c0-0.3,0.1-0.6,0.3-0.8s0.4-0.4,0.8-0.6c-0.4-0.2-0.8-0.5-1-0.9
			c-0.3-0.4-0.4-0.9-0.4-1.4c0-0.9,0.3-1.6,0.8-2c0.6-0.5,1.3-0.7,2.4-0.7c0.2,0,0.5,0,0.7,0c0.3,0,0.4,0.1,0.6,0.1H182.2z
			 M175.9,108.9c0,0.4,0.2,0.7,0.5,0.9c0.3,0.2,0.8,0.3,1.4,0.3c0.9,0,1.6-0.1,2.1-0.4s0.7-0.6,0.7-1.1c0-0.4-0.1-0.6-0.4-0.8
			c-0.3-0.1-0.7-0.2-1.4-0.2h-1.3c-0.5,0-0.9,0.1-1.2,0.3C176,108.2,175.9,108.5,175.9,108.9z M176.6,102.2c0,0.5,0.1,0.9,0.4,1.2
			s0.6,0.4,1.1,0.4c1,0,1.5-0.5,1.5-1.6c0-0.5-0.1-0.9-0.4-1.2c-0.2-0.3-0.6-0.4-1.1-0.4c-0.5,0-0.9,0.1-1.1,0.4
			C176.7,101.2,176.6,101.6,176.6,102.2z"/>
		<path class="st0" d="M183.6,97.4c0-0.3,0.1-0.5,0.3-0.7c0.2-0.2,0.4-0.2,0.7-0.2c0.3,0,0.5,0.1,0.7,0.2c0.2,0.2,0.3,0.4,0.3,0.7
			c0,0.3-0.1,0.5-0.3,0.7c-0.2,0.2-0.4,0.3-0.7,0.3c-0.3,0-0.6-0.1-0.7-0.3C183.7,97.9,183.6,97.7,183.6,97.4z M185.5,107.6h-1.7
			v-8.1h1.7V107.6z"/>
		<path class="st0" d="M190.9,106.4c0.4,0,0.8-0.1,1.3-0.2v1.3c-0.2,0.1-0.4,0.2-0.7,0.2c-0.3,0.1-0.6,0.1-0.9,0.1
			c-1.6,0-2.4-0.9-2.4-2.6v-4.4H187v-0.8l1.2-0.6l0.6-1.7h1.1v1.8h2.3v1.3h-2.3v4.3c0,0.4,0.1,0.7,0.3,0.9
			C190.3,106.3,190.6,106.4,190.9,106.4z"/>
		<path class="st0" d="M198.9,107.6l-0.3-1.1h-0.1c-0.4,0.5-0.8,0.8-1.2,1c-0.4,0.2-0.9,0.3-1.5,0.3c-0.8,0-1.4-0.2-1.9-0.6
			c-0.4-0.4-0.7-1-0.7-1.8c0-0.8,0.3-1.5,0.9-1.9c0.6-0.4,1.6-0.7,2.8-0.7l1.4,0v-0.4c0-0.5-0.1-0.9-0.4-1.2
			c-0.2-0.3-0.6-0.4-1.1-0.4c-0.4,0-0.8,0.1-1.2,0.2c-0.4,0.1-0.7,0.3-1.1,0.4l-0.6-1.2c0.4-0.2,0.9-0.4,1.4-0.5
			c0.5-0.1,1-0.2,1.5-0.2c1,0,1.8,0.2,2.3,0.7c0.5,0.4,0.8,1.2,0.8,2.1v5.5H198.9z M196.3,106.5c0.6,0,1.1-0.2,1.5-0.5
			c0.4-0.3,0.6-0.8,0.6-1.5v-0.7l-1,0c-0.8,0-1.4,0.2-1.8,0.4c-0.4,0.2-0.6,0.6-0.6,1.1c0,0.4,0.1,0.6,0.3,0.8
			C195.6,106.4,195.9,106.5,196.3,106.5z"/>
		<path class="st0" d="M207.6,107.6l-0.3-1.1h-0.1c-0.4,0.5-0.8,0.8-1.2,1c-0.4,0.2-0.9,0.3-1.5,0.3c-0.8,0-1.4-0.2-1.9-0.6
			c-0.4-0.4-0.7-1-0.7-1.8c0-0.8,0.3-1.5,0.9-1.9c0.6-0.4,1.6-0.7,2.8-0.7l1.4,0v-0.4c0-0.5-0.1-0.9-0.4-1.2
			c-0.2-0.3-0.6-0.4-1.1-0.4c-0.4,0-0.8,0.1-1.2,0.2c-0.4,0.1-0.7,0.3-1.1,0.4l-0.6-1.2c0.4-0.2,0.9-0.4,1.4-0.5
			c0.5-0.1,1-0.2,1.5-0.2c1,0,1.8,0.2,2.3,0.7c0.5,0.4,0.8,1.2,0.8,2.1v5.5H207.6z M205,106.5c0.6,0,1.1-0.2,1.5-0.5
			c0.4-0.3,0.6-0.8,0.6-1.5v-0.7l-1,0c-0.8,0-1.4,0.2-1.8,0.4c-0.4,0.2-0.6,0.6-0.6,1.1c0,0.4,0.1,0.6,0.3,0.8
			C204.3,106.4,204.6,106.5,205,106.5z"/>
		<path class="st0" d="M215.3,99.4c0.3,0,0.6,0,0.9,0.1l-0.2,1.6c-0.2-0.1-0.5-0.1-0.8-0.1c-0.7,0-1.2,0.2-1.7,0.7
			c-0.4,0.5-0.6,1-0.6,1.8v4.2h-1.7v-8.1h1.3l0.2,1.4h0.1c0.3-0.5,0.6-0.9,1.1-1.2C214.4,99.5,214.8,99.4,215.3,99.4z"/>
		<path class="st0" d="M225.7,99.4c0.3,0,0.6,0,0.9,0.1l-0.2,1.6c-0.2-0.1-0.5-0.1-0.8-0.1c-0.7,0-1.2,0.2-1.7,0.7
			c-0.4,0.5-0.6,1-0.6,1.8v4.2h-1.7v-8.1h1.3l0.2,1.4h0.1c0.3-0.5,0.6-0.9,1.1-1.2C224.7,99.5,225.2,99.4,225.7,99.4z"/>
		<path class="st0" d="M231.6,107.8c-1.3,0-2.2-0.4-3-1.1c-0.7-0.7-1.1-1.7-1.1-3c0-1.3,0.3-2.4,1-3.1s1.6-1.1,2.7-1.1
			c1.1,0,1.9,0.3,2.5,1c0.6,0.7,0.9,1.5,0.9,2.7v0.9h-5.4c0,0.8,0.2,1.4,0.6,1.8c0.4,0.4,1,0.6,1.7,0.6c0.5,0,0.9,0,1.3-0.1
			c0.4-0.1,0.9-0.2,1.3-0.5v1.4c-0.4,0.2-0.8,0.3-1.3,0.4C232.6,107.7,232.1,107.8,231.6,107.8z M231.3,100.7c-0.5,0-1,0.2-1.3,0.5
			c-0.3,0.3-0.5,0.9-0.6,1.5h3.7c0-0.7-0.2-1.2-0.5-1.5C232.3,100.9,231.8,100.7,231.3,100.7z"/>
		<path class="st0" d="M240.8,107.8c-1,0-1.8-0.4-2.4-1.1h-0.1c0.1,0.7,0.1,1.1,0.1,1.2v3.3h-1.7V99.5h1.4c0,0.2,0.1,0.5,0.2,1.1
			h0.1c0.5-0.8,1.3-1.2,2.4-1.2c1,0,1.8,0.4,2.4,1.1c0.6,0.7,0.8,1.8,0.8,3.1s-0.3,2.4-0.9,3.1S241.8,107.8,240.8,107.8z
			 M240.4,100.8c-0.7,0-1.2,0.2-1.5,0.6c-0.3,0.4-0.5,1-0.5,1.9v0.3c0,1,0.2,1.7,0.5,2.1c0.3,0.4,0.8,0.7,1.5,0.7
			c0.6,0,1.1-0.2,1.4-0.7s0.5-1.2,0.5-2.1c0-0.9-0.2-1.6-0.5-2.1C241.5,101,241,100.8,240.4,100.8z"/>
		<path class="st0" d="M251.1,107.6l-0.3-1.1h-0.1c-0.4,0.5-0.8,0.8-1.2,1c-0.4,0.2-0.9,0.3-1.5,0.3c-0.8,0-1.4-0.2-1.9-0.6
			c-0.4-0.4-0.7-1-0.7-1.8c0-0.8,0.3-1.5,0.9-1.9c0.6-0.4,1.6-0.7,2.8-0.7l1.4,0v-0.4c0-0.5-0.1-0.9-0.4-1.2
			c-0.2-0.3-0.6-0.4-1.1-0.4c-0.4,0-0.8,0.1-1.2,0.2c-0.4,0.1-0.7,0.3-1.1,0.4l-0.6-1.2c0.4-0.2,0.9-0.4,1.4-0.5
			c0.5-0.1,1-0.2,1.5-0.2c1,0,1.8,0.2,2.3,0.7c0.5,0.4,0.8,1.2,0.8,2.1v5.5H251.1z M248.6,106.5c0.6,0,1.1-0.2,1.5-0.5
			c0.4-0.3,0.6-0.8,0.6-1.5v-0.7l-1,0c-0.8,0-1.4,0.2-1.8,0.4c-0.4,0.2-0.6,0.6-0.6,1.1c0,0.4,0.1,0.6,0.3,0.8
			C247.8,106.4,248.1,106.5,248.6,106.5z"/>
		<path class="st0" d="M258.9,99.4c0.3,0,0.6,0,0.9,0.1l-0.2,1.6c-0.2-0.1-0.5-0.1-0.8-0.1c-0.7,0-1.2,0.2-1.7,0.7
			c-0.4,0.5-0.6,1-0.6,1.8v4.2h-1.7v-8.1h1.3l0.2,1.4h0.1c0.3-0.5,0.6-0.9,1.1-1.2C257.9,99.5,258.4,99.4,258.9,99.4z"/>
		<path class="st0" d="M266.3,107.6l-0.3-1.1h-0.1c-0.4,0.5-0.8,0.8-1.2,1c-0.4,0.2-0.9,0.3-1.5,0.3c-0.8,0-1.4-0.2-1.9-0.6
			c-0.4-0.4-0.7-1-0.7-1.8c0-0.8,0.3-1.5,0.9-1.9c0.6-0.4,1.6-0.7,2.8-0.7l1.4,0v-0.4c0-0.5-0.1-0.9-0.4-1.2
			c-0.2-0.3-0.6-0.4-1.1-0.4c-0.4,0-0.8,0.1-1.2,0.2c-0.4,0.1-0.7,0.3-1.1,0.4l-0.6-1.2c0.4-0.2,0.9-0.4,1.4-0.5
			c0.5-0.1,1-0.2,1.5-0.2c1,0,1.8,0.2,2.3,0.7c0.5,0.4,0.8,1.2,0.8,2.1v5.5H266.3z M263.7,106.5c0.6,0,1.1-0.2,1.5-0.5
			c0.4-0.3,0.6-0.8,0.6-1.5v-0.7l-1,0c-0.8,0-1.4,0.2-1.8,0.4c-0.4,0.2-0.6,0.6-0.6,1.1c0,0.4,0.1,0.6,0.3,0.8
			C263,106.4,263.3,106.5,263.7,106.5z"/>
		<path class="st0" d="M272.9,106.4c0.4,0,0.8-0.1,1.3-0.2v1.3c-0.2,0.1-0.4,0.2-0.7,0.2c-0.3,0.1-0.6,0.1-0.9,0.1
			c-1.6,0-2.4-0.9-2.4-2.6v-4.4H269v-0.8l1.2-0.6l0.6-1.7h1.1v1.8h2.3v1.3h-2.3v4.3c0,0.4,0.1,0.7,0.3,0.9
			C272.3,106.3,272.6,106.4,272.9,106.4z"/>
		<path class="st0" d="M275.7,97.4c0-0.3,0.1-0.5,0.3-0.7c0.2-0.2,0.4-0.2,0.7-0.2c0.3,0,0.5,0.1,0.7,0.2c0.2,0.2,0.3,0.4,0.3,0.7
			c0,0.3-0.1,0.5-0.3,0.7c-0.2,0.2-0.4,0.3-0.7,0.3c-0.3,0-0.6-0.1-0.7-0.3C275.8,97.9,275.7,97.7,275.7,97.4z M277.5,107.6h-1.7
			v-8.1h1.7V107.6z"/>
		<path class="st0" d="M283.5,107.8c-1.3,0-2.2-0.4-3-1.1c-0.7-0.7-1.1-1.7-1.1-3c0-1.3,0.3-2.4,1-3.1s1.6-1.1,2.7-1.1
			c1.1,0,1.9,0.3,2.5,1c0.6,0.7,0.9,1.5,0.9,2.7v0.9h-5.4c0,0.8,0.2,1.4,0.6,1.8c0.4,0.4,1,0.6,1.7,0.6c0.5,0,0.9,0,1.3-0.1
			c0.4-0.1,0.9-0.2,1.3-0.5v1.4c-0.4,0.2-0.8,0.3-1.3,0.4C284.6,107.7,284.1,107.8,283.5,107.8z M283.2,100.7c-0.5,0-1,0.2-1.3,0.5
			c-0.3,0.3-0.5,0.9-0.6,1.5h3.7c0-0.7-0.2-1.2-0.5-1.5C284.2,100.9,283.8,100.7,283.2,100.7z"/>
	</g>
</g>
<g>
	<path class="st1" d="M26.6,79.1c0,1,0.2,1.7,0.5,2.3c0.3,0.6,0.8,0.8,1.5,0.8c0.7,0,1.3-0.2,1.7-0.7s0.6-1.1,0.6-1.8
		c0.5,0,0.8,0.1,1.2,0.3c0.3,0.2,0.5,0.5,0.5,0.9c0,0.8-0.4,1.5-1.3,2.1c-0.9,0.6-1.8,0.8-2.8,0.8c-1.5,0-2.6-0.4-3.3-1.2
		c-0.7-0.8-1-2-1-3.6s0.5-3,1.4-4.1c0.9-1.1,2.1-1.7,3.6-1.7c1,0,1.9,0.2,2.5,0.7c0.6,0.5,0.9,1.2,0.9,2.2s-0.4,1.7-1.4,2.2
		c-0.9,0.5-2,0.8-3.3,0.8C27.5,79.2,27.1,79.2,26.6,79.1z M26.6,77.5c0.4,0.1,0.8,0.1,1.3,0.1c1,0,1.8-0.2,2.4-0.5
		c0.1-0.3,0.1-0.6,0.1-0.8c0-0.5-0.2-0.8-0.5-1.1c-0.3-0.2-0.8-0.4-1.4-0.4s-1.1,0.2-1.6,0.6C26.7,76.2,26.6,76.9,26.6,77.5z"/>
	<path class="st1" d="M36.1,83.6c-0.5,0-0.8-0.1-1.1-0.3s-0.4-0.5-0.4-0.9s0.1-1.1,0.2-2.2c0.1-1,0.2-2,0.2-3c0-1-0.2-2.1-0.5-3.5
		c0.4-0.2,0.8-0.2,1.3-0.2c0.4,0,0.8,0.1,1.1,0.4c0.3,0.3,0.4,0.7,0.4,1.1c0,0.2,0,0.6-0.1,1.1S37,77,37,77.2
		c0.5-1.2,1.1-2.1,1.9-2.8c0.7-0.7,1.4-1,2.1-1c0.5,0,0.9,0.2,1.2,0.5c0.3,0.3,0.4,0.8,0.4,1.3c0,0.5-0.1,1-0.4,1.3
		c-0.3,0.3-0.6,0.5-1,0.5c-0.4,0-0.7,0-1-0.1c0-0.2,0.1-0.3,0.1-0.4c0-0.5-0.2-0.8-0.6-0.8c-0.6,0-1.1,0.6-1.6,1.8s-0.9,2.3-1,3.3
		c0.1,1,0.2,1.9,0.4,2.7C37,83.6,36.6,83.6,36.1,83.6z"/>
	<path class="st1" d="M44.4,70.6c0.4-0.2,0.9-0.3,1.3-0.3s0.8,0.1,1.1,0.4c0.3,0.3,0.4,0.7,0.4,1.2s0,1.2-0.1,1.9c1,0,2-0.1,2.9-0.4
		c0.2,0.3,0.2,0.6,0.2,0.9s-0.2,0.6-0.5,0.9c-0.3,0.2-0.6,0.3-0.9,0.3c-0.3,0-0.7,0-1.1-0.1s-0.7-0.1-0.8-0.1c0,0.1,0,0.4-0.1,0.7
		c-0.1,0.4-0.1,0.7-0.1,0.9c-0.1,0.7-0.2,1.5-0.2,2.4c0,1.8,0.6,2.7,1.8,2.7c0.4,0,0.9-0.2,1.5-0.5c0.2,0.3,0.3,0.6,0.3,1
		c0,0.4-0.2,0.7-0.6,0.9c-0.4,0.2-1,0.3-1.6,0.3c-2.3,0-3.5-1.3-3.5-4c0-0.4,0.1-1.1,0.2-2.1c0.1-1,0.2-1.8,0.2-2.5
		c-0.6,0-1.2,0.2-1.5,0.3c-0.2-0.2-0.2-0.5-0.2-0.8s0.1-0.6,0.3-0.8c0.2-0.2,0.5-0.3,0.8-0.3c0.3,0,0.6,0,0.7,0c0-0.1,0-0.2,0-0.4
		C44.8,72.2,44.7,71.3,44.4,70.6z"/>
	<path class="st1" d="M64.5,77l2.1-0.2c0.8,0,1.2,0.4,1.2,1.2c0,0.5-0.1,1.2-0.2,2.2c-0.1,1-0.2,1.8-0.2,2.4
		c-0.3,0.1-1.1,0.3-2.2,0.6c-1.2,0.3-2.1,0.5-2.9,0.5c-1.9,0-3.3-0.6-4.3-1.8c-1-1.2-1.5-2.8-1.5-4.8c0-1.4,0.3-2.8,0.8-4
		c0.5-1.2,1.3-2.2,2.4-2.9c1-0.7,2.2-1.1,3.4-1.1c1.3,0,2.3,0.3,3.2,0.9s1.3,1.4,1.3,2.4c0,0.6-0.2,1-0.5,1.4
		c-0.3,0.4-0.7,0.6-1.2,0.6s-0.9-0.1-1.1-0.2c0-0.2,0.1-0.5,0.1-0.7c0-0.7-0.2-1.3-0.6-1.7c-0.4-0.4-1-0.7-1.7-0.7s-1.4,0.2-2.1,0.7
		c-0.4,0.5-0.7,1.3-0.9,2.2c-0.2,0.9-0.3,1.9-0.3,2.8c0,1.4,0.3,2.6,0.8,3.5s1.4,1.4,2.7,1.4c0.9,0,1.7-0.3,2.5-0.8
		c0.1-0.5,0.1-1.3,0.1-2.2C64.9,79,64.4,79,64.2,79c-0.7,0-1.1-0.4-1.1-1.2c0-0.3,0.1-0.7,0.2-1.1C63.6,76.9,64,77,64.5,77z"/>
	<path class="st1" d="M71.7,79.1c0,1,0.2,1.7,0.5,2.3c0.3,0.6,0.8,0.8,1.5,0.8c0.7,0,1.3-0.2,1.7-0.7s0.6-1.1,0.6-1.8
		c0.5,0,0.8,0.1,1.2,0.3s0.5,0.5,0.5,0.9c0,0.8-0.4,1.5-1.3,2.1s-1.8,0.8-2.8,0.8c-1.5,0-2.6-0.4-3.3-1.2c-0.7-0.8-1-2-1-3.6
		s0.5-3,1.4-4.1c0.9-1.1,2.1-1.7,3.6-1.7c1,0,1.9,0.2,2.5,0.7c0.6,0.5,0.9,1.2,0.9,2.2s-0.4,1.7-1.4,2.2c-0.9,0.5-2,0.8-3.3,0.8
		C72.6,79.2,72.2,79.2,71.7,79.1z M71.7,77.5c0.4,0.1,0.8,0.1,1.3,0.1c1,0,1.8-0.2,2.4-0.5c0.1-0.3,0.1-0.6,0.1-0.8
		c0-0.5-0.2-0.8-0.5-1.1c-0.3-0.2-0.8-0.4-1.4-0.4s-1.1,0.2-1.6,0.6C71.8,76.2,71.7,76.9,71.7,77.5z"/>
	<path class="st1" d="M79.8,68.9c0.4-0.2,0.9-0.2,1.3-0.2c0.5,0,0.8,0.2,1.1,0.5s0.5,0.7,0.5,1.2c0,0.5-0.1,1.5-0.2,3.1
		c-0.1,1.5-0.2,2.8-0.2,3.6c0,2.2,0.2,4.3,0.5,6.4c-0.4,0.2-0.9,0.2-1.4,0.2c-1,0-1.5-0.5-1.5-1.5c0-0.5,0.1-1.4,0.2-2.8
		c0.1-1.4,0.2-2.5,0.2-3.4C80.3,73.1,80.2,70.7,79.8,68.9z"/>
	<path class="st1" d="M91.3,68.9c0.4-0.2,0.9-0.2,1.3-0.2c0.5,0,0.8,0.2,1.1,0.5s0.4,0.7,0.4,1.1c0,0.4-0.1,1.5-0.2,3.2
		c-0.1,1.7-0.2,3.3-0.2,4.9c0,1.6,0.2,3.3,0.5,5.1c-0.5,0.2-1,0.2-1.5,0.2c-0.9,0-1.3-0.6-1.3-1.9c0-0.4,0.1-1.2,0.3-2.2
		c-0.6,1.2-1.1,2.1-1.5,2.6c-0.4,0.6-0.9,1-1.3,1.2c-0.4,0.2-0.8,0.4-1.3,0.4c-1,0-1.8-0.4-2.3-1.1c-0.5-0.7-0.8-1.7-0.8-2.8
		c0-1.1,0.2-2.1,0.6-3.1c0.4-1,1-1.8,1.8-2.4c0.8-0.6,1.6-1,2.5-1c0.9,0,1.7,0.1,2.3,0.4C91.7,72,91.6,70.4,91.3,68.9z M91.8,75.5
		c-0.7-0.2-1.4-0.4-2.1-0.4c-0.8,0-1.4,0.2-2,0.7C87.2,76.8,87,78,87,79.4c0,0.6,0.1,1.2,0.3,1.8s0.5,0.8,0.9,0.8
		c0.6,0,1.3-0.7,2.1-2.1S91.5,77.1,91.8,75.5z"/>
	<path class="st1" d="M105.4,75.6l-0.2,4.4c0,1.2,0.2,2.4,0.6,3.6c-0.4,0.2-0.8,0.2-1.3,0.2c-1.2,0-1.7-0.6-1.7-1.8
		c0-0.9,0.1-2,0.2-3.2c0.2-1.2,0.2-2,0.2-2.3c0-0.7-0.3-1-0.9-1c-0.7,0-1.4,0.6-2.2,1.9c-0.8,1.2-1.3,2.3-1.4,3.1
		c0,0.4,0.2,1.4,0.4,3c-0.4,0.2-0.9,0.2-1.4,0.2c-1,0-1.5-0.5-1.5-1.5c0-0.5,0.1-1.4,0.2-2.8c0.1-1.4,0.2-2.5,0.2-3.4
		c0-2.8-0.2-5.2-0.5-7c0.4-0.2,0.9-0.2,1.3-0.2s0.8,0.2,1.1,0.5c0.3,0.3,0.4,0.7,0.4,1.2c0,0.5-0.1,1.6-0.2,3.2s-0.2,2.9-0.2,3.8
		c0.5-1,1.1-1.9,2-2.7c0.9-0.8,1.8-1.2,2.7-1.2C104.7,73.4,105.4,74.1,105.4,75.6z"/>
	<path class="st1" d="M111.5,83.9c-1.5,0-2.5-0.4-3.2-1.3c-0.7-0.9-1-2.1-1-3.6s0.5-2.9,1.4-4c0.9-1.1,2.1-1.7,3.5-1.7
		c3,0,4.4,1.7,4.4,5c0,1.6-0.5,2.9-1.4,4S112.9,83.9,111.5,83.9z M110,75.5c-0.2,0.8-0.4,1.5-0.4,2.3s0,1.4,0.1,1.8s0.2,0.9,0.3,1.3
		c0.3,0.9,0.9,1.3,1.8,1.3c0.9,0,1.5-0.2,1.8-0.7c0.3-0.5,0.4-1.2,0.4-2.2c0-2.8-0.7-4.3-2-4.3C111.3,75,110.6,75.1,110,75.5z"/>
	<path class="st1" d="M119.2,80.4c0-0.2-0.1-1.8-0.2-4.7c-0.7,0-1.2,0.2-1.6,0.3c-0.2-0.3-0.2-0.6-0.2-0.9c0-0.3,0.1-0.6,0.3-0.8
		c0.2-0.2,0.5-0.3,0.8-0.3c0.3,0,0.5,0,0.7,0c0.1-1.5,0.6-2.8,1.5-3.8s2.2-1.6,3.6-1.6c0.8,0,1.5,0.2,2.1,0.5
		c0.6,0.3,0.8,0.9,0.8,1.5c0,0.5-0.2,0.9-0.5,1.2s-0.8,0.5-1.3,0.5c-0.1,0-0.2,0-0.4,0c0-0.2,0.1-0.3,0.1-0.5c0-0.5-0.1-0.8-0.3-1.1
		c-0.2-0.3-0.6-0.4-1.1-0.4s-1,0.1-1.4,0.4c-0.3,0.4-0.5,0.9-0.6,1.5c-0.2,0.6-0.2,1.3-0.2,1.9h0.5c0.9,0,1.9-0.1,3.1-0.4
		c0.2,0.3,0.2,0.6,0.2,1c0,0.4-0.2,0.7-0.5,0.9c-0.3,0.2-0.7,0.4-1.2,0.4c0,0-0.8-0.1-2.3-0.3l0.2,10.4c0,0.9-0.5,1.3-1.5,1.3
		c-0.3,0-0.8-0.1-1.4-0.2C118.9,85.4,119.2,83.2,119.2,80.4z"/>
</g>
<g id="Logo_gitaar" transform="translate(81.232 -56.414)">
	<path id="Path_2" class="st1" d="M-77,102.2h3.5c3.7,0.2,5.1,0.6,6.1,1.2c2.7,1.2,4.2,4,3.7,6.9c-0.1,0.8-0.2,1.6-0.4,2.4l-0.8,2.4
		c0,0,0,0,0,0l-0.6,1.6c0,0,0,0,0,0.1l-0.3,1.5c0,0,0,0.1,0,0.1v1.2c0,0.1,0,0.1,0,0.2l0.6,1.5c0,0,0,0,0,0.1l0.4,0.6c0,0,0,0,0,0
		l0.4,0.6c0,0,0,0,0,0.1l0.6,0.6l0.5,0.5l0,0l0.7,0.9c0,0,0,0,0,0l0.6,1l0.6,1.1l0.6,1c0,0,0,0,0,0l0.4,0.8c0,0,0,0,0,0l0.3,0.9
		c0,0,0,0.1,0,0.1l0.2,1.5l0.1,1.2v1.7l-0.1,1v0l-0.1,1c0,0,0,0,0,0l-0.3,1.2c0,0,0,0,0,0.1l-0.4,1.1c0,0,0,0,0,0.1l-0.9,1.6
		c0,0,0,0,0,0.1l-0.3,0.4c0,0,0,0-0.1,0.1l-1.3,1.1c0,0,0,0-0.1,0l-1.4,0.9c0,0,0,0,0,0l-1.1,0.6c0,0,0,0-0.1,0l-1.3,0.4
		c0,0,0,0,0,0l-1.6,0.4c0,0,0,0,0,0l-1.4,0.2h0l-1.4,0.2h-2.1l-1.5-0.1h0l-1.7-0.2"/>
	<path id="Path_3" class="st2" d="M-73.8,109.1v-5.5c0.8-0.1,1.6,0,2.4,0.2c0.7,0.2,1.4,0.6,1.9,1.2c0.7,0.6,0.9,2.7,0.9,2.7
		s0.1,1.2,0.2,2.7s-0.1,2.8,0,4.4c0.1,1.1,0.4,2.2,0.7,3.2l0.9,2c0.4,0.8,0.6,1.6,0.8,2.5c0.2,0.8,0,1.7-0.7,2.3
		c-0.4,0.3-0.8,0.4-1.3,0.4c-0.7-0.1-1.4-0.3-1.9-0.7c-0.3-0.2-0.6-0.3-1-0.3c-0.6-0.1-0.5,0.2-1.5,0.2s-1.1-2-1.1-2l0-2.3v-0.2
		l0-0.3"/>
	<g id="Group_3" transform="translate(226.213 125.351)">
		<path id="Path_4" class="st3" d="M-303.2-16.3c1-0.1,2,0,3,0.3c0.9,0.4,1.7,1,2.2,1.7c0.6,0.8,0.9,1.7,1,2.7
			c0.1,0.9,0,1.9-0.3,2.7c-0.3,0.8-0.8,1.5-1.4,2.1c-0.7,0.7-1.6,1-2.6,1.1c0,0-1.1,0.1-1.9,0"/>
	</g>
	<path id="Path_5" class="st1" d="M-77,60.2c0,0,3.1-0.9,4.7,1.2c-0.1,1.1-0.4,2.1-0.8,3.1l-0.5,2.5l-0.4,2.2H-77"/>
	<path id="Path_6" class="st1" d="M-73.8,102.3L-74,69.6h-3v32.6"/>
	<path id="Path_7" class="st4" d="M-72.7,63.4h0.2c0.1,0.1,0.3,0.2,0.3,0.4l0.5-0.1c0-0.4,0-0.8-0.2-1.2l-0.5,0.1l-0.1,0.3l-0.2,0
		L-72.7,63.4z"/>
	<path id="Path_8" class="st4" d="M-73.2,65.4h0.3l0-0.2c0.1-0.1,0.3-0.1,0.4,0c0.2,0.1,0.2,0.9,0.2,1s-0.4,0.1-0.4,0.1
		s-0.2-0.4-0.2-0.4l-0.3,0L-73.2,65.4z"/>
	<path id="Path_9" class="st4" d="M-73.7,68.2l0.3,0.1c0.1-0.1,0.2-0.3,0.2-0.4c0.2-0.1,0.5,0,0.7,0.1c0,0.4-0.2,0.8-0.5,1.1
		c-0.2,0-0.4,0-0.5,0l0.1-0.4l-0.3-0.1L-73.7,68.2z"/>
	<path id="Path_10" class="st5" d="M-75.9,102.2h3.5c3.7,0.2,5.1,0.6,6.1,1.2c2.7,1.2,4.2,4,3.7,6.9c-0.1,0.8-0.2,1.6-0.4,2.4
		l-0.8,2.4c0,0,0,0,0,0l-0.6,1.6c0,0,0,0,0,0.1l-0.3,1.5c0,0,0,0.1,0,0.1v1.2c0,0.1,0,0.1,0,0.2l0.6,1.5c0,0,0,0,0,0.1l0.4,0.6
		c0,0,0,0,0,0l0.4,0.6c0,0,0,0,0,0.1l0.6,0.6l0.5,0.5l0,0l0.7,0.9c0,0,0,0,0,0l0.6,1l0.6,1.1l0.6,1c0,0,0,0,0,0l0.4,0.8c0,0,0,0,0,0
		l0.3,0.9c0,0,0,0.1,0,0.1l0.2,1.5l0.1,1.2v1.7l-0.1,1v0l-0.1,1c0,0,0,0,0,0l-0.3,1.2c0,0,0,0,0,0.1l-0.4,1.1c0,0,0,0,0,0.1
		l-0.9,1.6c0,0,0,0,0,0.1l-0.3,0.4c0,0,0,0-0.1,0.1l-1.3,1.1c0,0,0,0-0.1,0l-1.4,0.9c0,0,0,0,0,0l-1.1,0.6c0,0,0,0-0.1,0l-1.3,0.4
		c0,0,0,0,0,0l-1.6,0.4c0,0,0,0,0,0l-1.4,0.2h0l-1.4,0.2h-2.1l-1.5-0.1h0l-1.7-0.2"/>
</g>
</svg>
