<?xml version="1.0" encoding="utf-8"?>
<svg version="1.1" xmlns="http://www.w3.org/2000/svg" xmlns:xlink="http://www.w3.org/1999/xlink" x="0px" y="0px"
	 viewBox="0 0 289.9 114.8" style="enable-background:new 0 0 289.9 114.8;" xml:space="preserve">
<style type="text/css">
	.st0{fill:#408AC9;}
	.st1{fill:#020203;}
	.st2{fill:#FFFFFF;}
	.st3{fill:#CDCCCC;}
	.st4{fill:none;}
</style>
<g>
	<g>
		<path class="st0" d="M13.1,97.6v6.9c0,0.8-0.2,1.5-0.5,2.1c-0.3,0.6-0.8,1-1.5,1.4c-0.6,0.3-1.4,0.5-2.3,0.5
			c-1.3,0-2.4-0.4-3.1-1.1s-1.1-1.7-1.1-2.9v-6.9h1.8v6.8c0,0.9,0.2,1.5,0.6,2s1,0.6,1.9,0.6c1.7,0,2.5-0.9,2.5-2.6v-6.8H13.1z"/>
		<path class="st0" d="M17.3,104.1l1-1.2l2.4-2.6h2l-3.3,3.5l3.5,4.6h-2l-2.6-3.6l-0.9,0.8v2.8h-1.7V96.9h1.7v5.6L17.3,104.1
			L17.3,104.1z"/>
		<path class="st0" d="M27.8,108.5c-1.3,0-2.2-0.4-3-1.1c-0.7-0.7-1.1-1.7-1.1-3c0-1.3,0.3-2.4,1-3.1s1.6-1.1,2.7-1.1
			c1.1,0,1.9,0.3,2.5,1c0.6,0.7,0.9,1.5,0.9,2.7v0.9h-5.4c0,0.8,0.2,1.4,0.6,1.8c0.4,0.4,1,0.6,1.7,0.6c0.5,0,0.9,0,1.3-0.1
			c0.4-0.1,0.9-0.2,1.3-0.5v1.4c-0.4,0.2-0.8,0.3-1.3,0.4C28.8,108.4,28.3,108.5,27.8,108.5z M27.4,101.4c-0.5,0-1,0.2-1.3,0.5
			c-0.3,0.3-0.5,0.9-0.6,1.5h3.7c0-0.7-0.2-1.2-0.5-1.5C28.4,101.6,28,101.4,27.4,101.4z"/>
		<path class="st0" d="M34.6,108.3h-1.7V96.9h1.7V108.3z"/>
		<path class="st0" d="M40.6,108.5c-1.3,0-2.2-0.4-3-1.1c-0.7-0.7-1.1-1.7-1.1-3c0-1.3,0.3-2.4,1-3.1s1.6-1.1,2.7-1.1
			c1.1,0,1.9,0.3,2.5,1c0.6,0.7,0.9,1.5,0.9,2.7v0.9h-5.4c0,0.8,0.2,1.4,0.6,1.8c0.4,0.4,1,0.6,1.7,0.6c0.5,0,0.9,0,1.3-0.1
			c0.4-0.1,0.9-0.2,1.3-0.5v1.4c-0.4,0.2-0.8,0.3-1.3,0.4C41.6,108.4,41.1,108.5,40.6,108.5z M40.3,101.4c-0.5,0-1,0.2-1.3,0.5
			c-0.3,0.3-0.5,0.9-0.6,1.5H42c0-0.7-0.2-1.2-0.5-1.5C41.2,101.6,40.8,101.4,40.3,101.4z"/>
		<path class="st0" d="M47.4,108.3h-1.7V96.9h1.7V108.3z"/>
		<path class="st0" d="M53.4,108.5c-1.3,0-2.2-0.4-3-1.1c-0.7-0.7-1.1-1.7-1.1-3c0-1.3,0.3-2.4,1-3.1s1.6-1.1,2.7-1.1
			c1.1,0,1.9,0.3,2.5,1c0.6,0.7,0.9,1.5,0.9,2.7v0.9h-5.4c0,0.8,0.2,1.4,0.6,1.8c0.4,0.4,1,0.6,1.7,0.6c0.5,0,0.9,0,1.3-0.1
			c0.4-0.1,0.9-0.2,1.3-0.5v1.4c-0.4,0.2-0.8,0.3-1.3,0.4C54.4,108.4,54,108.5,53.4,108.5z M53.1,101.4c-0.5,0-1,0.2-1.3,0.5
			c-0.3,0.3-0.5,0.9-0.6,1.5h3.7c0-0.7-0.2-1.2-0.5-1.5C54.1,101.6,53.6,101.4,53.1,101.4z"/>
		<path class="st0" d="M60.2,108.3h-1.7V96.9h1.7V108.3z"/>
		<path class="st0" d="M66.2,108.5c-1.3,0-2.2-0.4-3-1.1c-0.7-0.7-1.1-1.7-1.1-3c0-1.3,0.3-2.4,1-3.1s1.6-1.1,2.7-1.1
			c1.1,0,1.9,0.3,2.5,1c0.6,0.7,0.9,1.5,0.9,2.7v0.9H64c0,0.8,0.2,1.4,0.6,1.8c0.4,0.4,1,0.6,1.7,0.6c0.5,0,0.9,0,1.3-0.1
			c0.4-0.1,0.9-0.2,1.3-0.5v1.4c-0.4,0.2-0.8,0.3-1.3,0.4C67.3,108.4,66.8,108.5,66.2,108.5z M65.9,101.4c-0.5,0-1,0.2-1.3,0.5
			c-0.3,0.3-0.5,0.9-0.6,1.5h3.7c0-0.7-0.2-1.2-0.5-1.5C66.9,101.6,66.5,101.4,65.9,101.4z"/>
		<path class="st0" d="M76.8,106c0,0.8-0.3,1.4-0.9,1.8c-0.6,0.4-1.4,0.6-2.5,0.6c-1.1,0-1.9-0.2-2.6-0.5v-1.5
			c1,0.4,1.8,0.7,2.7,0.7c1.1,0,1.6-0.3,1.6-1c0-0.2-0.1-0.4-0.2-0.5c-0.1-0.1-0.3-0.3-0.6-0.4s-0.6-0.3-1.1-0.5
			c-0.9-0.4-1.6-0.7-1.9-1.1c-0.3-0.4-0.5-0.8-0.5-1.4c0-0.7,0.3-1.2,0.8-1.6c0.6-0.4,1.3-0.6,2.3-0.6c1,0,1.9,0.2,2.7,0.6l-0.6,1.3
			c-0.9-0.4-1.6-0.5-2.2-0.5c-0.9,0-1.4,0.3-1.4,0.8c0,0.3,0.1,0.5,0.4,0.6c0.2,0.2,0.8,0.4,1.5,0.7c0.7,0.3,1.2,0.5,1.5,0.7
			s0.5,0.5,0.7,0.7C76.7,105.3,76.8,105.6,76.8,106z"/>
		<path class="st0" d="M80.4,106.8c-0.2,0.9-0.7,2.1-1.3,3.5h-1.3c0.3-1.3,0.6-2.5,0.8-3.7h1.7L80.4,106.8z"/>
		<path class="st0" d="M93.4,100.2v0.9l-1.4,0.3c0.1,0.2,0.2,0.4,0.3,0.6s0.1,0.5,0.1,0.8c0,0.8-0.3,1.5-0.9,2s-1.4,0.7-2.4,0.7
			c-0.3,0-0.5,0-0.7-0.1c-0.4,0.2-0.6,0.5-0.6,0.8c0,0.2,0.1,0.3,0.3,0.4s0.5,0.1,1,0.1h1.4c0.9,0,1.6,0.2,2,0.6s0.7,0.9,0.7,1.6
			c0,0.9-0.4,1.6-1.1,2.1s-1.9,0.7-3.3,0.7c-1.1,0-1.9-0.2-2.5-0.6s-0.9-0.9-0.9-1.7c0-0.5,0.2-0.9,0.5-1.3c0.3-0.3,0.8-0.6,1.3-0.7
			c-0.2-0.1-0.4-0.3-0.6-0.5c-0.1-0.2-0.2-0.4-0.2-0.7c0-0.3,0.1-0.6,0.3-0.8s0.4-0.4,0.8-0.6c-0.4-0.2-0.8-0.5-1-0.9
			c-0.3-0.4-0.4-0.9-0.4-1.4c0-0.9,0.3-1.6,0.8-2c0.6-0.5,1.3-0.7,2.4-0.7c0.2,0,0.5,0,0.7,0c0.3,0,0.4,0.1,0.6,0.1H93.4z M87,109.6
			c0,0.4,0.2,0.7,0.5,0.9c0.3,0.2,0.8,0.3,1.4,0.3c0.9,0,1.6-0.1,2.1-0.4s0.7-0.6,0.7-1.1c0-0.4-0.1-0.6-0.4-0.8
			c-0.3-0.1-0.7-0.2-1.4-0.2h-1.3c-0.5,0-0.9,0.1-1.2,0.3C87.2,108.9,87,109.2,87,109.6z M87.8,102.9c0,0.5,0.1,0.9,0.4,1.2
			s0.6,0.4,1.1,0.4c1,0,1.5-0.5,1.5-1.6c0-0.5-0.1-0.9-0.4-1.2c-0.2-0.3-0.6-0.4-1.1-0.4c-0.5,0-0.9,0.1-1.1,0.4
			C87.9,101.9,87.8,102.3,87.8,102.9z"/>
		<path class="st0" d="M94.8,98.1c0-0.3,0.1-0.5,0.3-0.7c0.2-0.2,0.4-0.2,0.7-0.2c0.3,0,0.5,0.1,0.7,0.2c0.2,0.2,0.3,0.4,0.3,0.7
			c0,0.3-0.1,0.5-0.3,0.7C96.3,99,96.1,99,95.7,99c-0.3,0-0.6-0.1-0.7-0.3C94.9,98.6,94.8,98.4,94.8,98.1z M96.6,108.3h-1.7v-8.1
			h1.7V108.3z"/>
		<path class="st0" d="M102.1,107.1c0.4,0,0.8-0.1,1.3-0.2v1.3c-0.2,0.1-0.4,0.2-0.7,0.2c-0.3,0.1-0.6,0.1-0.9,0.1
			c-1.6,0-2.4-0.9-2.4-2.6v-4.4h-1.1v-0.8l1.2-0.6l0.6-1.7h1.1v1.8h2.3v1.3h-2.3v4.3c0,0.4,0.1,0.7,0.3,0.9
			C101.5,107,101.7,107.1,102.1,107.1z"/>
		<path class="st0" d="M110,108.3l-0.3-1.1h-0.1c-0.4,0.5-0.8,0.8-1.2,1c-0.4,0.2-0.9,0.3-1.5,0.3c-0.8,0-1.4-0.2-1.9-0.6
			c-0.4-0.4-0.7-1-0.7-1.8c0-0.8,0.3-1.5,0.9-1.9c0.6-0.4,1.6-0.7,2.8-0.7l1.4,0V103c0-0.5-0.1-0.9-0.4-1.2
			c-0.2-0.3-0.6-0.4-1.1-0.4c-0.4,0-0.8,0.1-1.2,0.2c-0.4,0.1-0.7,0.3-1.1,0.4l-0.6-1.2c0.4-0.2,0.9-0.4,1.4-0.5
			c0.5-0.1,1-0.2,1.5-0.2c1,0,1.8,0.2,2.3,0.7c0.5,0.4,0.8,1.2,0.8,2.1v5.5H110z M107.5,107.2c0.6,0,1.1-0.2,1.5-0.5
			c0.4-0.3,0.6-0.8,0.6-1.5v-0.7l-1,0c-0.8,0-1.4,0.2-1.8,0.4c-0.4,0.2-0.6,0.6-0.6,1.1c0,0.4,0.1,0.6,0.3,0.8
			C106.7,107.1,107,107.2,107.5,107.2z"/>
		<path class="st0" d="M118.7,108.3l-0.3-1.1h-0.1c-0.4,0.5-0.8,0.8-1.2,1c-0.4,0.2-0.9,0.3-1.5,0.3c-0.8,0-1.4-0.2-1.9-0.6
			c-0.4-0.4-0.7-1-0.7-1.8c0-0.8,0.3-1.5,0.9-1.9c0.6-0.4,1.6-0.7,2.8-0.7l1.4,0V103c0-0.5-0.1-0.9-0.4-1.2
			c-0.2-0.3-0.6-0.4-1.1-0.4c-0.4,0-0.8,0.1-1.2,0.2c-0.4,0.1-0.7,0.3-1.1,0.4l-0.6-1.2c0.4-0.2,0.9-0.4,1.4-0.5
			c0.5-0.1,1-0.2,1.5-0.2c1,0,1.8,0.2,2.3,0.7c0.5,0.4,0.8,1.2,0.8,2.1v5.5H118.7z M116.2,107.2c0.6,0,1.1-0.2,1.5-0.5
			c0.4-0.3,0.6-0.8,0.6-1.5v-0.7l-1,0c-0.8,0-1.4,0.2-1.8,0.4c-0.4,0.2-0.6,0.6-0.6,1.1c0,0.4,0.1,0.6,0.3,0.8
			C115.4,107.1,115.7,107.2,116.2,107.2z"/>
		<path class="st0" d="M126.5,100.1c0.3,0,0.6,0,0.9,0.1l-0.2,1.6c-0.2-0.1-0.5-0.1-0.8-0.1c-0.7,0-1.2,0.2-1.7,0.7
			c-0.4,0.5-0.6,1-0.6,1.8v4.2h-1.7v-8.1h1.3l0.2,1.4h0.1c0.3-0.5,0.6-0.9,1.1-1.2C125.5,100.2,126,100.1,126.5,100.1z"/>
		<path class="st0" d="M130.5,108.3h-1.7V96.9h1.7V108.3z"/>
		<path class="st0" d="M136.5,108.5c-1.3,0-2.2-0.4-3-1.1c-0.7-0.7-1.1-1.7-1.1-3c0-1.3,0.3-2.4,1-3.1s1.6-1.1,2.7-1.1
			c1.1,0,1.9,0.3,2.5,1c0.6,0.7,0.9,1.5,0.9,2.7v0.9h-5.4c0,0.8,0.2,1.4,0.6,1.8c0.4,0.4,1,0.6,1.7,0.6c0.5,0,0.9,0,1.3-0.1
			c0.4-0.1,0.9-0.2,1.3-0.5v1.4c-0.4,0.2-0.8,0.3-1.3,0.4C137.6,108.4,137.1,108.5,136.5,108.5z M136.2,101.4c-0.5,0-1,0.2-1.3,0.5
			c-0.3,0.3-0.5,0.9-0.6,1.5h3.7c0-0.7-0.2-1.2-0.5-1.5C137.2,101.6,136.8,101.4,136.2,101.4z"/>
		<path class="st0" d="M147.1,106c0,0.8-0.3,1.4-0.9,1.8c-0.6,0.4-1.4,0.6-2.5,0.6c-1.1,0-1.9-0.2-2.6-0.5v-1.5
			c1,0.4,1.8,0.7,2.7,0.7c1.1,0,1.6-0.3,1.6-1c0-0.2-0.1-0.4-0.2-0.5c-0.1-0.1-0.3-0.3-0.6-0.4s-0.6-0.3-1.1-0.5
			c-0.9-0.4-1.6-0.7-1.9-1.1c-0.3-0.4-0.5-0.8-0.5-1.4c0-0.7,0.3-1.2,0.8-1.6c0.6-0.4,1.3-0.6,2.3-0.6c1,0,1.9,0.2,2.7,0.6l-0.6,1.3
			c-0.9-0.4-1.6-0.5-2.2-0.5c-0.9,0-1.4,0.3-1.4,0.8c0,0.3,0.1,0.5,0.4,0.6c0.2,0.2,0.8,0.4,1.5,0.7c0.7,0.3,1.2,0.5,1.5,0.7
			s0.5,0.5,0.7,0.7C147,105.3,147.1,105.6,147.1,106z"/>
		<path class="st0" d="M156.4,108.5c-1.3,0-2.2-0.4-3-1.1c-0.7-0.7-1.1-1.7-1.1-3c0-1.3,0.3-2.4,1-3.1s1.6-1.1,2.7-1.1
			c1.1,0,1.9,0.3,2.5,1c0.6,0.7,0.9,1.5,0.9,2.7v0.9h-5.4c0,0.8,0.2,1.4,0.6,1.8c0.4,0.4,1,0.6,1.7,0.6c0.5,0,0.9,0,1.3-0.1
			c0.4-0.1,0.9-0.2,1.3-0.5v1.4c-0.4,0.2-0.8,0.3-1.3,0.4C157.4,108.4,156.9,108.5,156.4,108.5z M156.1,101.4c-0.5,0-1,0.2-1.3,0.5
			c-0.3,0.3-0.5,0.9-0.6,1.5h3.7c0-0.7-0.2-1.2-0.5-1.5C157,101.6,156.6,101.4,156.1,101.4z"/>
		<path class="st0" d="M168.6,108.3h-1.7v-5c0-0.6-0.1-1.1-0.4-1.4c-0.3-0.3-0.7-0.5-1.2-0.5c-0.7,0-1.3,0.2-1.6,0.6
			s-0.5,1.1-0.5,2.2v4h-1.7v-8.1h1.3l0.2,1.1h0.1c0.2-0.4,0.6-0.7,1-0.9s0.9-0.3,1.5-0.3c1.9,0,2.9,1,2.9,3V108.3z"/>
		<path class="st0" d="M181.7,100.2v0.9l-1.4,0.3c0.1,0.2,0.2,0.4,0.3,0.6s0.1,0.5,0.1,0.8c0,0.8-0.3,1.5-0.9,2s-1.4,0.7-2.4,0.7
			c-0.3,0-0.5,0-0.7-0.1c-0.4,0.2-0.6,0.5-0.6,0.8c0,0.2,0.1,0.3,0.3,0.4s0.5,0.1,1,0.1h1.4c0.9,0,1.6,0.2,2,0.6s0.7,0.9,0.7,1.6
			c0,0.9-0.4,1.6-1.1,2.1s-1.9,0.7-3.3,0.7c-1.1,0-1.9-0.2-2.5-0.6s-0.9-0.9-0.9-1.7c0-0.5,0.2-0.9,0.5-1.3c0.3-0.3,0.8-0.6,1.3-0.7
			c-0.2-0.1-0.4-0.3-0.6-0.5c-0.1-0.2-0.2-0.4-0.2-0.7c0-0.3,0.1-0.6,0.3-0.8s0.4-0.4,0.8-0.6c-0.4-0.2-0.8-0.5-1-0.9
			c-0.3-0.4-0.4-0.9-0.4-1.4c0-0.9,0.3-1.6,0.8-2c0.6-0.5,1.3-0.7,2.4-0.7c0.2,0,0.5,0,0.7,0c0.3,0,0.4,0.1,0.6,0.1H181.7z
			 M175.4,109.6c0,0.4,0.2,0.7,0.5,0.9c0.3,0.2,0.8,0.3,1.4,0.3c0.9,0,1.6-0.1,2.1-0.4s0.7-0.6,0.7-1.1c0-0.4-0.1-0.6-0.4-0.8
			c-0.3-0.1-0.7-0.2-1.4-0.2H177c-0.5,0-0.9,0.1-1.2,0.3C175.5,108.9,175.4,109.2,175.4,109.6z M176.1,102.9c0,0.5,0.1,0.9,0.4,1.2
			s0.6,0.4,1.1,0.4c1,0,1.5-0.5,1.5-1.6c0-0.5-0.1-0.9-0.4-1.2c-0.2-0.3-0.6-0.4-1.1-0.4c-0.5,0-0.9,0.1-1.1,0.4
			C176.3,101.9,176.1,102.3,176.1,102.9z"/>
		<path class="st0" d="M183.1,98.1c0-0.3,0.1-0.5,0.3-0.7c0.2-0.2,0.4-0.2,0.7-0.2c0.3,0,0.5,0.1,0.7,0.2c0.2,0.2,0.3,0.4,0.3,0.7
			c0,0.3-0.1,0.5-0.3,0.7c-0.2,0.2-0.4,0.3-0.7,0.3c-0.3,0-0.6-0.1-0.7-0.3C183.2,98.6,183.1,98.4,183.1,98.1z M185,108.3h-1.7v-8.1
			h1.7V108.3z"/>
		<path class="st0" d="M190.5,107.1c0.4,0,0.8-0.1,1.3-0.2v1.3c-0.2,0.1-0.4,0.2-0.7,0.2c-0.3,0.1-0.6,0.1-0.9,0.1
			c-1.6,0-2.4-0.9-2.4-2.6v-4.4h-1.1v-0.8l1.2-0.6l0.6-1.7h1.1v1.8h2.3v1.3h-2.3v4.3c0,0.4,0.1,0.7,0.3,0.9
			C189.8,107,190.1,107.1,190.5,107.1z"/>
		<path class="st0" d="M198.4,108.3l-0.3-1.1H198c-0.4,0.5-0.8,0.8-1.2,1c-0.4,0.2-0.9,0.3-1.5,0.3c-0.8,0-1.4-0.2-1.9-0.6
			c-0.4-0.4-0.7-1-0.7-1.8c0-0.8,0.3-1.5,0.9-1.9c0.6-0.4,1.6-0.7,2.8-0.7l1.4,0V103c0-0.5-0.1-0.9-0.4-1.2
			c-0.2-0.3-0.6-0.4-1.1-0.4c-0.4,0-0.8,0.1-1.2,0.2c-0.4,0.1-0.7,0.3-1.1,0.4l-0.6-1.2c0.4-0.2,0.9-0.4,1.4-0.5
			c0.5-0.1,1-0.2,1.5-0.2c1,0,1.8,0.2,2.3,0.7c0.5,0.4,0.8,1.2,0.8,2.1v5.5H198.4z M195.8,107.2c0.6,0,1.1-0.2,1.5-0.5
			c0.4-0.3,0.6-0.8,0.6-1.5v-0.7l-1,0c-0.8,0-1.4,0.2-1.8,0.4c-0.4,0.2-0.6,0.6-0.6,1.1c0,0.4,0.1,0.6,0.3,0.8
			C195.1,107.1,195.4,107.2,195.8,107.2z"/>
		<path class="st0" d="M207.1,108.3l-0.3-1.1h-0.1c-0.4,0.5-0.8,0.8-1.2,1c-0.4,0.2-0.9,0.3-1.5,0.3c-0.8,0-1.4-0.2-1.9-0.6
			c-0.4-0.4-0.7-1-0.7-1.8c0-0.8,0.3-1.5,0.9-1.9c0.6-0.4,1.6-0.7,2.8-0.7l1.4,0V103c0-0.5-0.1-0.9-0.4-1.2
			c-0.2-0.3-0.6-0.4-1.1-0.4c-0.4,0-0.8,0.1-1.2,0.2c-0.4,0.1-0.7,0.3-1.1,0.4l-0.6-1.2c0.4-0.2,0.9-0.4,1.4-0.5
			c0.5-0.1,1-0.2,1.5-0.2c1,0,1.8,0.2,2.3,0.7c0.5,0.4,0.8,1.2,0.8,2.1v5.5H207.1z M204.5,107.2c0.6,0,1.1-0.2,1.5-0.5
			c0.4-0.3,0.6-0.8,0.6-1.5v-0.7l-1,0c-0.8,0-1.4,0.2-1.8,0.4c-0.4,0.2-0.6,0.6-0.6,1.1c0,0.4,0.1,0.6,0.3,0.8
			C203.8,107.1,204.1,107.2,204.5,107.2z"/>
		<path class="st0" d="M214.8,100.1c0.3,0,0.6,0,0.9,0.1l-0.2,1.6c-0.2-0.1-0.5-0.1-0.8-0.1c-0.7,0-1.2,0.2-1.7,0.7
			c-0.4,0.5-0.6,1-0.6,1.8v4.2h-1.7v-8.1h1.3l0.2,1.4h0.1c0.3-0.5,0.6-0.9,1.1-1.2C213.9,100.2,214.3,100.1,214.8,100.1z"/>
		<path class="st0" d="M225.2,100.1c0.3,0,0.6,0,0.9,0.1l-0.2,1.6c-0.2-0.1-0.5-0.1-0.8-0.1c-0.7,0-1.2,0.2-1.7,0.7
			c-0.4,0.5-0.6,1-0.6,1.8v4.2h-1.7v-8.1h1.3l0.2,1.4h0.1c0.3-0.5,0.6-0.9,1.1-1.2C224.2,100.2,224.7,100.1,225.2,100.1z"/>
		<path class="st0" d="M231.1,108.5c-1.3,0-2.2-0.4-3-1.1c-0.7-0.7-1.1-1.7-1.1-3c0-1.3,0.3-2.4,1-3.1s1.6-1.1,2.7-1.1
			c1.1,0,1.9,0.3,2.5,1c0.6,0.7,0.9,1.5,0.9,2.7v0.9h-5.4c0,0.8,0.2,1.4,0.6,1.8c0.4,0.4,1,0.6,1.7,0.6c0.5,0,0.9,0,1.3-0.1
			c0.4-0.1,0.9-0.2,1.3-0.5v1.4c-0.4,0.2-0.8,0.3-1.3,0.4C232.1,108.4,231.7,108.5,231.1,108.5z M230.8,101.4c-0.5,0-1,0.2-1.3,0.5
			c-0.3,0.3-0.5,0.9-0.6,1.5h3.7c0-0.7-0.2-1.2-0.5-1.5C231.8,101.6,231.3,101.4,230.8,101.4z"/>
		<path class="st0" d="M240.3,108.5c-1,0-1.8-0.4-2.4-1.1h-0.1c0.1,0.7,0.1,1.1,0.1,1.2v3.3h-1.7v-11.7h1.4c0,0.2,0.1,0.5,0.2,1.1
			h0.1c0.5-0.8,1.3-1.2,2.4-1.2c1,0,1.8,0.4,2.4,1.1c0.6,0.7,0.8,1.8,0.8,3.1s-0.3,2.4-0.9,3.1S241.3,108.5,240.3,108.5z
			 M239.9,101.5c-0.7,0-1.2,0.2-1.5,0.6c-0.3,0.4-0.5,1-0.5,1.9v0.3c0,1,0.2,1.7,0.5,2.1c0.3,0.4,0.8,0.7,1.5,0.7
			c0.6,0,1.1-0.2,1.4-0.7s0.5-1.2,0.5-2.1c0-0.9-0.2-1.6-0.5-2.1C241,101.7,240.5,101.5,239.9,101.5z"/>
		<path class="st0" d="M250.6,108.3l-0.3-1.1h-0.1c-0.4,0.5-0.8,0.8-1.2,1c-0.4,0.2-0.9,0.3-1.5,0.3c-0.8,0-1.4-0.2-1.9-0.6
			c-0.4-0.4-0.7-1-0.7-1.8c0-0.8,0.3-1.5,0.9-1.9c0.6-0.4,1.6-0.7,2.8-0.7l1.4,0V103c0-0.5-0.1-0.9-0.4-1.2
			c-0.2-0.3-0.6-0.4-1.1-0.4c-0.4,0-0.8,0.1-1.2,0.2c-0.4,0.1-0.7,0.3-1.1,0.4l-0.6-1.2c0.4-0.2,0.9-0.4,1.4-0.5
			c0.5-0.1,1-0.2,1.5-0.2c1,0,1.8,0.2,2.3,0.7c0.5,0.4,0.8,1.2,0.8,2.1v5.5H250.6z M248.1,107.2c0.6,0,1.1-0.2,1.5-0.5
			c0.4-0.3,0.6-0.8,0.6-1.5v-0.7l-1,0c-0.8,0-1.4,0.2-1.8,0.4c-0.4,0.2-0.6,0.6-0.6,1.1c0,0.4,0.1,0.6,0.3,0.8
			C247.3,107.1,247.6,107.2,248.1,107.2z"/>
		<path class="st0" d="M258.4,100.1c0.3,0,0.6,0,0.9,0.1l-0.2,1.6c-0.2-0.1-0.5-0.1-0.8-0.1c-0.7,0-1.2,0.2-1.7,0.7
			c-0.4,0.5-0.6,1-0.6,1.8v4.2h-1.7v-8.1h1.3l0.2,1.4h0.1c0.3-0.5,0.6-0.9,1.1-1.2C257.4,100.2,257.9,100.1,258.4,100.1z"/>
		<path class="st0" d="M265.8,108.3l-0.3-1.1h-0.1c-0.4,0.5-0.8,0.8-1.2,1c-0.4,0.2-0.9,0.3-1.5,0.3c-0.8,0-1.4-0.2-1.9-0.6
			c-0.4-0.4-0.7-1-0.7-1.8c0-0.8,0.3-1.5,0.9-1.9c0.6-0.4,1.6-0.7,2.8-0.7l1.4,0V103c0-0.5-0.1-0.9-0.4-1.2
			c-0.2-0.3-0.6-0.4-1.1-0.4c-0.4,0-0.8,0.1-1.2,0.2c-0.4,0.1-0.7,0.3-1.1,0.4l-0.6-1.2c0.4-0.2,0.9-0.4,1.4-0.5
			c0.5-0.1,1-0.2,1.5-0.2c1,0,1.8,0.2,2.3,0.7c0.5,0.4,0.8,1.2,0.8,2.1v5.5H265.8z M263.2,107.2c0.6,0,1.1-0.2,1.5-0.5
			c0.4-0.3,0.6-0.8,0.6-1.5v-0.7l-1,0c-0.8,0-1.4,0.2-1.8,0.4c-0.4,0.2-0.6,0.6-0.6,1.1c0,0.4,0.1,0.6,0.3,0.8
			C262.5,107.1,262.8,107.2,263.2,107.2z"/>
		<path class="st0" d="M272.4,107.1c0.4,0,0.8-0.1,1.3-0.2v1.3c-0.2,0.1-0.4,0.2-0.7,0.2c-0.3,0.1-0.6,0.1-0.9,0.1
			c-1.6,0-2.4-0.9-2.4-2.6v-4.4h-1.1v-0.8l1.2-0.6l0.6-1.7h1.1v1.8h2.3v1.3h-2.3v4.3c0,0.4,0.1,0.7,0.3,0.9
			C271.8,107,272.1,107.1,272.4,107.1z"/>
		<path class="st0" d="M275.2,98.1c0-0.3,0.1-0.5,0.3-0.7c0.2-0.2,0.4-0.2,0.7-0.2c0.3,0,0.5,0.1,0.7,0.2c0.2,0.2,0.3,0.4,0.3,0.7
			c0,0.3-0.1,0.5-0.3,0.7c-0.2,0.2-0.4,0.3-0.7,0.3c-0.3,0-0.6-0.1-0.7-0.3C275.3,98.6,275.2,98.4,275.2,98.1z M277,108.3h-1.7v-8.1
			h1.7V108.3z"/>
		<path class="st0" d="M283,108.5c-1.3,0-2.2-0.4-3-1.1c-0.7-0.7-1.1-1.7-1.1-3c0-1.3,0.3-2.4,1-3.1s1.6-1.1,2.7-1.1
			c1.1,0,1.9,0.3,2.5,1c0.6,0.7,0.9,1.5,0.9,2.7v0.9h-5.4c0,0.8,0.2,1.4,0.6,1.8c0.4,0.4,1,0.6,1.7,0.6c0.5,0,0.9,0,1.3-0.1
			c0.4-0.1,0.9-0.2,1.3-0.5v1.4c-0.4,0.2-0.8,0.3-1.3,0.4C284.1,108.4,283.6,108.5,283,108.5z M282.7,101.4c-0.5,0-1,0.2-1.3,0.5
			c-0.3,0.3-0.5,0.9-0.6,1.5h3.7c0-0.7-0.2-1.2-0.5-1.5C283.7,101.6,283.3,101.4,282.7,101.4z"/>
	</g>
</g>
<g>
	<path class="st1" d="M26.1,79.8c0,1,0.2,1.7,0.5,2.3c0.3,0.6,0.8,0.8,1.5,0.8c0.7,0,1.3-0.2,1.7-0.7s0.6-1.1,0.6-1.8
		c0.5,0,0.8,0.1,1.2,0.3s0.5,0.5,0.5,0.9c0,0.8-0.4,1.5-1.3,2.1S29,84.6,28,84.6c-1.5,0-2.6-0.4-3.3-1.2c-0.7-0.8-1-2-1-3.6
		s0.5-3,1.4-4.1c0.9-1.1,2.1-1.7,3.6-1.7c1,0,1.9,0.2,2.5,0.7c0.6,0.5,0.9,1.2,0.9,2.2s-0.4,1.7-1.4,2.2c-0.9,0.5-2,0.8-3.3,0.8
		C27,79.9,26.6,79.9,26.1,79.8z M26.1,78.2c0.4,0.1,0.8,0.1,1.3,0.1c1,0,1.8-0.2,2.4-0.5c0.1-0.3,0.1-0.6,0.1-0.8
		c0-0.5-0.2-0.8-0.5-1.1c-0.3-0.2-0.8-0.4-1.4-0.4s-1.1,0.2-1.6,0.6C26.2,76.9,26.1,77.6,26.1,78.2z"/>
	<path class="st1" d="M35.6,84.3c-0.5,0-0.8-0.1-1.1-0.3s-0.4-0.5-0.4-0.9s0.1-1.1,0.2-2.2c0.1-1,0.2-2,0.2-3c0-1-0.2-2.1-0.5-3.5
		c0.4-0.2,0.8-0.2,1.3-0.2c0.4,0,0.8,0.1,1.1,0.4c0.3,0.3,0.4,0.7,0.4,1.1c0,0.2,0,0.6-0.1,1.1s-0.1,0.8-0.1,1.1
		c0.5-1.2,1.1-2.1,1.9-2.8c0.7-0.7,1.4-1,2.1-1c0.5,0,0.9,0.2,1.2,0.5c0.3,0.3,0.4,0.8,0.4,1.3c0,0.5-0.1,1-0.4,1.3
		c-0.3,0.3-0.6,0.5-1,0.5c-0.4,0-0.7,0-1-0.1c0-0.2,0.1-0.3,0.1-0.4c0-0.5-0.2-0.8-0.6-0.8c-0.6,0-1.1,0.6-1.6,1.8s-0.9,2.3-1,3.3
		c0.1,1,0.2,1.9,0.4,2.7C36.5,84.3,36.1,84.3,35.6,84.3z"/>
	<path class="st1" d="M43.9,71.3c0.4-0.2,0.9-0.3,1.3-0.3s0.8,0.1,1.1,0.4c0.3,0.3,0.4,0.7,0.4,1.2s0,1.2-0.1,1.9c1,0,2-0.1,2.9-0.4
		c0.2,0.3,0.2,0.6,0.2,0.9s-0.2,0.6-0.5,0.9c-0.3,0.2-0.6,0.3-0.9,0.3c-0.3,0-0.7,0-1.1-0.1s-0.7-0.1-0.8-0.1c0,0.1,0,0.4-0.1,0.7
		c-0.1,0.4-0.1,0.7-0.1,0.9c-0.1,0.7-0.2,1.5-0.2,2.4c0,1.8,0.6,2.7,1.8,2.7c0.4,0,0.9-0.2,1.5-0.5c0.2,0.3,0.3,0.6,0.3,1
		c0,0.4-0.2,0.7-0.6,0.9c-0.4,0.2-1,0.3-1.6,0.3c-2.3,0-3.5-1.3-3.5-4c0-0.4,0.1-1.1,0.2-2.1c0.1-1,0.2-1.8,0.2-2.5
		c-0.6,0-1.2,0.2-1.5,0.3c-0.2-0.2-0.2-0.5-0.2-0.8s0.1-0.6,0.3-0.8c0.2-0.2,0.5-0.3,0.8-0.3c0.3,0,0.6,0,0.7,0c0-0.1,0-0.2,0-0.4
		C44.3,72.9,44.2,72,43.9,71.3z"/>
	<path class="st1" d="M64,77.7l2.1-0.2c0.8,0,1.2,0.4,1.2,1.2c0,0.5-0.1,1.2-0.2,2.2c-0.1,1-0.2,1.8-0.2,2.4
		c-0.3,0.1-1.1,0.3-2.2,0.6c-1.2,0.3-2.1,0.5-2.9,0.5c-1.9,0-3.3-0.6-4.3-1.8c-1-1.2-1.5-2.8-1.5-4.8c0-1.4,0.3-2.8,0.8-4
		c0.5-1.2,1.3-2.2,2.4-2.9c1-0.7,2.2-1.1,3.4-1.1c1.3,0,2.3,0.3,3.2,0.9s1.3,1.4,1.3,2.4c0,0.6-0.2,1-0.5,1.4
		c-0.3,0.4-0.7,0.6-1.2,0.6s-0.9-0.1-1.1-0.2c0-0.2,0.1-0.5,0.1-0.7c0-0.7-0.2-1.3-0.6-1.7c-0.4-0.4-1-0.7-1.7-0.7s-1.4,0.2-2.1,0.7
		c-0.4,0.5-0.7,1.3-0.9,2.2c-0.2,0.9-0.3,1.9-0.3,2.8c0,1.4,0.3,2.6,0.8,3.5s1.4,1.4,2.7,1.4c0.9,0,1.7-0.3,2.5-0.8
		c0.1-0.5,0.1-1.3,0.1-2.2c-0.5,0.2-0.9,0.2-1.2,0.2c-0.7,0-1.1-0.4-1.1-1.2c0-0.3,0.1-0.7,0.2-1.1C63.1,77.6,63.5,77.7,64,77.7z"/>
	<path class="st1" d="M71.2,79.8c0,1,0.2,1.7,0.5,2.3c0.3,0.6,0.8,0.8,1.5,0.8c0.7,0,1.3-0.2,1.7-0.7s0.6-1.1,0.6-1.8
		c0.5,0,0.8,0.1,1.2,0.3s0.5,0.5,0.5,0.9c0,0.8-0.4,1.5-1.3,2.1s-1.8,0.8-2.8,0.8c-1.5,0-2.6-0.4-3.3-1.2c-0.7-0.8-1-2-1-3.6
		s0.5-3,1.4-4.1c0.9-1.1,2.1-1.7,3.6-1.7c1,0,1.9,0.2,2.5,0.7c0.6,0.5,0.9,1.2,0.9,2.2s-0.4,1.7-1.4,2.2c-0.9,0.5-2,0.8-3.3,0.8
		C72.1,79.9,71.7,79.9,71.2,79.8z M71.2,78.2c0.4,0.1,0.8,0.1,1.3,0.1c1,0,1.8-0.2,2.4-0.5C75,77.5,75,77.2,75,77
		c0-0.5-0.2-0.8-0.5-1.1c-0.3-0.2-0.8-0.4-1.4-0.4s-1.1,0.2-1.6,0.6C71.3,76.9,71.2,77.6,71.2,78.2z"/>
	<path class="st1" d="M79.3,69.6c0.4-0.2,0.9-0.2,1.3-0.2c0.5,0,0.8,0.2,1.1,0.5s0.5,0.7,0.5,1.2c0,0.5-0.1,1.5-0.2,3.1
		c-0.1,1.5-0.2,2.8-0.2,3.6c0,2.2,0.2,4.3,0.5,6.4c-0.4,0.2-0.9,0.2-1.4,0.2c-1,0-1.5-0.5-1.5-1.5c0-0.5,0.1-1.4,0.2-2.8
		c0.1-1.4,0.2-2.5,0.2-3.4C79.8,73.8,79.7,71.4,79.3,69.6z"/>
	<path class="st1" d="M90.8,69.6c0.4-0.2,0.9-0.2,1.3-0.2c0.5,0,0.8,0.2,1.1,0.5s0.4,0.7,0.4,1.1c0,0.4-0.1,1.5-0.2,3.2
		c-0.1,1.7-0.2,3.3-0.2,4.9c0,1.6,0.2,3.3,0.5,5.1c-0.5,0.2-1,0.2-1.5,0.2c-0.9,0-1.3-0.6-1.3-1.9c0-0.4,0.1-1.2,0.3-2.2
		c-0.6,1.2-1.1,2.1-1.5,2.6c-0.4,0.6-0.9,1-1.3,1.2c-0.4,0.2-0.8,0.4-1.3,0.4c-1,0-1.8-0.4-2.3-1.1c-0.5-0.7-0.8-1.7-0.8-2.8
		c0-1.1,0.2-2.1,0.6-3.1c0.4-1,1-1.8,1.8-2.4c0.8-0.6,1.6-1,2.5-1c0.9,0,1.7,0.1,2.3,0.4C91.2,72.7,91.1,71.1,90.8,69.6z M91.3,76.2
		c-0.7-0.2-1.4-0.4-2.1-0.4c-0.8,0-1.4,0.2-2,0.7c-0.5,1.1-0.7,2.3-0.7,3.6c0,0.6,0.1,1.2,0.3,1.8s0.5,0.8,0.9,0.8
		c0.6,0,1.3-0.7,2.1-2.1S91,77.8,91.3,76.2z"/>
	<path class="st1" d="M104.9,76.3l-0.2,4.4c0,1.2,0.2,2.4,0.6,3.6c-0.4,0.2-0.8,0.2-1.3,0.2c-1.2,0-1.7-0.6-1.7-1.8
		c0-0.9,0.1-2,0.2-3.2c0.2-1.2,0.2-2,0.2-2.3c0-0.7-0.3-1-0.9-1c-0.7,0-1.4,0.6-2.2,1.9c-0.8,1.2-1.3,2.3-1.4,3.1
		c0,0.4,0.2,1.4,0.4,3c-0.4,0.2-0.9,0.2-1.4,0.2c-1,0-1.5-0.5-1.5-1.5c0-0.5,0.1-1.4,0.2-2.8c0.1-1.4,0.2-2.5,0.2-3.4
		c0-2.8-0.2-5.2-0.5-7c0.4-0.2,0.9-0.2,1.3-0.2s0.8,0.2,1.1,0.5c0.3,0.3,0.4,0.7,0.4,1.2c0,0.5-0.1,1.6-0.2,3.2s-0.2,2.9-0.2,3.8
		c0.5-1,1.1-1.9,2-2.7c0.9-0.8,1.8-1.2,2.7-1.2C104.2,74.1,104.9,74.8,104.9,76.3z"/>
	<path class="st1" d="M111,84.6c-1.5,0-2.5-0.4-3.2-1.3c-0.7-0.9-1-2.1-1-3.6s0.5-2.9,1.4-4c0.9-1.1,2.1-1.7,3.5-1.7
		c3,0,4.4,1.7,4.4,5c0,1.6-0.5,2.9-1.4,4S112.4,84.6,111,84.6z M109.5,76.2c-0.2,0.8-0.4,1.5-0.4,2.3s0,1.4,0.1,1.8s0.2,0.9,0.3,1.3
		c0.3,0.9,0.9,1.3,1.8,1.3c0.9,0,1.5-0.2,1.8-0.7c0.3-0.5,0.4-1.2,0.4-2.2c0-2.8-0.7-4.3-2-4.3C110.8,75.7,110.1,75.8,109.5,76.2z"
		/>
	<path class="st1" d="M118.7,81.1c0-0.2-0.1-1.8-0.2-4.7c-0.7,0-1.2,0.2-1.6,0.3c-0.2-0.3-0.2-0.6-0.2-0.9c0-0.3,0.1-0.6,0.3-0.8
		c0.2-0.2,0.5-0.3,0.8-0.3c0.3,0,0.5,0,0.7,0c0.1-1.5,0.6-2.8,1.5-3.8s2.2-1.6,3.6-1.6c0.8,0,1.5,0.2,2.1,0.5
		c0.6,0.3,0.8,0.9,0.8,1.5c0,0.5-0.2,0.9-0.5,1.2s-0.8,0.5-1.3,0.5c-0.1,0-0.2,0-0.4,0c0-0.2,0.1-0.3,0.1-0.5c0-0.5-0.1-0.8-0.3-1.1
		c-0.2-0.3-0.6-0.4-1.1-0.4s-1,0.1-1.4,0.4c-0.3,0.4-0.5,0.9-0.6,1.5c-0.2,0.6-0.2,1.3-0.2,1.9h0.5c0.9,0,1.9-0.1,3.1-0.4
		c0.2,0.3,0.2,0.6,0.2,1c0,0.4-0.2,0.7-0.5,0.9c-0.3,0.2-0.7,0.4-1.2,0.4c0,0-0.8-0.1-2.3-0.3l0.2,10.4c0,0.9-0.5,1.3-1.5,1.3
		c-0.3,0-0.8-0.1-1.4-0.2C118.4,86.1,118.7,83.9,118.7,81.1z"/>
</g>
<g id="Logo_gitaar_1_" transform="translate(81.232 -56.414)">
	<path id="Path_2_2_" class="st1" d="M-77.5,102.9h3.5c3.7,0.2,5.1,0.6,6.1,1.2c2.7,1.2,4.2,4,3.7,6.9c-0.1,0.8-0.2,1.6-0.4,2.4
		l-0.8,2.4c0,0,0,0,0,0l-0.6,1.6c0,0,0,0,0,0.1l-0.3,1.5c0,0,0,0.1,0,0.1v1.2c0,0.1,0,0.1,0,0.2l0.6,1.5c0,0,0,0,0,0.1l0.4,0.6
		c0,0,0,0,0,0l0.4,0.6c0,0,0,0,0,0.1l0.6,0.6l0.5,0.5l0,0l0.7,0.9c0,0,0,0,0,0l0.6,1l0.6,1.1l0.6,1c0,0,0,0,0,0l0.4,0.8c0,0,0,0,0,0
		l0.3,0.9c0,0,0,0.1,0,0.1l0.2,1.5l0.1,1.2v1.7l-0.1,1v0l-0.1,1c0,0,0,0,0,0l-0.3,1.2c0,0,0,0,0,0.1l-0.4,1.1c0,0,0,0,0,0.1
		l-0.9,1.6c0,0,0,0,0,0.1l-0.3,0.4c0,0,0,0-0.1,0.1l-1.3,1.1c0,0,0,0-0.1,0l-1.4,0.9c0,0,0,0,0,0l-1.1,0.6c0,0,0,0-0.1,0l-1.3,0.4
		c0,0,0,0,0,0l-1.6,0.4c0,0,0,0,0,0l-1.4,0.2h0l-1.4,0.2h-2.1l-1.5-0.1h0l-1.7-0.2"/>
	<path id="Path_3_1_" class="st2" d="M-74.3,109.8v-5.5c0.8-0.1,1.6,0,2.4,0.2c0.7,0.2,1.4,0.6,1.9,1.2c0.7,0.6,0.9,2.7,0.9,2.7
		s0.1,1.2,0.2,2.7s-0.1,2.8,0,4.4c0.1,1.1,0.4,2.2,0.7,3.2l0.9,2c0.4,0.8,0.6,1.6,0.8,2.5c0.2,0.8,0,1.7-0.7,2.3
		c-0.4,0.3-0.8,0.4-1.3,0.4c-0.7-0.1-1.4-0.3-1.9-0.7c-0.3-0.2-0.6-0.3-1-0.3c-0.6-0.1-0.5,0.2-1.5,0.2s-1.1-2-1.1-2l0-2.3v-0.2
		l0-0.3"/>
	<g id="Group_3_1_" transform="translate(226.213 125.351)">
		<path id="Path_4_1_" class="st3" d="M-303.7-15.6c1-0.1,2,0,3,0.3c0.9,0.4,1.7,1,2.2,1.7c0.6,0.8,0.9,1.7,1,2.7
			c0.1,0.9,0,1.9-0.3,2.7c-0.3,0.8-0.8,1.5-1.4,2.1c-0.7,0.7-1.6,1-2.6,1.1c0,0-1.1,0.1-1.9,0"/>
	</g>
	<path id="Path_5_1_" class="st1" d="M-77.5,60.9c0,0,3.1-0.9,4.7,1.2c-0.1,1.1-0.4,2.1-0.8,3.1l-0.5,2.5l-0.4,2.2h-3.1"/>
	<path id="Path_6_1_" class="st1" d="M-74.3,103l-0.2-32.8h-3v32.6"/>
	<path id="Path_7_1_" class="st3" d="M-73.2,64.1h0.2c0.1,0.1,0.3,0.2,0.3,0.4l0.5-0.1c0-0.4,0-0.8-0.2-1.2l-0.5,0.1l-0.1,0.3
		l-0.2,0L-73.2,64.1z"/>
	<path id="Path_8_1_" class="st3" d="M-73.7,66.1h0.3l0-0.2c0.1-0.1,0.3-0.1,0.4,0c0.2,0.1,0.2,0.9,0.2,1s-0.4,0.1-0.4,0.1
		s-0.2-0.4-0.2-0.4l-0.3,0L-73.7,66.1z"/>
	<path id="Path_9_1_" class="st3" d="M-74.2,68.9l0.3,0.1c0.1-0.1,0.2-0.3,0.2-0.4c0.2-0.1,0.5,0,0.7,0.1c0,0.4-0.2,0.8-0.5,1.1
		c-0.2,0-0.4,0-0.5,0l0.1-0.4l-0.3-0.1L-74.2,68.9z"/>
	<path id="Path_10_1_" class="st4" d="M-76.4,102.9h3.5c3.7,0.2,5.1,0.6,6.1,1.2c2.7,1.2,4.2,4,3.7,6.9c-0.1,0.8-0.2,1.6-0.4,2.4
		l-0.8,2.4c0,0,0,0,0,0l-0.6,1.6c0,0,0,0,0,0.1l-0.3,1.5c0,0,0,0.1,0,0.1v1.2c0,0.1,0,0.1,0,0.2l0.6,1.5c0,0,0,0,0,0.1l0.4,0.6
		c0,0,0,0,0,0l0.4,0.6c0,0,0,0,0,0.1l0.6,0.6l0.5,0.5l0,0l0.7,0.9c0,0,0,0,0,0l0.6,1l0.6,1.1l0.6,1c0,0,0,0,0,0l0.4,0.8c0,0,0,0,0,0
		l0.3,0.9c0,0,0,0.1,0,0.1l0.2,1.5l0.1,1.2v1.7l-0.1,1v0l-0.1,1c0,0,0,0,0,0l-0.3,1.2c0,0,0,0,0,0.1L-60,139c0,0,0,0,0,0.1l-0.9,1.6
		c0,0,0,0,0,0.1l-0.3,0.4c0,0,0,0-0.1,0.1l-1.3,1.1c0,0,0,0-0.1,0l-1.4,0.9c0,0,0,0,0,0l-1.1,0.6c0,0,0,0-0.1,0l-1.3,0.4
		c0,0,0,0,0,0l-1.6,0.4c0,0,0,0,0,0l-1.4,0.2h0l-1.4,0.2h-2.1l-1.5-0.1h0l-1.7-0.2"/>
</g>
</svg>
