<?xml version="1.0" encoding="UTF-8"?>
<svg enable-background="new 0 0 289.9 114.8" version="1.1" viewBox="0 0 289.9 114.8" xml:space="preserve"
	xmlns="http://www.w3.org/2000/svg">
	<style type="text/css">
		.st0 {
			fill: #408AC9;
		}

		.st1 {
			fill: #020203;
		}

		.st2 {
			fill: #FFFFFF;
		}

		.st3 {
			fill: #CDCCCC;
		}

		.st4 {
			fill: none;
		}
	</style>
	<g transform="translate(-5)">


		<path class="st0"
			d="m13.1 97.6v6.9c0 0.8-0.2 1.5-0.5 2.1s-0.8 1-1.5 1.4c-0.6 0.3-1.4 0.5-2.3 0.5-1.3 0-2.4-0.4-3.1-1.1s-1.1-1.7-1.1-2.9v-6.9h1.8v6.8c0 0.9 0.2 1.5 0.6 2s1 0.6 1.9 0.6c1.7 0 2.5-0.9 2.5-2.6v-6.8h1.7z" />
		<path class="st0"
			d="m17.3 104.1 1-1.2 2.4-2.6h2l-3.3 3.5 3.5 4.6h-2l-2.6-3.6-0.9 0.8v2.8h-1.7v-11.5h1.7v5.6l-0.1 1.6z" />
		<path class="st0"
			d="m27.8 108.5c-1.3 0-2.2-0.4-3-1.1-0.7-0.7-1.1-1.7-1.1-3s0.3-2.4 1-3.1 1.6-1.1 2.7-1.1 1.9 0.3 2.5 1 0.9 1.5 0.9 2.7v0.9h-5.4c0 0.8 0.2 1.4 0.6 1.8s1 0.6 1.7 0.6c0.5 0 0.9 0 1.3-0.1s0.9-0.2 1.3-0.5v1.4c-0.4 0.2-0.8 0.3-1.3 0.4-0.2 0-0.7 0.1-1.2 0.1zm-0.4-7.1c-0.5 0-1 0.2-1.3 0.5s-0.5 0.9-0.6 1.5h3.7c0-0.7-0.2-1.2-0.5-1.5s-0.7-0.5-1.3-0.5z" />
		<path class="st0" d="m34.6 108.3h-1.7v-11.4h1.7v11.4z" />
		<path class="st0"
			d="m40.6 108.5c-1.3 0-2.2-0.4-3-1.1-0.7-0.7-1.1-1.7-1.1-3s0.3-2.4 1-3.1 1.6-1.1 2.7-1.1 1.9 0.3 2.5 1 0.9 1.5 0.9 2.7v0.9h-5.4c0 0.8 0.2 1.4 0.6 1.8s1 0.6 1.7 0.6c0.5 0 0.9 0 1.3-0.1s0.9-0.2 1.3-0.5v1.4c-0.4 0.2-0.8 0.3-1.3 0.4-0.2 0-0.7 0.1-1.2 0.1zm-0.3-7.1c-0.5 0-1 0.2-1.3 0.5s-0.5 0.9-0.6 1.5h3.6c0-0.7-0.2-1.2-0.5-1.5s-0.7-0.5-1.2-0.5z" />
		<path class="st0" d="m47.4 108.3h-1.7v-11.4h1.7v11.4z" />
		<path class="st0"
			d="m53.4 108.5c-1.3 0-2.2-0.4-3-1.1-0.7-0.7-1.1-1.7-1.1-3s0.3-2.4 1-3.1 1.6-1.1 2.7-1.1 1.9 0.3 2.5 1 0.9 1.5 0.9 2.7v0.9h-5.4c0 0.8 0.2 1.4 0.6 1.8s1 0.6 1.7 0.6c0.5 0 0.9 0 1.3-0.1s0.9-0.2 1.3-0.5v1.4c-0.4 0.2-0.8 0.3-1.3 0.4-0.2 0-0.6 0.1-1.2 0.1zm-0.3-7.1c-0.5 0-1 0.2-1.3 0.5s-0.5 0.9-0.6 1.5h3.7c0-0.7-0.2-1.2-0.5-1.5s-0.8-0.5-1.3-0.5z" />
		<path class="st0" d="m60.2 108.3h-1.7v-11.4h1.7v11.4z" />
		<path class="st0"
			d="m66.2 108.5c-1.3 0-2.2-0.4-3-1.1-0.7-0.7-1.1-1.7-1.1-3s0.3-2.4 1-3.1 1.6-1.1 2.7-1.1 1.9 0.3 2.5 1 0.9 1.5 0.9 2.7v0.9h-5.2c0 0.8 0.2 1.4 0.6 1.8s1 0.6 1.7 0.6c0.5 0 0.9 0 1.3-0.1s0.9-0.2 1.3-0.5v1.4c-0.4 0.2-0.8 0.3-1.3 0.4-0.3 0-0.8 0.1-1.4 0.1zm-0.3-7.1c-0.5 0-1 0.2-1.3 0.5s-0.5 0.9-0.6 1.5h3.7c0-0.7-0.2-1.2-0.5-1.5s-0.7-0.5-1.3-0.5z" />
		<path class="st0"
			d="m76.8 106c0 0.8-0.3 1.4-0.9 1.8s-1.4 0.6-2.5 0.6-1.9-0.2-2.6-0.5v-1.5c1 0.4 1.8 0.7 2.7 0.7 1.1 0 1.6-0.3 1.6-1 0-0.2-0.1-0.4-0.2-0.5s-0.3-0.3-0.6-0.4-0.6-0.3-1.1-0.5c-0.9-0.4-1.6-0.7-1.9-1.1s-0.5-0.8-0.5-1.4c0-0.7 0.3-1.2 0.8-1.6 0.6-0.4 1.3-0.6 2.3-0.6s1.9 0.2 2.7 0.6l-0.6 1.3c-0.9-0.4-1.6-0.5-2.2-0.5-0.9 0-1.4 0.3-1.4 0.8 0 0.3 0.1 0.5 0.4 0.6 0.2 0.2 0.8 0.4 1.5 0.7s1.2 0.5 1.5 0.7 0.5 0.5 0.7 0.7c0.2 0.4 0.3 0.7 0.3 1.1z" />
		<path class="st0" d="m80.4 106.8c-0.2 0.9-0.7 2.1-1.3 3.5h-1.3c0.3-1.3 0.6-2.5 0.8-3.7h1.7l0.1 0.2z" />
		<path class="st0"
			d="m93.4 100.2v0.9l-1.4 0.3 0.3 0.6s0.1 0.5 0.1 0.8c0 0.8-0.3 1.5-0.9 2s-1.4 0.7-2.4 0.7c-0.3 0-0.5 0-0.7-0.1-0.4 0.2-0.6 0.5-0.6 0.8 0 0.2 0.1 0.3 0.3 0.4s0.5 0.1 1 0.1h1.4c0.9 0 1.6 0.2 2 0.6s0.7 0.9 0.7 1.6c0 0.9-0.4 1.6-1.1 2.1s-1.9 0.7-3.3 0.7c-1.1 0-1.9-0.2-2.5-0.6s-0.9-0.9-0.9-1.7c0-0.5 0.2-0.9 0.5-1.3 0.3-0.3 0.8-0.6 1.3-0.7-0.2-0.1-0.4-0.3-0.6-0.5-0.1-0.2-0.2-0.4-0.2-0.7s0.1-0.6 0.3-0.8 0.4-0.4 0.8-0.6c-0.4-0.2-0.8-0.5-1-0.9-0.3-0.4-0.4-0.9-0.4-1.4 0-0.9 0.3-1.6 0.8-2 0.6-0.5 1.3-0.7 2.4-0.7h0.7c0.3 0 0.4 0.1 0.6 0.1h2.8zm-6.4 9.4c0 0.4 0.2 0.7 0.5 0.9s0.8 0.3 1.4 0.3c0.9 0 1.6-0.1 2.1-0.4s0.7-0.6 0.7-1.1c0-0.4-0.1-0.6-0.4-0.8-0.3-0.1-0.7-0.2-1.4-0.2h-1.3c-0.5 0-0.9 0.1-1.2 0.3-0.2 0.3-0.4 0.6-0.4 1zm0.8-6.7c0 0.5 0.1 0.9 0.4 1.2s0.6 0.4 1.1 0.4c1 0 1.5-0.5 1.5-1.6 0-0.5-0.1-0.9-0.4-1.2-0.2-0.3-0.6-0.4-1.1-0.4s-0.9 0.1-1.1 0.4c-0.3 0.2-0.4 0.6-0.4 1.2z" />
		<path class="st0"
			d="m94.8 98.1c0-0.3 0.1-0.5 0.3-0.7s0.4-0.2 0.7-0.2 0.5 0.1 0.7 0.2c0.2 0.2 0.3 0.4 0.3 0.7s-0.1 0.5-0.3 0.7-0.4 0.2-0.8 0.2c-0.3 0-0.6-0.1-0.7-0.3-0.1-0.1-0.2-0.3-0.2-0.6zm1.8 10.2h-1.7v-8.1h1.7v8.1z" />
		<path class="st0"
			d="m102.1 107.1c0.4 0 0.8-0.1 1.3-0.2v1.3c-0.2 0.1-0.4 0.2-0.7 0.2-0.3 0.1-0.6 0.1-0.9 0.1-1.6 0-2.4-0.9-2.4-2.6v-4.4h-1.1v-0.8l1.2-0.6 0.6-1.7h1.1v1.8h2.3v1.3h-2.3v4.3c0 0.4 0.1 0.7 0.3 0.9 0 0.3 0.2 0.4 0.6 0.4z" />
		<path class="st0"
			d="m110 108.3-0.3-1.1h-0.1c-0.4 0.5-0.8 0.8-1.2 1s-0.9 0.3-1.5 0.3c-0.8 0-1.4-0.2-1.9-0.6-0.4-0.4-0.7-1-0.7-1.8s0.3-1.5 0.9-1.9 1.6-0.7 2.8-0.7h1.4v-0.5c0-0.5-0.1-0.9-0.4-1.2-0.2-0.3-0.6-0.4-1.1-0.4-0.4 0-0.8 0.1-1.2 0.2s-0.7 0.3-1.1 0.4l-0.6-1.2c0.4-0.2 0.9-0.4 1.4-0.5s1-0.2 1.5-0.2c1 0 1.8 0.2 2.3 0.7 0.5 0.4 0.8 1.2 0.8 2.1v5.5h-1zm-2.5-1.1c0.6 0 1.1-0.2 1.5-0.5s0.6-0.8 0.6-1.5v-0.7h-1c-0.8 0-1.4 0.2-1.8 0.4s-0.6 0.6-0.6 1.1c0 0.4 0.1 0.6 0.3 0.8 0.2 0.3 0.5 0.4 1 0.4z" />
		<path class="st0"
			d="m118.7 108.3-0.3-1.1h-0.1c-0.4 0.5-0.8 0.8-1.2 1s-0.9 0.3-1.5 0.3c-0.8 0-1.4-0.2-1.9-0.6-0.4-0.4-0.7-1-0.7-1.8s0.3-1.5 0.9-1.9 1.6-0.7 2.8-0.7h1.4v-0.5c0-0.5-0.1-0.9-0.4-1.2-0.2-0.3-0.6-0.4-1.1-0.4-0.4 0-0.8 0.1-1.2 0.2s-0.7 0.3-1.1 0.4l-0.6-1.2c0.4-0.2 0.9-0.4 1.4-0.5s1-0.2 1.5-0.2c1 0 1.8 0.2 2.3 0.7 0.5 0.4 0.8 1.2 0.8 2.1v5.5h-1zm-2.5-1.1c0.6 0 1.1-0.2 1.5-0.5s0.6-0.8 0.6-1.5v-0.7h-1c-0.8 0-1.4 0.2-1.8 0.4s-0.6 0.6-0.6 1.1c0 0.4 0.1 0.6 0.3 0.8 0.2 0.3 0.5 0.4 1 0.4z" />
		<path class="st0"
			d="m126.5 100.1c0.3 0 0.6 0 0.9 0.1l-0.2 1.6c-0.2-0.1-0.5-0.1-0.8-0.1-0.7 0-1.2 0.2-1.7 0.7-0.4 0.5-0.6 1-0.6 1.8v4.2h-1.7v-8.1h1.3l0.2 1.4h0.1c0.3-0.5 0.6-0.9 1.1-1.2 0.4-0.3 0.9-0.4 1.4-0.4z" />
		<path class="st0" d="m130.5 108.3h-1.7v-11.4h1.7v11.4z" />
		<path class="st0"
			d="m136.5 108.5c-1.3 0-2.2-0.4-3-1.1-0.7-0.7-1.1-1.7-1.1-3s0.3-2.4 1-3.1 1.6-1.1 2.7-1.1 1.9 0.3 2.5 1 0.9 1.5 0.9 2.7v0.9h-5.4c0 0.8 0.2 1.4 0.6 1.8s1 0.6 1.7 0.6c0.5 0 0.9 0 1.3-0.1s0.9-0.2 1.3-0.5v1.4c-0.4 0.2-0.8 0.3-1.3 0.4-0.1 0-0.6 0.1-1.2 0.1zm-0.3-7.1c-0.5 0-1 0.2-1.3 0.5s-0.5 0.9-0.6 1.5h3.7c0-0.7-0.2-1.2-0.5-1.5s-0.7-0.5-1.3-0.5z" />
		<path class="st0"
			d="m147.1 106c0 0.8-0.3 1.4-0.9 1.8s-1.4 0.6-2.5 0.6-1.9-0.2-2.6-0.5v-1.5c1 0.4 1.8 0.7 2.7 0.7 1.1 0 1.6-0.3 1.6-1 0-0.2-0.1-0.4-0.2-0.5s-0.3-0.3-0.6-0.4-0.6-0.3-1.1-0.5c-0.9-0.4-1.6-0.7-1.9-1.1s-0.5-0.8-0.5-1.4c0-0.7 0.3-1.2 0.8-1.6 0.6-0.4 1.3-0.6 2.3-0.6s1.9 0.2 2.7 0.6l-0.6 1.3c-0.9-0.4-1.6-0.5-2.2-0.5-0.9 0-1.4 0.3-1.4 0.8 0 0.3 0.1 0.5 0.4 0.6 0.2 0.2 0.8 0.4 1.5 0.7s1.2 0.5 1.5 0.7 0.5 0.5 0.7 0.7c0.2 0.4 0.3 0.7 0.3 1.1z" />
		<path class="st0"
			d="m156.4 108.5c-1.3 0-2.2-0.4-3-1.1-0.7-0.7-1.1-1.7-1.1-3s0.3-2.4 1-3.1 1.6-1.1 2.7-1.1 1.9 0.3 2.5 1 0.9 1.5 0.9 2.7v0.9h-5.4c0 0.8 0.2 1.4 0.6 1.8s1 0.6 1.7 0.6c0.5 0 0.9 0 1.3-0.1s0.9-0.2 1.3-0.5v1.4c-0.4 0.2-0.8 0.3-1.3 0.4-0.2 0-0.7 0.1-1.2 0.1zm-0.3-7.1c-0.5 0-1 0.2-1.3 0.5s-0.5 0.9-0.6 1.5h3.7c0-0.7-0.2-1.2-0.5-1.5-0.4-0.3-0.8-0.5-1.3-0.5z" />
		<path class="st0"
			d="m168.6 108.3h-1.7v-5c0-0.6-0.1-1.1-0.4-1.4s-0.7-0.5-1.2-0.5c-0.7 0-1.3 0.2-1.6 0.6s-0.5 1.1-0.5 2.2v4h-1.7v-8.1h1.3l0.2 1.1h0.1c0.2-0.4 0.6-0.7 1-0.9s0.9-0.3 1.5-0.3c1.9 0 2.9 1 2.9 3v5.3z" />
		<path class="st0"
			d="m181.7 100.2v0.9l-1.4 0.3 0.3 0.6s0.1 0.5 0.1 0.8c0 0.8-0.3 1.5-0.9 2s-1.4 0.7-2.4 0.7c-0.3 0-0.5 0-0.7-0.1-0.4 0.2-0.6 0.5-0.6 0.8 0 0.2 0.1 0.3 0.3 0.4s0.5 0.1 1 0.1h1.4c0.9 0 1.6 0.2 2 0.6s0.7 0.9 0.7 1.6c0 0.9-0.4 1.6-1.1 2.1s-1.9 0.7-3.3 0.7c-1.1 0-1.9-0.2-2.5-0.6s-0.9-0.9-0.9-1.7c0-0.5 0.2-0.9 0.5-1.3 0.3-0.3 0.8-0.6 1.3-0.7-0.2-0.1-0.4-0.3-0.6-0.5-0.1-0.2-0.2-0.4-0.2-0.7s0.1-0.6 0.3-0.8 0.4-0.4 0.8-0.6c-0.4-0.2-0.8-0.5-1-0.9-0.3-0.4-0.4-0.9-0.4-1.4 0-0.9 0.3-1.6 0.8-2 0.6-0.5 1.3-0.7 2.4-0.7h0.7c0.3 0 0.4 0.1 0.6 0.1h2.8zm-6.3 9.4c0 0.4 0.2 0.7 0.5 0.9s0.8 0.3 1.4 0.3c0.9 0 1.6-0.1 2.1-0.4s0.7-0.6 0.7-1.1c0-0.4-0.1-0.6-0.4-0.8-0.3-0.1-0.7-0.2-1.4-0.2h-1.3c-0.5 0-0.9 0.1-1.2 0.3-0.3 0.3-0.4 0.6-0.4 1zm0.7-6.7c0 0.5 0.1 0.9 0.4 1.2s0.6 0.4 1.1 0.4c1 0 1.5-0.5 1.5-1.6 0-0.5-0.1-0.9-0.4-1.2-0.2-0.3-0.6-0.4-1.1-0.4s-0.9 0.1-1.1 0.4c-0.2 0.2-0.4 0.6-0.4 1.2z" />
		<path class="st0"
			d="m183.1 98.1c0-0.3 0.1-0.5 0.3-0.7s0.4-0.2 0.7-0.2 0.5 0.1 0.7 0.2c0.2 0.2 0.3 0.4 0.3 0.7s-0.1 0.5-0.3 0.7-0.4 0.3-0.7 0.3-0.6-0.1-0.7-0.3c-0.2-0.2-0.3-0.4-0.3-0.7zm1.9 10.2h-1.7v-8.1h1.7v8.1z" />
		<path class="st0"
			d="m190.5 107.1c0.4 0 0.8-0.1 1.3-0.2v1.3c-0.2 0.1-0.4 0.2-0.7 0.2-0.3 0.1-0.6 0.1-0.9 0.1-1.6 0-2.4-0.9-2.4-2.6v-4.4h-1.1v-0.8l1.2-0.6 0.6-1.7h1.1v1.8h2.3v1.3h-2.3v4.3c0 0.4 0.1 0.7 0.3 0.9-0.1 0.3 0.2 0.4 0.6 0.4z" />
		<path class="st0"
			d="m198.4 108.3-0.3-1.1h-0.1c-0.4 0.5-0.8 0.8-1.2 1s-0.9 0.3-1.5 0.3c-0.8 0-1.4-0.2-1.9-0.6-0.4-0.4-0.7-1-0.7-1.8s0.3-1.5 0.9-1.9 1.6-0.7 2.8-0.7h1.4v-0.5c0-0.5-0.1-0.9-0.4-1.2-0.2-0.3-0.6-0.4-1.1-0.4-0.4 0-0.8 0.1-1.2 0.2s-0.7 0.3-1.1 0.4l-0.6-1.2c0.4-0.2 0.9-0.4 1.4-0.5s1-0.2 1.5-0.2c1 0 1.8 0.2 2.3 0.7 0.5 0.4 0.8 1.2 0.8 2.1v5.5h-1zm-2.6-1.1c0.6 0 1.1-0.2 1.5-0.5s0.6-0.8 0.6-1.5v-0.7h-1c-0.8 0-1.4 0.2-1.8 0.4s-0.6 0.6-0.6 1.1c0 0.4 0.1 0.6 0.3 0.8 0.3 0.3 0.6 0.4 1 0.4z" />
		<path class="st0"
			d="m207.1 108.3-0.3-1.1h-0.1c-0.4 0.5-0.8 0.8-1.2 1s-0.9 0.3-1.5 0.3c-0.8 0-1.4-0.2-1.9-0.6-0.4-0.4-0.7-1-0.7-1.8s0.3-1.5 0.9-1.9 1.6-0.7 2.8-0.7h1.4v-0.5c0-0.5-0.1-0.9-0.4-1.2-0.2-0.3-0.6-0.4-1.1-0.4-0.4 0-0.8 0.1-1.2 0.2s-0.7 0.3-1.1 0.4l-0.6-1.2c0.4-0.2 0.9-0.4 1.4-0.5s1-0.2 1.5-0.2c1 0 1.8 0.2 2.3 0.7 0.5 0.4 0.8 1.2 0.8 2.1v5.5h-1zm-2.6-1.1c0.6 0 1.1-0.2 1.5-0.5s0.6-0.8 0.6-1.5v-0.7h-1c-0.8 0-1.4 0.2-1.8 0.4s-0.6 0.6-0.6 1.1c0 0.4 0.1 0.6 0.3 0.8 0.3 0.3 0.6 0.4 1 0.4z" />
		<path class="st0"
			d="m214.8 100.1c0.3 0 0.6 0 0.9 0.1l-0.2 1.6c-0.2-0.1-0.5-0.1-0.8-0.1-0.7 0-1.2 0.2-1.7 0.7-0.4 0.5-0.6 1-0.6 1.8v4.2h-1.7v-8.1h1.3l0.2 1.4h0.1c0.3-0.5 0.6-0.9 1.1-1.2s0.9-0.4 1.4-0.4z" />
		<path class="st0"
			d="m225.2 100.1c0.3 0 0.6 0 0.9 0.1l-0.2 1.6c-0.2-0.1-0.5-0.1-0.8-0.1-0.7 0-1.2 0.2-1.7 0.7-0.4 0.5-0.6 1-0.6 1.8v4.2h-1.7v-8.1h1.3l0.2 1.4h0.1c0.3-0.5 0.6-0.9 1.1-1.2 0.4-0.3 0.9-0.4 1.4-0.4z" />
		<path class="st0"
			d="m231.1 108.5c-1.3 0-2.2-0.4-3-1.1-0.7-0.7-1.1-1.7-1.1-3s0.3-2.4 1-3.1 1.6-1.1 2.7-1.1 1.9 0.3 2.5 1 0.9 1.5 0.9 2.7v0.9h-5.4c0 0.8 0.2 1.4 0.6 1.8s1 0.6 1.7 0.6c0.5 0 0.9 0 1.3-0.1s0.9-0.2 1.3-0.5v1.4c-0.4 0.2-0.8 0.3-1.3 0.4-0.2 0-0.6 0.1-1.2 0.1zm-0.3-7.1c-0.5 0-1 0.2-1.3 0.5s-0.5 0.9-0.6 1.5h3.7c0-0.7-0.2-1.2-0.5-1.5s-0.8-0.5-1.3-0.5z" />
		<path class="st0"
			d="m240.3 108.5c-1 0-1.8-0.4-2.4-1.1h-0.1c0.1 0.7 0.1 1.1 0.1 1.2v3.3h-1.7v-11.7h1.4c0 0.2 0.1 0.5 0.2 1.1h0.1c0.5-0.8 1.3-1.2 2.4-1.2 1 0 1.8 0.4 2.4 1.1s0.8 1.8 0.8 3.1-0.3 2.4-0.9 3.1-1.3 1.1-2.3 1.1zm-0.4-7c-0.7 0-1.2 0.2-1.5 0.6s-0.5 1-0.5 1.9v0.3c0 1 0.2 1.7 0.5 2.1s0.8 0.7 1.5 0.7c0.6 0 1.1-0.2 1.4-0.7s0.5-1.2 0.5-2.1-0.2-1.6-0.5-2.1-0.8-0.7-1.4-0.7z" />
		<path class="st0"
			d="m250.6 108.3-0.3-1.1h-0.1c-0.4 0.5-0.8 0.8-1.2 1s-0.9 0.3-1.5 0.3c-0.8 0-1.4-0.2-1.9-0.6-0.4-0.4-0.7-1-0.7-1.8s0.3-1.5 0.9-1.9 1.6-0.7 2.8-0.7h1.4v-0.5c0-0.5-0.1-0.9-0.4-1.2-0.2-0.3-0.6-0.4-1.1-0.4-0.4 0-0.8 0.1-1.2 0.2s-0.7 0.3-1.1 0.4l-0.6-1.2c0.4-0.2 0.9-0.4 1.4-0.5s1-0.2 1.5-0.2c1 0 1.8 0.2 2.3 0.7 0.5 0.4 0.8 1.2 0.8 2.1v5.5h-1zm-2.5-1.1c0.6 0 1.1-0.2 1.5-0.5s0.6-0.8 0.6-1.5v-0.7h-1c-0.8 0-1.4 0.2-1.8 0.4s-0.6 0.6-0.6 1.1c0 0.4 0.1 0.6 0.3 0.8 0.2 0.3 0.5 0.4 1 0.4z" />
		<path class="st0"
			d="m258.4 100.1c0.3 0 0.6 0 0.9 0.1l-0.2 1.6c-0.2-0.1-0.5-0.1-0.8-0.1-0.7 0-1.2 0.2-1.7 0.7-0.4 0.5-0.6 1-0.6 1.8v4.2h-1.7v-8.1h1.3l0.2 1.4h0.1c0.3-0.5 0.6-0.9 1.1-1.2 0.4-0.3 0.9-0.4 1.4-0.4z" />
		<path class="st0"
			d="m265.8 108.3-0.3-1.1h-0.1c-0.4 0.5-0.8 0.8-1.2 1s-0.9 0.3-1.5 0.3c-0.8 0-1.4-0.2-1.9-0.6-0.4-0.4-0.7-1-0.7-1.8s0.3-1.5 0.9-1.9 1.6-0.7 2.8-0.7h1.4v-0.5c0-0.5-0.1-0.9-0.4-1.2-0.2-0.3-0.6-0.4-1.1-0.4-0.4 0-0.8 0.1-1.2 0.2s-0.7 0.3-1.1 0.4l-0.6-1.2c0.4-0.2 0.9-0.4 1.4-0.5s1-0.2 1.5-0.2c1 0 1.8 0.2 2.3 0.7 0.5 0.4 0.8 1.2 0.8 2.1v5.5h-1zm-2.6-1.1c0.6 0 1.1-0.2 1.5-0.5s0.6-0.8 0.6-1.5v-0.7h-1c-0.8 0-1.4 0.2-1.8 0.4s-0.6 0.6-0.6 1.1c0 0.4 0.1 0.6 0.3 0.8 0.3 0.3 0.6 0.4 1 0.4z" />
		<path class="st0"
			d="m272.4 107.1c0.4 0 0.8-0.1 1.3-0.2v1.3c-0.2 0.1-0.4 0.2-0.7 0.2-0.3 0.1-0.6 0.1-0.9 0.1-1.6 0-2.4-0.9-2.4-2.6v-4.4h-1.1v-0.8l1.2-0.6 0.6-1.7h1.1v1.8h2.3v1.3h-2.3v4.3c0 0.4 0.1 0.7 0.3 0.9 0 0.3 0.3 0.4 0.6 0.4z" />
		<path class="st0"
			d="m275.2 98.1c0-0.3 0.1-0.5 0.3-0.7s0.4-0.2 0.7-0.2 0.5 0.1 0.7 0.2c0.2 0.2 0.3 0.4 0.3 0.7s-0.1 0.5-0.3 0.7-0.4 0.3-0.7 0.3-0.6-0.1-0.7-0.3c-0.2-0.2-0.3-0.4-0.3-0.7zm1.8 10.2h-1.7v-8.1h1.7v8.1z" />
		<path class="st0"
			d="m283 108.5c-1.3 0-2.2-0.4-3-1.1-0.7-0.7-1.1-1.7-1.1-3s0.3-2.4 1-3.1 1.6-1.1 2.7-1.1 1.9 0.3 2.5 1 0.9 1.5 0.9 2.7v0.9h-5.4c0 0.8 0.2 1.4 0.6 1.8s1 0.6 1.7 0.6c0.5 0 0.9 0 1.3-0.1s0.9-0.2 1.3-0.5v1.4c-0.4 0.2-0.8 0.3-1.3 0.4-0.1 0-0.6 0.1-1.2 0.1zm-0.3-7.1c-0.5 0-1 0.2-1.3 0.5s-0.5 0.9-0.6 1.5h3.7c0-0.7-0.2-1.2-0.5-1.5s-0.7-0.5-1.3-0.5z" />



		<path class="st1"
			d="m26.1 79.8c0 1 0.2 1.7 0.5 2.3s0.8 0.8 1.5 0.8 1.3-0.2 1.7-0.7 0.6-1.1 0.6-1.8c0.5 0 0.8 0.1 1.2 0.3s0.5 0.5 0.5 0.9c0 0.8-0.4 1.5-1.3 2.1s-1.8 0.9-2.8 0.9c-1.5 0-2.6-0.4-3.3-1.2s-1-2-1-3.6 0.5-3 1.4-4.1 2.1-1.7 3.6-1.7c1 0 1.9 0.2 2.5 0.7s0.9 1.2 0.9 2.2-0.4 1.7-1.4 2.2c-0.9 0.5-2 0.8-3.3 0.8-0.4 0-0.8 0-1.3-0.1zm0-1.6c0.4 0.1 0.8 0.1 1.3 0.1 1 0 1.8-0.2 2.4-0.5 0.1-0.3 0.1-0.6 0.1-0.8 0-0.5-0.2-0.8-0.5-1.1-0.3-0.2-0.8-0.4-1.4-0.4s-1.1 0.2-1.6 0.6c-0.2 0.8-0.3 1.5-0.3 2.1z" />
		<path class="st1"
			d="m35.6 84.3c-0.5 0-0.8-0.1-1.1-0.3s-0.4-0.5-0.4-0.9 0.1-1.1 0.2-2.2c0.1-1 0.2-2 0.2-3s-0.2-2.1-0.5-3.5c0.4-0.2 0.8-0.2 1.3-0.2 0.4 0 0.8 0.1 1.1 0.4s0.4 0.7 0.4 1.1c0 0.2 0 0.6-0.1 1.1s-0.1 0.8-0.1 1.1c0.5-1.2 1.1-2.1 1.9-2.8 0.7-0.7 1.4-1 2.1-1 0.5 0 0.9 0.2 1.2 0.5s0.4 0.8 0.4 1.3-0.1 1-0.4 1.3-0.6 0.5-1 0.5-0.7 0-1-0.1c0-0.2 0.1-0.3 0.1-0.4 0-0.5-0.2-0.8-0.6-0.8-0.6 0-1.1 0.6-1.6 1.8s-0.9 2.3-1 3.3c0.1 1 0.2 1.9 0.4 2.7-0.6 0.1-1 0.1-1.5 0.1z" />
		<path class="st1"
			d="m43.9 71.3c0.4-0.2 0.9-0.3 1.3-0.3s0.8 0.1 1.1 0.4 0.4 0.7 0.4 1.2 0 1.2-0.1 1.9c1 0 2-0.1 2.9-0.4 0.2 0.3 0.2 0.6 0.2 0.9s-0.2 0.6-0.5 0.9c-0.3 0.2-0.6 0.3-0.9 0.3s-0.7 0-1.1-0.1-0.7-0.1-0.8-0.1c0 0.1 0 0.4-0.1 0.7-0.1 0.4-0.1 0.7-0.1 0.9-0.1 0.7-0.2 1.5-0.2 2.4 0 1.8 0.6 2.7 1.8 2.7 0.4 0 0.9-0.2 1.5-0.5 0.2 0.3 0.3 0.6 0.3 1s-0.2 0.7-0.6 0.9-1 0.3-1.6 0.3c-2.3 0-3.5-1.3-3.5-4 0-0.4 0.1-1.1 0.2-2.1s0.2-1.8 0.2-2.5c-0.6 0-1.2 0.2-1.5 0.3-0.2-0.2-0.2-0.5-0.2-0.8s0.1-0.6 0.3-0.8 0.5-0.3 0.8-0.3h0.7v-0.4c-0.1-0.9-0.2-1.8-0.5-2.5z" />
		<path class="st1"
			d="m64 77.7 2.1-0.2c0.8 0 1.2 0.4 1.2 1.2 0 0.5-0.1 1.2-0.2 2.2s-0.2 1.8-0.2 2.4c-0.3 0.1-1.1 0.3-2.2 0.6-1.2 0.3-2.1 0.5-2.9 0.5-1.9 0-3.3-0.6-4.3-1.8s-1.5-2.8-1.5-4.8c0-1.4 0.3-2.8 0.8-4s1.3-2.2 2.4-2.9c1-0.7 2.2-1.1 3.4-1.1 1.3 0 2.3 0.3 3.2 0.9s1.3 1.4 1.3 2.4c0 0.6-0.2 1-0.5 1.4s-0.7 0.6-1.2 0.6-0.9-0.1-1.1-0.2c0-0.2 0.1-0.5 0.1-0.7 0-0.7-0.2-1.3-0.6-1.7s-1-0.7-1.7-0.7-1.4 0.2-2.1 0.7c-0.4 0.5-0.7 1.3-0.9 2.2s-0.3 1.9-0.3 2.8c0 1.4 0.3 2.6 0.8 3.5s1.4 1.4 2.7 1.4c0.9 0 1.7-0.3 2.5-0.8 0.1-0.5 0.1-1.3 0.1-2.2-0.5 0.2-0.9 0.2-1.2 0.2-0.7 0-1.1-0.4-1.1-1.2 0-0.3 0.1-0.7 0.2-1.1 0.3 0.3 0.7 0.4 1.2 0.4z" />
		<path class="st1"
			d="m71.2 79.8c0 1 0.2 1.7 0.5 2.3s0.8 0.8 1.5 0.8 1.3-0.2 1.7-0.7 0.6-1.1 0.6-1.8c0.5 0 0.8 0.1 1.2 0.3s0.5 0.5 0.5 0.9c0 0.8-0.4 1.5-1.3 2.1s-1.8 0.8-2.8 0.8c-1.5 0-2.6-0.4-3.3-1.2s-1-2-1-3.6 0.5-3 1.4-4.1 2.1-1.7 3.6-1.7c1 0 1.9 0.2 2.5 0.7s0.9 1.2 0.9 2.2-0.4 1.7-1.4 2.2c-0.9 0.5-2 0.8-3.3 0.8-0.4 0.1-0.8 0.1-1.3 0zm0-1.6c0.4 0.1 0.8 0.1 1.3 0.1 1 0 1.8-0.2 2.4-0.5 0.1-0.3 0.1-0.6 0.1-0.8 0-0.5-0.2-0.8-0.5-1.1-0.3-0.2-0.8-0.4-1.4-0.4s-1.1 0.2-1.6 0.6c-0.2 0.8-0.3 1.5-0.3 2.1z" />
		<path class="st1"
			d="m79.3 69.6c0.4-0.2 0.9-0.2 1.3-0.2 0.5 0 0.8 0.2 1.1 0.5s0.5 0.7 0.5 1.2-0.1 1.5-0.2 3.1c-0.1 1.5-0.2 2.8-0.2 3.6 0 2.2 0.2 4.3 0.5 6.4-0.4 0.2-0.9 0.2-1.4 0.2-1 0-1.5-0.5-1.5-1.5 0-0.5 0.1-1.4 0.2-2.8s0.2-2.5 0.2-3.4c0-2.9-0.1-5.3-0.5-7.1z" />
		<path class="st1"
			d="m90.8 69.6c0.4-0.2 0.9-0.2 1.3-0.2 0.5 0 0.8 0.2 1.1 0.5s0.4 0.7 0.4 1.1-0.1 1.5-0.2 3.2-0.2 3.3-0.2 4.9 0.2 3.3 0.5 5.1c-0.5 0.2-1 0.2-1.5 0.2-0.9 0-1.3-0.6-1.3-1.9 0-0.4 0.1-1.2 0.3-2.2-0.6 1.2-1.1 2.1-1.5 2.6-0.4 0.6-0.9 1-1.3 1.2s-0.8 0.4-1.3 0.4c-1 0-1.8-0.4-2.3-1.1s-0.8-1.7-0.8-2.8 0.2-2.1 0.6-3.1 1-1.8 1.8-2.4 1.6-1 2.5-1 1.7 0.1 2.3 0.4c0-1.8-0.1-3.4-0.4-4.9zm0.5 6.6c-0.7-0.2-1.4-0.4-2.1-0.4-0.8 0-1.4 0.2-2 0.7-0.5 1.1-0.7 2.3-0.7 3.6 0 0.6 0.1 1.2 0.3 1.8s0.5 0.8 0.9 0.8c0.6 0 1.3-0.7 2.1-2.1s1.2-2.8 1.5-4.4z" />
		<path class="st1"
			d="m104.9 76.3-0.2 4.4c0 1.2 0.2 2.4 0.6 3.6-0.4 0.2-0.8 0.2-1.3 0.2-1.2 0-1.7-0.6-1.7-1.8 0-0.9 0.1-2 0.2-3.2 0.2-1.2 0.2-2 0.2-2.3 0-0.7-0.3-1-0.9-1-0.7 0-1.4 0.6-2.2 1.9-0.8 1.2-1.3 2.3-1.4 3.1 0 0.4 0.2 1.4 0.4 3-0.4 0.2-0.9 0.2-1.4 0.2-1 0-1.5-0.5-1.5-1.5 0-0.5 0.1-1.4 0.2-2.8s0.2-2.5 0.2-3.4c0-2.8-0.2-5.2-0.5-7 0.4-0.2 0.9-0.2 1.3-0.2s0.8 0.2 1.1 0.5 0.4 0.7 0.4 1.2-0.1 1.6-0.2 3.2-0.2 2.9-0.2 3.8c0.5-1 1.1-1.9 2-2.7s1.8-1.2 2.7-1.2c1.5-0.2 2.2 0.5 2.2 2z" />
		<path class="st1"
			d="m111 84.6c-1.5 0-2.5-0.4-3.2-1.3s-1-2.1-1-3.6 0.5-2.9 1.4-4 2.1-1.7 3.5-1.7c3 0 4.4 1.7 4.4 5 0 1.6-0.5 2.9-1.4 4s-2.3 1.6-3.7 1.6zm-1.5-8.4c-0.2 0.8-0.4 1.5-0.4 2.3s0 1.4 0.1 1.8 0.2 0.9 0.3 1.3c0.3 0.9 0.9 1.3 1.8 1.3s1.5-0.2 1.8-0.7 0.4-1.2 0.4-2.2c0-2.8-0.7-4.3-2-4.3-0.7 0-1.4 0.1-2 0.5z" />
		<path class="st1"
			d="m118.7 81.1c0-0.2-0.1-1.8-0.2-4.7-0.7 0-1.2 0.2-1.6 0.3-0.2-0.3-0.2-0.6-0.2-0.9s0.1-0.6 0.3-0.8 0.5-0.3 0.8-0.3h0.7c0.1-1.5 0.6-2.8 1.5-3.8s2.2-1.6 3.6-1.6c0.8 0 1.5 0.2 2.1 0.5s0.8 0.9 0.8 1.5c0 0.5-0.2 0.9-0.5 1.2s-0.8 0.5-1.3 0.5h-0.4c0-0.2 0.1-0.3 0.1-0.5 0-0.5-0.1-0.8-0.3-1.1s-0.6-0.4-1.1-0.4-1 0.1-1.4 0.4c-0.3 0.4-0.5 0.9-0.6 1.5-0.2 0.6-0.2 1.3-0.2 1.9h0.5c0.9 0 1.9-0.1 3.1-0.4 0.2 0.3 0.2 0.6 0.2 1s-0.2 0.7-0.5 0.9-0.7 0.4-1.2 0.4c0 0-0.8-0.1-2.3-0.3l0.2 10.4c0 0.9-0.5 1.3-1.5 1.3-0.3 0-0.8-0.1-1.4-0.2 0.5-1.8 0.8-4 0.8-6.8z" />

		<g transform="translate(81.232 -56.414)">
			<path class="st1"
				d="m-77.5 102.9h3.5c3.7 0.2 5.1 0.6 6.1 1.2 2.7 1.2 4.2 4 3.7 6.9-0.1 0.8-0.2 1.6-0.4 2.4l-0.8 2.4-0.6 1.6v0.1l-0.3 1.5v0.1 1.2 0.2l0.6 1.5v0.1l0.8 1.2v0.1l1.1 1.1 0.7 0.9 0.6 1 0.6 1.1 0.6 1 0.4 0.8 0.3 0.9v0.1l0.2 1.5 0.1 1.2v1.7l-0.2 2-0.3 1.2v0.1l-0.4 1.1v0.1l-0.9 1.6v0.1l-0.3 0.4-0.1 0.1-1.3 1.1h-0.1l-1.4 0.9-1.1 0.6h-0.1l-1.3 0.4-1.6 0.4-2.8 0.4h-2.1l-1.5-0.1-1.7-0.2" />
			<path class="st2"
				d="m-74.3 109.8v-5.5c0.8-0.1 1.6 0 2.4 0.2 0.7 0.2 1.4 0.6 1.9 1.2 0.7 0.6 0.9 2.7 0.9 2.7s0.1 1.2 0.2 2.7-0.1 2.8 0 4.4c0.1 1.1 0.4 2.2 0.7 3.2l0.9 2c0.4 0.8 0.6 1.6 0.8 2.5 0.2 0.8 0 1.7-0.7 2.3-0.4 0.3-0.8 0.4-1.3 0.4-0.7-0.1-1.4-0.3-1.9-0.7-0.3-0.2-0.6-0.3-1-0.3-0.6-0.1-0.5 0.2-1.5 0.2s-1.1-2-1.1-2v-2.3-0.2-0.3" />
			<g transform="translate(226.21 125.35)">
				<path class="st3"
					d="m-303.7-15.6c1-0.1 2 0 3 0.3 0.9 0.4 1.7 1 2.2 1.7 0.6 0.8 0.9 1.7 1 2.7 0.1 0.9 0 1.9-0.3 2.7s-0.8 1.5-1.4 2.1c-0.7 0.7-1.6 1-2.6 1.1 0 0-1.1 0.1-1.9 0" />
			</g>
			<path class="st1" d="m-77.5 60.9s3.1-0.9 4.7 1.2c-0.1 1.1-0.4 2.1-0.8 3.1l-0.5 2.5-0.4 2.2h-3.1" />
			<path class="st1" d="m-74.3 103-0.2-32.8h-3v32.6" />
			<path class="st3"
				d="m-73.2 64.1h0.2c0.1 0.1 0.3 0.2 0.3 0.4l0.5-0.1c0-0.4 0-0.8-0.2-1.2l-0.5 0.1-0.1 0.3h-0.2v0.5z" />
			<path class="st3"
				d="m-73.7 66.1h0.3v-0.2c0.1-0.1 0.3-0.1 0.4 0 0.2 0.1 0.2 0.9 0.2 1s-0.4 0.1-0.4 0.1-0.2-0.4-0.2-0.4h-0.3v-0.5z" />
			<path class="st3"
				d="m-74.2 68.9 0.3 0.1c0.1-0.1 0.2-0.3 0.2-0.4 0.2-0.1 0.5 0 0.7 0.1 0 0.4-0.2 0.8-0.5 1.1h-0.5l0.1-0.4-0.3-0.1v-0.4z" />
			<path class="st4"
				d="m-76.4 102.9h3.5c3.7 0.2 5.1 0.6 6.1 1.2 2.7 1.2 4.2 4 3.7 6.9-0.1 0.8-0.2 1.6-0.4 2.4l-0.8 2.4-0.6 1.6v0.1l-0.3 1.5v0.1 1.2 0.2l0.6 1.5v0.1l0.8 1.2v0.1l1.1 1.1 0.7 0.9 0.6 1 0.6 1.1 0.6 1 0.4 0.8 0.3 0.9v0.1l0.2 1.5 0.1 1.2v1.7l-0.2 2-0.3 1.2v0.1l-0.3 1v0.1l-0.9 1.6v0.1l-0.3 0.4-0.1 0.1-1.3 1.1h-0.1l-1.4 0.9-1.1 0.6h-0.1l-1.3 0.4-1.6 0.4-2.8 0.4h-2.1l-1.5-0.1-1.7-0.2" />
		</g>
	</g>
</svg>